GentiumPlus-Italic.ufo
<glyph name="QuotMrk" format="2">
  <advance width="791"/>
  <unicode hex="0022"/>
  <outline>
    <contour>
      <point x="745" y="1409" type="line"/>
      <point x="709" y="1430" type="line"/>
      <point x="682" y="1423"/>
      <point x="621" y="1399"/>
      <point x="590" y="1382" type="curve"/>
      <point x="557" y="858" type="line"/>
      <point x="586" y="858"/>
      <point x="610" y="862"/>
      <point x="631" y="874" type="curve"/>
    </contour>
    <contour>
      <point x="420" y="1409" type="line"/>
      <point x="383" y="1430" type="line"/>
      <point x="356" y="1423"/>
      <point x="295" y="1399"/>
      <point x="264" y="1382" type="curve"/>
      <point x="231" y="858" type="line"/>
      <point x="260" y="858"/>
      <point x="283" y="862"/>
      <point x="305" y="874" type="curve"/>
    </contour>
  </outline>
</glyph>
<glyph name="Apos" format="2">
  <advance width="410"/>
  <unicode hex="0027"/>
  <outline>
    <contour>
      <point x="420" y="1409" type="line"/>
      <point x="383" y="1430" type="line"/>
      <point x="354" y="1423"/>
      <point x="295" y="1399"/>
      <point x="264" y="1382" type="curve"/>
      <point x="231" y="858" type="line"/>
      <point x="260" y="858"/>
      <point x="283" y="862"/>
      <point x="305" y="874" type="curve"/>
    </contour>
  </outline>
</glyph>
<glyph name="LftParen" format="2">
  <advance width="604"/>
  <unicode hex="0028"/>
  <outline>
    <contour>
      <point x="705" y="1559" type="curve"/>
      <point x="682" y="1604" type="line"/>
      <point x="403" y="1473"/>
      <point x="186" y="1079"/>
      <point x="125" y="641" type="curve" smooth="yes"/>
      <point x="63" y="217"/>
      <point x="162" y="-182"/>
      <point x="412" y="-315" type="curve"/>
      <point x="449" y="-270" type="line"/>
      <point x="295" y="-98"/>
      <point x="231" y="283"/>
      <point x="285" y="672" type="curve"/>
      <point x="346" y="1100"/>
      <point x="522" y="1430"/>
    </contour>
  </outline>
</glyph>
<glyph name="RtParen" format="2">
  <advance width="604"/>
  <unicode hex="0029"/>
  <outline>
    <contour>
      <point x="500" y="627" type="curve"/>
      <point x="559" y="1051"/>
      <point x="463" y="1470"/>
      <point x="213" y="1604" type="curve"/>
      <point x="176" y="1559" type="line"/>
      <point x="330" y="1386"/>
      <point x="393" y="985"/>
      <point x="340" y="598" type="curve"/>
      <point x="279" y="170"/>
      <point x="100" y="-141"/>
      <point x="-82" y="-270" type="curve"/>
      <point x="-57" y="-315" type="line"/>
      <point x="221" y="-184"/>
      <point x="438" y="188"/>
    </contour>
  </outline>
</glyph>
<glyph name="HyphenMinus" format="2">
  <advance width="641"/>
  <unicode hex="002D"/>
  <anchor x="365" y="1000" name="U"/>
  <outline>
    <contour>
      <point x="580" y="541" type="curve"/>
      <point x="561" y="565" type="line"/>
      <point x="86" y="565" type="line"/>
      <point x="70" y="539"/>
      <point x="53" y="508"/>
      <point x="43" y="479" type="curve"/>
      <point x="61" y="455" type="line"/>
      <point x="539" y="455" type="line"/>
      <point x="551" y="477"/>
      <point x="569" y="512"/>
    </contour>
  </outline>
</glyph>
<glyph name="Semicolon" format="2">
  <advance width="410"/>
  <unicode hex="003B"/>
  <outline>
    <contour>
      <point x="16" y="-305" type="line"/>
      <point x="156" y="-221"/>
      <point x="303" y="0"/>
      <point x="303" y="102" type="curve"/>
      <point x="303" y="184"/>
      <point x="285" y="203"/>
      <point x="238" y="229" type="curve"/>
      <point x="195" y="231"/>
      <point x="47" y="160"/>
      <point x="18" y="129" type="curve"/>
      <point x="27" y="84" type="line"/>
      <point x="109" y="96"/>
      <point x="135" y="49"/>
      <point x="135" y="0" type="curve" smooth="yes"/>
      <point x="135" y="-72"/>
      <point x="84" y="-162"/>
      <point x="-18" y="-270" type="curve"/>
    </contour>
    <contour>
      <point x="236" y="686" type="curve" smooth="yes"/>
      <point x="326" y="686"/>
      <point x="383" y="786"/>
      <point x="383" y="866" type="curve"/>
      <point x="383" y="924"/>
      <point x="350" y="961"/>
      <point x="301" y="961" type="curve" smooth="yes"/>
      <point x="217" y="961"/>
      <point x="152" y="860"/>
      <point x="152" y="784" type="curve" smooth="yes"/>
      <point x="152" y="725"/>
      <point x="182" y="686"/>
    </contour>
  </outline>
</glyph>
<glyph name="AtSgn" format="2">
  <advance width="1593"/>
  <unicode hex="0040"/>
  <outline>
    <contour>
      <point x="1501" y="549" type="curve"/>
      <point x="1573" y="1049"/>
      <point x="1315" y="1333"/>
      <point x="961" y="1333" type="curve" smooth="yes"/>
      <point x="522" y="1333"/>
      <point x="145" y="915"/>
      <point x="82" y="465" type="curve" smooth="yes"/>
      <point x="10" y="-47"/>
      <point x="289" y="-375"/>
      <point x="731" y="-375" type="curve" smooth="yes"/>
      <point x="989" y="-375"/>
      <point x="1198" y="-238"/>
      <point x="1300" y="-137" type="curve"/>
      <point x="1284" y="-82" type="line"/>
      <point x="1200" y="-150"/>
      <point x="995" y="-256"/>
      <point x="795" y="-256" type="curve" smooth="yes"/>
      <point x="434" y="-256"/>
      <point x="162" y="20"/>
      <point x="229" y="504" type="curve" smooth="yes"/>
      <point x="281" y="864"/>
      <point x="537" y="1214"/>
      <point x="907" y="1214" type="curve" smooth="yes"/>
      <point x="1202" y="1214"/>
      <point x="1450" y="961"/>
      <point x="1382" y="510" type="curve" smooth="yes"/>
      <point x="1348" y="283"/>
      <point x="1196" y="94"/>
      <point x="1128" y="94" type="curve" smooth="yes"/>
      <point x="1096" y="94"/>
      <point x="1067" y="127"/>
      <point x="1067" y="279" type="curve" smooth="yes"/>
      <point x="1067" y="338"/>
      <point x="1096" y="569"/>
      <point x="1137" y="760" type="curve" smooth="yes"/>
      <point x="1155" y="850"/>
      <point x="1167" y="864"/>
      <point x="1212" y="901" type="curve"/>
      <point x="1192" y="936" type="line"/>
      <point x="1102" y="893"/>
      <point x="1014" y="831"/>
      <point x="1001" y="770" type="curve" smooth="yes"/>
      <point x="987" y="692"/>
      <point x="926" y="358"/>
      <point x="926" y="281" type="curve" smooth="yes"/>
      <point x="926" y="14"/>
      <point x="979" y="-41"/>
      <point x="1026" y="-41" type="curve" smooth="yes"/>
      <point x="1184" y="-41"/>
      <point x="1454" y="203"/>
    </contour>
    <contour>
      <point x="1161" y="842" type="curve"/>
      <point x="1114" y="848"/>
      <point x="1042" y="936"/>
      <point x="952" y="936" type="curve" smooth="yes"/>
      <point x="868" y="936"/>
      <point x="764" y="891"/>
      <point x="692" y="842" type="curve" smooth="yes"/>
      <point x="504" y="713"/>
      <point x="424" y="516"/>
      <point x="424" y="305" type="curve" smooth="yes"/>
      <point x="424" y="55"/>
      <point x="547" y="-41"/>
      <point x="637" y="-41" type="curve" smooth="yes"/>
      <point x="750" y="-41"/>
      <point x="864" y="158"/>
      <point x="930" y="279" type="curve"/>
      <point x="956" y="457" type="line"/>
      <point x="881" y="297"/>
      <point x="770" y="96"/>
      <point x="700" y="96" type="curve" smooth="yes"/>
      <point x="623" y="96"/>
      <point x="561" y="207"/>
      <point x="561" y="379" type="curve" smooth="yes"/>
      <point x="561" y="537"/>
      <point x="668" y="831"/>
      <point x="850" y="831" type="curve" smooth="yes"/>
      <point x="958" y="831"/>
      <point x="1030" y="721"/>
      <point x="1067" y="721" type="curve" smooth="yes"/>
      <point x="1100" y="721"/>
      <point x="1104" y="803"/>
    </contour>
  </outline>
</glyph>
<glyph name="LtnCapI" format="2">
  <advance width="573"/>
  <unicode hex="0049"/>
  <anchor x="225" y="0" name="H"/>
  <anchor x="211" y="-100" name="L"/>
  <anchor x="285" y="0" name="O"/>
  <anchor x="568" y="1072" name="R"/>
  <anchor x="406" y="1320" name="U"/>
  <outline>
    <contour>
      <point x="604" y="1260" type="line"/>
      <point x="195" y="1260" type="line"/>
      <point x="188" y="1217" type="line"/>
      <point x="272" y="1198"/>
      <point x="313" y="1171"/>
      <point x="311" y="1155" type="curve" smooth="yes"/>
      <point x="168" y="104" type="line" smooth="yes"/>
      <point x="165" y="85"/>
      <point x="111" y="61"/>
      <point x="27" y="43" type="curve"/>
      <point x="20" y="0" type="line"/>
      <point x="430" y="0" type="line"/>
      <point x="436" y="43" type="line"/>
      <point x="350" y="61"/>
      <point x="309" y="88"/>
      <point x="311" y="104" type="curve" smooth="yes"/>
      <point x="457" y="1155" type="line" smooth="yes"/>
      <point x="460" y="1174"/>
      <point x="514" y="1198"/>
      <point x="598" y="1217" type="curve"/>
    </contour>
  </outline>
</glyph>
<glyph name="LtnCapK" format="2">
  <advance width="1102"/>
  <unicode hex="004B"/>
  <anchor x="200" y="0" name="H"/>
  <anchor x="516" y="-100" name="L"/>
  <anchor x="711" y="1320" name="U"/>
  <outline>
    <contour>
      <point x="1161" y="1260" type="line"/>
      <point x="778" y="1260" type="line"/>
      <point x="772" y="1217" type="line"/>
      <point x="864" y="1208"/>
      <point x="893" y="1198"/>
      <point x="825" y="1128" type="curve"/>
      <point x="362" y="643" type="line"/>
      <point x="478" y="643" type="line"/>
      <point x="991" y="1155" type="line" smooth="yes"/>
      <point x="1034" y="1198"/>
      <point x="1073" y="1206"/>
      <point x="1155" y="1217" type="curve"/>
    </contour>
    <contour>
      <point x="1077" y="111" type="curve"/>
      <point x="1059" y="147" type="line"/>
      <point x="934" y="96"/>
      <point x="893" y="100"/>
      <point x="856" y="156" type="curve"/>
      <point x="472" y="721" type="line"/>
      <point x="362" y="643" type="line"/>
      <point x="731" y="51" type="line" smooth="yes"/>
      <point x="764" y="-2"/>
      <point x="786" y="-14"/>
      <point x="827" y="-14" type="curve" smooth="yes"/>
      <point x="879" y="-14"/>
      <point x="975" y="33"/>
    </contour>
    <contour>
      <point x="584" y="1260" type="line"/>
      <point x="174" y="1260" type="line"/>
      <point x="168" y="1217" type="line"/>
      <point x="254" y="1198"/>
      <point x="295" y="1171"/>
      <point x="293" y="1155" type="curve" smooth="yes"/>
      <point x="147" y="104" type="line" smooth="yes"/>
      <point x="145" y="86"/>
      <point x="90" y="61"/>
      <point x="6" y="43" type="curve"/>
      <point x="0" y="0" type="line"/>
      <point x="410" y="0" type="line"/>
      <point x="416" y="43" type="line"/>
      <point x="332" y="61"/>
      <point x="289" y="88"/>
      <point x="293" y="104" type="curve"/>
      <point x="436" y="1155" type="line"/>
      <point x="440" y="1174"/>
      <point x="494" y="1198"/>
      <point x="578" y="1217" type="curve"/>
    </contour>
  </outline>
</glyph>
<glyph name="LtnCapU" format="2">
  <advance width="1227"/>
  <unicode hex="0055"/>
  <anchor x="580" y="0" name="H"/>
  <anchor x="563" y="-100" name="L"/>
  <anchor x="661" y="0" name="O"/>
  <anchor x="1256" y="1072" name="R"/>
  <anchor x="757" y="1320" name="U"/>
  <outline>
    <contour>
      <point x="1286" y="1260" type="line"/>
      <point x="911" y="1260" type="line"/>
      <point x="905" y="1217" type="line"/>
      <point x="991" y="1198"/>
      <point x="1026" y="1171"/>
      <point x="1024" y="1155" type="curve" smooth="yes"/>
      <point x="932" y="469" type="line" smooth="yes"/>
      <point x="905" y="270"/>
      <point x="782" y="86"/>
      <point x="608" y="86" type="curve" smooth="yes"/>
      <point x="434" y="86"/>
      <point x="342" y="211"/>
      <point x="342" y="397" type="curve" smooth="yes"/>
      <point x="342" y="432"/>
      <point x="343" y="471"/>
      <point x="348" y="510" type="curve" smooth="yes"/>
      <point x="436" y="1155" type="line" smooth="yes"/>
      <point x="439" y="1174"/>
      <point x="494" y="1198"/>
      <point x="578" y="1217" type="curve"/>
      <point x="584" y="1260" type="line"/>
      <point x="174" y="1260" type="line"/>
      <point x="168" y="1217" type="line"/>
      <point x="254" y="1198"/>
      <point x="295" y="1171"/>
      <point x="293" y="1155" type="curve" smooth="yes"/>
      <point x="195" y="463" type="line" smooth="yes"/>
      <point x="189" y="422"/>
      <point x="186" y="383"/>
      <point x="186" y="348" type="curve" smooth="yes"/>
      <point x="186" y="104"/>
      <point x="338" y="-31"/>
      <point x="557" y="-31" type="curve" smooth="yes"/>
      <point x="821" y="-31"/>
      <point x="1006" y="162"/>
      <point x="1055" y="512" type="curve" smooth="yes"/>
      <point x="1145" y="1155" type="line" smooth="yes"/>
      <point x="1148" y="1174"/>
      <point x="1196" y="1198"/>
      <point x="1280" y="1217" type="curve"/>
    </contour>
  </outline>
</glyph>
<glyph name="LftSqrBrac" format="2">
  <advance width="614"/>
  <unicode hex="005B"/>
  <outline>
    <contour>
      <point x="740" y="1573" type="curve"/>
      <point x="713" y="1599" type="line"/>
      <point x="328" y="1599" type="line"/>
      <point x="56" y="-336" type="line"/>
      <point x="449" y="-336" type="line"/>
      <point x="462" y="-313"/>
      <point x="478" y="-276"/>
      <point x="486" y="-250" type="curve"/>
      <point x="457" y="-221" type="line"/>
      <point x="201" y="-221" type="line"/>
      <point x="441" y="1487" type="line"/>
      <point x="703" y="1487" type="line"/>
      <point x="713" y="1503"/>
      <point x="732" y="1540"/>
    </contour>
  </outline>
</glyph>
<glyph name="ReverseSolidus" format="2">
  <advance width="819"/>
  <unicode hex="005C"/>
  <outline>
    <contour>
      <point x="682" y="-311" type="line"/>
      <point x="295" y="1550" type="line"/>
      <point x="262" y="1573"/>
      <point x="219" y="1589"/>
      <point x="182" y="1599" type="curve"/>
      <point x="145" y="1577" type="line"/>
      <point x="535" y="-285" type="line"/>
      <point x="555" y="-303"/>
      <point x="618" y="-326"/>
      <point x="647" y="-336" type="curve"/>
    </contour>
  </outline>
</glyph>
<glyph name="RtSqrBrac" format="2">
  <advance width="614"/>
  <unicode hex="005D"/>
  <outline>
    <contour>
      <point x="604" y="1599" type="line"/>
      <point x="213" y="1599" type="line"/>
      <point x="201" y="1577"/>
      <point x="184" y="1542"/>
      <point x="176" y="1513" type="curve"/>
      <point x="205" y="1487" type="line"/>
      <point x="459" y="1487" type="line"/>
      <point x="219" y="-221" type="line"/>
      <point x="-43" y="-221" type="line"/>
      <point x="-53" y="-238"/>
      <point x="-70" y="-276"/>
      <point x="-80" y="-307" type="curve"/>
      <point x="-51" y="-336" type="line"/>
      <point x="334" y="-336" type="line"/>
    </contour>
  </outline>
</glyph>
<glyph name="CircumAccent" format="2">
  <advance width="938"/>
  <unicode hex="005E"/>
  <anchor x="624" y="1640" name="U"/>
  <outline>
    <contour>
      <point x="854" y="635" type="curve"/>
      <point x="653" y="1550" type="line"/>
      <point x="616" y="1532"/>
      <point x="551" y="1493"/>
      <point x="516" y="1462" type="curve"/>
      <point x="94" y="592" type="line"/>
      <point x="113" y="565" type="line"/>
      <point x="139" y="578"/>
      <point x="193" y="608"/>
      <point x="223" y="635" type="curve"/>
      <point x="553" y="1315" type="line"/>
      <point x="713" y="592" type="line"/>
      <point x="743" y="565" type="line"/>
      <point x="788" y="586"/>
      <point x="817" y="604"/>
    </contour>
  </outline>
</glyph>
<glyph name="GraveAccent" format="2">
  <advance width="606"/>
  <unicode hex="0060"/>
  <anchor x="527" y="1370" name="U"/>
  <outline>
    <contour>
      <point x="565" y="1047" type="curve"/>
      <point x="426" y="1459" type="line"/>
      <point x="392" y="1459"/>
      <point x="317" y="1454"/>
      <point x="285" y="1448" type="curve"/>
      <point x="253" y="1412" type="line"/>
      <point x="503" y="1026" type="line"/>
      <point x="527" y="1027"/>
      <point x="538" y="1031"/>
    </contour>
  </outline>
</glyph>
<glyph name="LtnSmJ" format="2">
  <advance width="502"/>
  <unicode hex="006A"/>
  <anchor x="108" y="-600" name="L"/>
  <anchor x="-25" y="-400" name="O"/>
  <anchor x="357" y="1320" name="U"/>
  <outline>
    <contour>
      <point x="458" y="1262" type="curve"/>
      <point x="458" y="1307"/>
      <point x="433" y="1333"/>
      <point x="392" y="1333" type="curve" smooth="yes"/>
      <point x="316" y="1333"/>
      <point x="269" y="1247"/>
      <point x="269" y="1176" type="curve" smooth="yes"/>
      <point x="269" y="1131"/>
      <point x="292" y="1106"/>
      <point x="333" y="1106" type="curve" smooth="yes"/>
      <point x="408" y="1106"/>
      <point x="458" y="1188"/>
    </contour>
    <contour>
      <point x="375" y="870" type="curve" smooth="yes"/>
      <point x="375" y="926"/>
      <point x="356" y="936"/>
      <point x="319" y="936" type="curve" smooth="yes"/>
      <point x="287" y="936"/>
      <point x="168" y="891"/>
      <point x="55" y="840" type="curve"/>
      <point x="70" y="803" type="line"/>
      <point x="103" y="813"/>
      <point x="153" y="827"/>
      <point x="170" y="827" type="curve" smooth="yes"/>
      <point x="193" y="827"/>
      <point x="211" y="821"/>
      <point x="211" y="760" type="curve" smooth="yes"/>
      <point x="211" y="721"/>
      <point x="189" y="516"/>
      <point x="182" y="451" type="curve" smooth="yes"/>
      <point x="174" y="375"/>
      <point x="161" y="208"/>
      <point x="128" y="11" type="curve" smooth="yes"/>
      <point x="86" y="-239"/>
      <point x="15" y="-383"/>
      <point x="-99" y="-383" type="curve" smooth="yes"/>
      <point x="-216" y="-383"/>
      <point x="-253" y="-301"/>
      <point x="-275" y="-301" type="curve" smooth="yes"/>
      <point x="-302" y="-301"/>
      <point x="-384" y="-389"/>
      <point x="-384" y="-424" type="curve" smooth="yes"/>
      <point x="-384" y="-451"/>
      <point x="-282" y="-500"/>
      <point x="-208" y="-500" type="curve" smooth="yes"/>
      <point x="-161" y="-500"/>
      <point x="-56" y="-481"/>
      <point x="17" y="-424" type="curve" smooth="yes"/>
      <point x="133" y="-334"/>
      <point x="245" y="-218"/>
      <point x="286" y="66" type="curve" smooth="yes"/>
      <point x="310" y="232"/>
      <point x="325" y="381"/>
      <point x="334" y="473" type="curve" smooth="yes"/>
      <point x="342" y="559"/>
      <point x="375" y="827"/>
    </contour>
  </outline>
</glyph>
<glyph name="LtnSmR" format="2">
  <advance width="727"/>
  <unicode hex="0072"/>
  <anchor x="175" y="0" name="H"/>
  <anchor x="164" y="-100" name="L"/>
  <anchor x="460" y="1000" name="U"/>
  <outline>
    <contour>
      <point x="768" y="850" type="curve"/>
      <point x="709" y="874"/>
      <point x="682" y="936"/>
      <point x="635" y="936" type="curve" smooth="yes"/>
      <point x="549" y="936"/>
      <point x="451" y="881"/>
      <point x="322" y="618" type="curve"/>
      <point x="330" y="668"/>
      <point x="348" y="793"/>
      <point x="348" y="821" type="curve" smooth="yes"/>
      <point x="348" y="915"/>
      <point x="346" y="936"/>
      <point x="309" y="936" type="curve" smooth="yes"/>
      <point x="276" y="936"/>
      <point x="154" y="891"/>
      <point x="41" y="840" type="curve"/>
      <point x="55" y="803" type="line"/>
      <point x="77" y="810"/>
      <point x="137" y="827"/>
      <point x="158" y="827" type="curve" smooth="yes"/>
      <point x="180" y="827"/>
      <point x="199" y="821"/>
      <point x="199" y="760" type="curve" smooth="yes"/>
      <point x="199" y="639"/>
      <point x="145" y="274"/>
      <point x="86" y="-10" type="curve"/>
      <point x="119" y="-41" type="line"/>
      <point x="150" y="-26"/>
      <point x="231" y="11"/>
      <point x="262" y="25" type="curve"/>
      <point x="258" y="131"/>
      <point x="279" y="283"/>
      <point x="307" y="383" type="curve" smooth="yes"/>
      <point x="361" y="574"/>
      <point x="485" y="784"/>
      <point x="555" y="784" type="curve" smooth="yes"/>
      <point x="594" y="784"/>
      <point x="612" y="715"/>
      <point x="662" y="715" type="curve" smooth="yes"/>
      <point x="688" y="715"/>
      <point x="735" y="807"/>
    </contour>
  </outline>
</glyph>
<glyph name="LtnSmW" format="2">
  <advance width="1290"/>
  <unicode hex="0077"/>
  <anchor x="602" y="-100" name="L"/>
  <anchor x="753" y="1000" name="U"/>
  <outline>
    <contour>
      <point x="1278" y="860" type="curve"/>
      <point x="1278" y="926"/>
      <point x="1239" y="936"/>
      <point x="1194" y="936" type="curve" smooth="yes"/>
      <point x="1176" y="936"/>
      <point x="1100" y="920"/>
      <point x="1008" y="866" type="curve"/>
      <point x="1026" y="829" type="line"/>
      <point x="1055" y="838"/>
      <point x="1083" y="844"/>
      <point x="1102" y="844" type="curve" smooth="yes"/>
      <point x="1137" y="844"/>
      <point x="1157" y="827"/>
      <point x="1157" y="799" type="curve" smooth="yes"/>
      <point x="1157" y="698"/>
      <point x="1116" y="516"/>
      <point x="915" y="147" type="curve"/>
      <point x="901" y="287"/>
      <point x="868" y="475"/>
      <point x="848" y="600" type="curve" smooth="yes"/>
      <point x="827" y="721"/>
      <point x="786" y="936"/>
      <point x="770" y="936" type="curve" smooth="yes"/>
      <point x="741" y="936"/>
      <point x="682" y="899"/>
      <point x="643" y="864" type="curve"/>
      <point x="631" y="678"/>
      <point x="504" y="373"/>
      <point x="397" y="166" type="curve"/>
      <point x="391" y="266"/>
      <point x="342" y="688"/>
      <point x="317" y="799" type="curve" smooth="yes"/>
      <point x="295" y="895"/>
      <point x="281" y="936"/>
      <point x="244" y="936" type="curve" smooth="yes"/>
      <point x="209" y="936"/>
      <point x="117" y="891"/>
      <point x="4" y="840" type="curve"/>
      <point x="18" y="803" type="line"/>
      <point x="18" y="803"/>
      <point x="94" y="827"/>
      <point x="117" y="827" type="curve" smooth="yes"/>
      <point x="141" y="827"/>
      <point x="172" y="817"/>
      <point x="188" y="745" type="curve"/>
      <point x="223" y="610"/>
      <point x="254" y="215"/>
      <point x="283" y="-10" type="curve"/>
      <point x="315" y="-41" type="line"/>
      <point x="342" y="-29"/>
      <point x="391" y="-2"/>
      <point x="414" y="10" type="curve"/>
      <point x="549" y="238"/>
      <point x="692" y="606"/>
      <point x="696" y="690" type="curve"/>
      <point x="731" y="567"/>
      <point x="778" y="215"/>
      <point x="807" y="-10" type="curve"/>
      <point x="840" y="-41" type="line"/>
      <point x="866" y="-29"/>
      <point x="909" y="-10"/>
      <point x="932" y="2" type="curve"/>
      <point x="1231" y="557"/>
      <point x="1278" y="754"/>
    </contour>
  </outline>
</glyph>
<glyph name="Tilde" format="2">
  <advance width="983"/>
  <unicode hex="007E"/>
  <outline>
    <contour>
      <point x="964" y="774" type="curve"/>
      <point x="919" y="799" type="line"/>
      <point x="852" y="690"/>
      <point x="792" y="639"/>
      <point x="733" y="639" type="curve" smooth="yes"/>
      <point x="633" y="639"/>
      <point x="526" y="799"/>
      <point x="411" y="799" type="curve" smooth="yes"/>
      <point x="295" y="799"/>
      <point x="159" y="633"/>
      <point x="90" y="502" type="curve"/>
      <point x="135" y="475" type="line"/>
      <point x="200" y="586"/>
      <point x="258" y="637"/>
      <point x="319" y="637" type="curve" smooth="yes"/>
      <point x="426" y="637"/>
      <point x="536" y="477"/>
      <point x="643" y="477" type="curve" smooth="yes"/>
      <point x="760" y="477"/>
      <point x="893" y="643"/>
    </contour>
  </outline>
</glyph>
<glyph name="CentSgn" format="2">
  <advance width="823"/>
  <unicode hex="00A2"/>
  <outline>
    <contour>
      <point x="864" y="936" type="curve"/>
      <point x="823" y="950"/>
      <point x="758" y="1055"/>
      <point x="641" y="1055" type="curve" smooth="yes"/>
      <point x="559" y="1055"/>
      <point x="444" y="1020"/>
      <point x="371" y="973" type="curve" smooth="yes"/>
      <point x="174" y="842"/>
      <point x="104" y="651"/>
      <point x="104" y="471" type="curve" smooth="yes"/>
      <point x="104" y="190"/>
      <point x="276" y="111"/>
      <point x="367" y="111" type="curve" smooth="yes"/>
      <point x="465" y="111"/>
      <point x="559" y="139"/>
      <point x="768" y="330" type="curve"/>
      <point x="762" y="342"/>
      <point x="748" y="356"/>
      <point x="737" y="373" type="curve"/>
      <point x="594" y="254"/>
      <point x="516" y="225"/>
      <point x="467" y="225" type="curve" smooth="yes"/>
      <point x="352" y="225"/>
      <point x="250" y="336"/>
      <point x="250" y="510" type="curve" smooth="yes"/>
      <point x="250" y="694"/>
      <point x="356" y="952"/>
      <point x="539" y="952" type="curve" smooth="yes"/>
      <point x="664" y="952"/>
      <point x="692" y="831"/>
      <point x="721" y="831" type="curve" smooth="yes"/>
      <point x="754" y="831"/>
      <point x="807" y="895"/>
    </contour>
    <contour>
      <point x="606" y="1194" type="line"/>
      <point x="586" y="1217" type="line"/>
      <point x="549" y="1206"/>
      <point x="561" y="1210"/>
      <point x="526" y="1186" type="curve"/>
      <point x="360" y="-27" type="line"/>
      <point x="379" y="-49" type="line"/>
      <point x="410" y="-39"/>
      <point x="416" y="-39"/>
      <point x="440" y="-18" type="curve"/>
    </contour>
  </outline>
</glyph>
<glyph name="CurrSgn" format="2">
  <advance width="823"/>
  <unicode hex="00A4"/>
  <outline>
    <contour>
      <point x="455" y="770" type="curve" smooth="yes"/>
      <point x="542" y="770"/>
      <point x="594" y="685"/>
      <point x="582" y="602" type="curve" smooth="yes"/>
      <point x="569" y="511"/>
      <point x="501" y="434"/>
      <point x="408" y="434" type="curve" smooth="yes"/>
      <point x="320" y="434"/>
      <point x="269" y="517"/>
      <point x="279" y="601" type="curve" smooth="yes"/>
      <point x="290" y="695"/>
      <point x="362" y="770"/>
    </contour>
    <contour>
      <point x="193" y="600" type="curve"/>
      <point x="175" y="468"/>
      <point x="255" y="339"/>
      <point x="395" y="339" type="curve" smooth="yes"/>
      <point x="533" y="339"/>
      <point x="648" y="456"/>
      <point x="667" y="600" type="curve" smooth="yes"/>
      <point x="684" y="730"/>
      <point x="606" y="866"/>
      <point x="468" y="866" type="curve" smooth="yes"/>
      <point x="374" y="866"/>
      <point x="214" y="789"/>
    </contour>
    <contour>
      <point x="288" y="493" type="line"/>
      <point x="257" y="491" type="line"/>
      <point x="105" y="345" type="line"/>
      <point x="110" y="324"/>
      <point x="118" y="301"/>
      <point x="125" y="283" type="curve"/>
      <point x="154" y="281" type="line"/>
      <point x="307" y="427" type="line"/>
    </contour>
    <contour>
      <point x="347" y="749" type="line"/>
      <point x="350" y="783" type="line"/>
      <point x="243" y="924" type="line"/>
      <point x="223" y="915"/>
      <point x="192" y="910"/>
      <point x="175" y="900" type="curve"/>
      <point x="168" y="867" type="line"/>
      <point x="283" y="718" type="line"/>
    </contour>
    <contour>
      <point x="688" y="301" type="line"/>
      <point x="691" y="335" type="line"/>
      <point x="576" y="486" type="line"/>
      <point x="557" y="477"/>
      <point x="533" y="465"/>
      <point x="516" y="455" type="curve"/>
      <point x="509" y="421" type="line"/>
      <point x="616" y="280" type="line"/>
    </contour>
    <contour>
      <point x="735" y="922" type="line"/>
      <point x="704" y="921" type="line"/>
      <point x="551" y="774" type="line"/>
      <point x="556" y="754"/>
      <point x="564" y="730"/>
      <point x="571" y="712" type="curve"/>
      <point x="601" y="710" type="line"/>
      <point x="753" y="856" type="line"/>
    </contour>
  </outline>
</glyph>
<glyph name="BrokenBar" format="2">
  <advance width="525"/>
  <unicode hex="00A6"/>
  <outline>
    <contour>
      <point x="495" y="1578" type="line"/>
      <point x="465" y="1600" type="line"/>
      <point x="426" y="1590"/>
      <point x="391" y="1574"/>
      <point x="352" y="1551" type="curve"/>
      <point x="231" y="688" type="line"/>
      <point x="262" y="666" type="line"/>
      <point x="295" y="676"/>
      <point x="350" y="696"/>
      <point x="377" y="717" type="curve"/>
    </contour>
    <contour>
      <point x="332" y="402" type="line"/>
      <point x="299" y="427" type="line"/>
      <point x="260" y="414"/>
      <point x="225" y="398"/>
      <point x="189" y="375" type="curve"/>
      <point x="70" y="-475" type="line"/>
      <point x="99" y="-500" type="line"/>
      <point x="129" y="-490"/>
      <point x="187" y="-467"/>
      <point x="211" y="-449" type="curve"/>
    </contour>
  </outline>
</glyph>
<glyph name="FemOrdIndicator" format="2">
  <advance width="586"/>
  <unicode hex="00AA"/>
  <outline>
    <contour>
      <point x="563" y="768" type="curve"/>
      <point x="555" y="788" type="line"/>
      <point x="526" y="776"/>
      <point x="508" y="774"/>
      <point x="494" y="774" type="curve" smooth="yes"/>
      <point x="477" y="774"/>
      <point x="469" y="801"/>
      <point x="469" y="883" type="curve" smooth="yes"/>
      <point x="469" y="915"/>
      <point x="483" y="1040"/>
      <point x="506" y="1143" type="curve" smooth="yes"/>
      <point x="516" y="1190"/>
      <point x="522" y="1198"/>
      <point x="547" y="1217" type="curve"/>
      <point x="537" y="1237" type="line"/>
      <point x="487" y="1214"/>
      <point x="440" y="1176"/>
      <point x="432" y="1143" type="curve" smooth="yes"/>
      <point x="424" y="1100"/>
      <point x="393" y="926"/>
      <point x="393" y="885" type="curve" smooth="yes"/>
      <point x="393" y="741"/>
      <point x="416" y="713"/>
      <point x="442" y="713" type="curve" smooth="yes"/>
      <point x="463" y="713"/>
      <point x="502" y="729"/>
    </contour>
    <contour>
      <point x="518" y="1186" type="curve"/>
      <point x="494" y="1190"/>
      <point x="451" y="1237"/>
      <point x="401" y="1237" type="curve" smooth="yes"/>
      <point x="358" y="1237"/>
      <point x="301" y="1212"/>
      <point x="262" y="1186" type="curve" smooth="yes"/>
      <point x="160" y="1116"/>
      <point x="106" y="1012"/>
      <point x="106" y="897" type="curve" smooth="yes"/>
      <point x="106" y="764"/>
      <point x="174" y="713"/>
      <point x="221" y="713" type="curve" smooth="yes"/>
      <point x="283" y="713"/>
      <point x="360" y="817"/>
      <point x="395" y="883" type="curve"/>
      <point x="410" y="979" type="line"/>
      <point x="369" y="893"/>
      <point x="293" y="784"/>
      <point x="256" y="784" type="curve" smooth="yes"/>
      <point x="213" y="784"/>
      <point x="180" y="844"/>
      <point x="180" y="938" type="curve" smooth="yes"/>
      <point x="180" y="1022"/>
      <point x="248" y="1180"/>
      <point x="346" y="1180" type="curve" smooth="yes"/>
      <point x="406" y="1180"/>
      <point x="449" y="1120"/>
      <point x="469" y="1120" type="curve" smooth="yes"/>
      <point x="485" y="1120"/>
      <point x="487" y="1165"/>
    </contour>
    <contour>
      <point x="549" y="635" type="curve"/>
      <point x="530" y="659" type="line"/>
      <point x="82" y="659" type="line"/>
      <point x="74" y="639"/>
      <point x="66" y="627"/>
      <point x="59" y="606" type="curve"/>
      <point x="76" y="586" type="line"/>
      <point x="526" y="586" type="line"/>
      <point x="532" y="604"/>
      <point x="543" y="614"/>
    </contour>
  </outline>
</glyph>
<glyph name="NotSgn" format="2">
  <advance width="823"/>
  <unicode hex="00AC"/>
  <outline>
    <contour>
      <point x="762" y="596" type="line"/>
      <point x="739" y="618" type="line"/>
      <point x="739" y="618"/>
      <point x="821" y="618"/>
      <point x="92" y="618" type="curve"/>
      <point x="78" y="592"/>
      <point x="61" y="557"/>
      <point x="51" y="530" type="curve"/>
      <point x="70" y="506" type="line"/>
      <point x="637" y="506" type="line"/>
      <point x="606" y="297" type="line"/>
      <point x="627" y="272" type="line"/>
      <point x="659" y="283"/>
      <point x="698" y="303"/>
      <point x="725" y="324" type="curve"/>
    </contour>
  </outline>
</glyph>
<glyph name="RegisteredSgn" format="2">
  <advance width="704"/>
  <unicode hex="00AE"/>
  <outline>
    <contour>
      <point x="736" y="1084" type="curve"/>
      <point x="763" y="1275"/>
      <point x="659" y="1430"/>
      <point x="487" y="1430" type="curve" smooth="yes"/>
      <point x="315" y="1430"/>
      <point x="168" y="1275"/>
      <point x="141" y="1084" type="curve" smooth="yes"/>
      <point x="115" y="893"/>
      <point x="218" y="738"/>
      <point x="390" y="738" type="curve" smooth="yes"/>
      <point x="562" y="738"/>
      <point x="710" y="893"/>
    </contour>
    <contour>
      <point x="683" y="1084" type="curve"/>
      <point x="661" y="925"/>
      <point x="544" y="793"/>
      <point x="401" y="793" type="curve" smooth="yes"/>
      <point x="259" y="793"/>
      <point x="172" y="925"/>
      <point x="194" y="1084" type="curve" smooth="yes"/>
      <point x="216" y="1242"/>
      <point x="332" y="1375"/>
      <point x="474" y="1375" type="curve" smooth="yes"/>
      <point x="617" y="1375"/>
      <point x="705" y="1242"/>
    </contour>
    <contour>
      <point x="575" y="1186" type="curve"/>
      <point x="582" y="1240"/>
      <point x="541" y="1291"/>
      <point x="451" y="1291" type="curve" smooth="yes"/>
      <point x="402" y="1291"/>
      <point x="364" y="1282"/>
      <point x="328" y="1273" type="curve"/>
      <point x="326" y="1244" type="line"/>
      <point x="364" y="1250"/>
      <point x="403" y="1256"/>
      <point x="436" y="1256" type="curve" smooth="yes"/>
      <point x="505" y="1256"/>
      <point x="524" y="1216"/>
      <point x="519" y="1177" type="curve" smooth="yes"/>
      <point x="512" y="1126"/>
      <point x="480" y="1107"/>
      <point x="420" y="1107" type="curve" smooth="yes"/>
      <point x="409" y="1107"/>
      <point x="401" y="1108"/>
      <point x="388" y="1111" type="curve"/>
      <point x="385" y="1075" type="line"/>
      <point x="397" y="1072"/>
      <point x="408" y="1070"/>
      <point x="418" y="1070" type="curve" smooth="yes"/>
      <point x="494" y="1070"/>
      <point x="564" y="1106"/>
    </contour>
    <contour>
      <point x="589" y="910" type="line"/>
      <point x="586" y="928" type="line"/>
      <point x="560" y="918"/>
      <point x="548" y="920"/>
      <point x="541" y="934" type="curve" smooth="yes"/>
      <point x="458" y="1098" type="line"/>
      <point x="417" y="1079" type="line"/>
      <point x="491" y="899" type="line" smooth="yes"/>
      <point x="494" y="891"/>
      <point x="505" y="881"/>
      <point x="516" y="881" type="curve" smooth="yes"/>
      <point x="529" y="881"/>
      <point x="564" y="896"/>
      <point x="586" y="908" type="curve"/>
    </contour>
    <contour>
      <point x="403" y="887" type="line"/>
      <point x="405" y="905" type="line"/>
      <point x="379" y="911"/>
      <point x="369" y="919"/>
      <point x="370" y="924" type="curve" smooth="yes"/>
      <point x="418" y="1269" type="line"/>
      <point x="368" y="1269" type="line"/>
      <point x="320" y="924" type="line" smooth="yes"/>
      <point x="319" y="918"/>
      <point x="304" y="911"/>
      <point x="278" y="905" type="curve"/>
      <point x="276" y="887" type="line"/>
    </contour>
  </outline>
</glyph>
<glyph name="SupThree" format="2">
  <advance width="576"/>
  <unicode hex="00B3"/>
  <anchor x="285" y="550" name="L"/>
  <anchor x="403" y="1400" name="U"/>
  <outline>
    <contour>
      <point x="568" y="1209" type="curve"/>
      <point x="568" y="1281"/>
      <point x="515" y="1349"/>
      <point x="392" y="1349" type="curve" smooth="yes"/>
      <point x="263" y="1349"/>
      <point x="141" y="1254"/>
      <point x="129" y="1187" type="curve"/>
      <point x="144" y="1168" type="line"/>
      <point x="180" y="1171"/>
      <point x="224" y="1178"/>
      <point x="256" y="1192" type="curve"/>
      <point x="254" y="1246"/>
      <point x="297" y="1283"/>
      <point x="353" y="1283" type="curve" smooth="yes"/>
      <point x="418" y="1283"/>
      <point x="448" y="1242"/>
      <point x="448" y="1192" type="curve" smooth="yes"/>
      <point x="448" y="1086"/>
      <point x="361" y="1046"/>
      <point x="253" y="1019" type="curve"/>
      <point x="257" y="973" type="line"/>
      <point x="283" y="977"/>
      <point x="276" y="977"/>
      <point x="298" y="977" type="curve" smooth="yes"/>
      <point x="366" y="977"/>
      <point x="428" y="941"/>
      <point x="428" y="849" type="curve" smooth="yes"/>
      <point x="428" y="745"/>
      <point x="359" y="661"/>
      <point x="237" y="661" type="curve" smooth="yes"/>
      <point x="182" y="661"/>
      <point x="135" y="676"/>
      <point x="64" y="730" type="curve"/>
      <point x="37" y="679" type="line"/>
      <point x="107" y="616"/>
      <point x="178" y="589"/>
      <point x="244" y="589" type="curve" smooth="yes"/>
      <point x="432" y="589"/>
      <point x="551" y="715"/>
      <point x="551" y="865" type="curve" smooth="yes"/>
      <point x="551" y="945"/>
      <point x="497" y="1017"/>
      <point x="413" y="1027" type="curve"/>
      <point x="503" y="1059"/>
      <point x="568" y="1122"/>
    </contour>
  </outline>
</glyph>
<glyph name="InvQstnMrk" format="2">
  <advance width="813"/>
  <unicode hex="00BF"/>
  <outline>
    <contour>
      <point x="631" y="-190" type="curve"/>
      <point x="610" y="-160" type="line"/>
      <point x="553" y="-166"/>
      <point x="522" y="-172"/>
      <point x="467" y="-199" type="curve"/>
      <point x="489" y="-324"/>
      <point x="430" y="-434"/>
      <point x="317" y="-434" type="curve" smooth="yes"/>
      <point x="203" y="-434"/>
      <point x="143" y="-360"/>
      <point x="143" y="-229" type="curve" smooth="yes"/>
      <point x="143" y="20"/>
      <point x="465" y="147"/>
      <point x="473" y="414" type="curve"/>
      <point x="475" y="530" type="line"/>
      <point x="455" y="553" type="line"/>
      <point x="420" y="543"/>
      <point x="406" y="530"/>
      <point x="381" y="510" type="curve"/>
      <point x="367" y="414" type="line" smooth="yes"/>
      <point x="324" y="127"/>
      <point x="-16" y="68"/>
      <point x="-16" y="-285" type="curve" smooth="yes"/>
      <point x="-16" y="-420"/>
      <point x="63" y="-530"/>
      <point x="231" y="-530" type="curve" smooth="yes"/>
      <point x="477" y="-530"/>
      <point x="631" y="-360"/>
    </contour>
    <contour>
      <point x="352" y="750" type="curve"/>
      <point x="352" y="692"/>
      <point x="385" y="655"/>
      <point x="434" y="655" type="curve" smooth="yes"/>
      <point x="518" y="655"/>
      <point x="584" y="756"/>
      <point x="584" y="831" type="curve" smooth="yes"/>
      <point x="584" y="891"/>
      <point x="553" y="930"/>
      <point x="500" y="930" type="curve" smooth="yes"/>
      <point x="410" y="930"/>
      <point x="352" y="829"/>
    </contour>
  </outline>
</glyph>
<glyph name="LtnCapThorn" format="2">
  <advance width="965"/>
  <unicode hex="00DE"/>
  <anchor x="397" y="-100" name="L"/>
  <anchor x="594" y="1320" name="U"/>
  <outline>
    <contour>
      <point x="938" y="690" type="curve"/>
      <point x="938" y="891"/>
      <point x="795" y="1020"/>
      <point x="557" y="1020" type="curve" smooth="yes"/>
      <point x="453" y="1020"/>
      <point x="365" y="1004"/>
      <point x="307" y="977" type="curve"/>
      <point x="305" y="905" type="line"/>
      <point x="367" y="920"/>
      <point x="432" y="938"/>
      <point x="496" y="938" type="curve" smooth="yes"/>
      <point x="666" y="938"/>
      <point x="797" y="836"/>
      <point x="797" y="651" type="curve" smooth="yes"/>
      <point x="797" y="477"/>
      <point x="678" y="342"/>
      <point x="496" y="342" type="curve" smooth="yes"/>
      <point x="453" y="342"/>
      <point x="408" y="346"/>
      <point x="360" y="371" type="curve"/>
      <point x="371" y="297" type="line"/>
      <point x="408" y="274"/>
      <point x="457" y="264"/>
      <point x="512" y="264" type="curve" smooth="yes"/>
      <point x="750" y="264"/>
      <point x="938" y="457"/>
    </contour>
    <contour>
      <point x="610" y="1260" type="line"/>
      <point x="178" y="1260" type="line"/>
      <point x="172" y="1217" type="line"/>
      <point x="256" y="1198"/>
      <point x="297" y="1171"/>
      <point x="295" y="1155" type="curve" smooth="yes"/>
      <point x="150" y="104" type="line" smooth="yes"/>
      <point x="147" y="86"/>
      <point x="94" y="61"/>
      <point x="10" y="43" type="curve"/>
      <point x="4" y="0" type="line"/>
      <point x="436" y="0" type="line"/>
      <point x="442" y="43" type="line"/>
      <point x="322" y="66"/>
      <point x="291" y="88"/>
      <point x="295" y="104" type="curve"/>
      <point x="438" y="1155" type="line" smooth="yes"/>
      <point x="440" y="1174"/>
      <point x="479" y="1194"/>
      <point x="604" y="1217" type="curve"/>
    </contour>
  </outline>
</glyph>
<glyph name="DivSgn" format="2">
  <advance width="770"/>
  <unicode hex="00F7"/>
  <outline>
    <contour>
      <point x="500" y="819" type="curve" smooth="yes"/>
      <point x="507" y="869"/>
      <point x="490" y="895"/>
      <point x="450" y="895" type="curve" smooth="yes"/>
      <point x="404" y="895"/>
      <point x="361" y="847"/>
      <point x="352" y="787" type="curve" smooth="yes"/>
      <point x="345" y="738"/>
      <point x="359" y="710"/>
      <point x="401" y="710" type="curve" smooth="yes"/>
      <point x="448" y="710"/>
      <point x="491" y="760"/>
    </contour>
    <contour>
      <point x="433" y="339" type="curve" smooth="yes"/>
      <point x="440" y="389"/>
      <point x="423" y="415"/>
      <point x="383" y="415" type="curve" smooth="yes"/>
      <point x="337" y="415"/>
      <point x="294" y="367"/>
      <point x="285" y="307" type="curve"/>
      <point x="279" y="258"/>
      <point x="293" y="230"/>
      <point x="335" y="230" type="curve" smooth="yes"/>
      <point x="382" y="230"/>
      <point x="425" y="280"/>
    </contour>
    <contour>
      <point x="715" y="596" type="curve"/>
      <point x="697" y="620" type="line"/>
      <point x="111" y="620" type="line"/>
      <point x="97" y="594"/>
      <point x="80" y="556"/>
      <point x="70" y="529" type="curve"/>
      <point x="89" y="505" type="line"/>
      <point x="676" y="505" type="line"/>
      <point x="688" y="527"/>
      <point x="707" y="569"/>
    </contour>
  </outline>
</glyph>
<glyph name="LtnSmOStrk" format="2">
  <advance width="864"/>
  <unicode hex="00F8"/>
  <anchor x="360" y="0" name="H"/>
  <anchor x="356" y="-100" name="L"/>
  <anchor x="429" y="0" name="O"/>
  <anchor x="948" y="870" name="R"/>
  <anchor x="507" y="1000" name="U"/>
  <outline>
    <contour>
      <point x="877" y="926" type="line"/>
      <point x="854" y="958" type="line"/>
      <point x="817" y="948"/>
      <point x="772" y="911"/>
      <point x="735" y="889" type="curve"/>
      <point x="-14" y="-31" type="line"/>
      <point x="6" y="-61" type="line"/>
      <point x="37" y="-53"/>
      <point x="102" y="-12"/>
      <point x="127" y="8" type="curve"/>
    </contour>
    <contour>
      <point x="811" y="559" type="curve"/>
      <point x="811" y="780"/>
      <point x="731" y="936"/>
      <point x="522" y="936" type="curve" smooth="yes"/>
      <point x="440" y="936"/>
      <point x="354" y="893"/>
      <point x="287" y="840" type="curve" smooth="yes"/>
      <point x="111" y="700"/>
      <point x="53" y="535"/>
      <point x="53" y="344" type="curve" smooth="yes"/>
      <point x="53" y="125"/>
      <point x="160" y="-41"/>
      <point x="346" y="-41" type="curve" smooth="yes"/>
      <point x="426" y="-41"/>
      <point x="512" y="6"/>
      <point x="582" y="63" type="curve" smooth="yes"/>
      <point x="731" y="186"/>
      <point x="811" y="381"/>
    </contour>
    <contour>
      <point x="668" y="504" type="curve"/>
      <point x="668" y="340"/>
      <point x="598" y="72"/>
      <point x="414" y="72" type="curve" smooth="yes"/>
      <point x="291" y="72"/>
      <point x="197" y="221"/>
      <point x="197" y="399" type="curve" smooth="yes"/>
      <point x="197" y="569"/>
      <point x="260" y="819"/>
      <point x="453" y="819" type="curve" smooth="yes"/>
      <point x="590" y="819"/>
      <point x="668" y="707"/>
    </contour>
  </outline>
</glyph>
<glyph name="LtnCapLigOe" format="2">
  <advance width="1489"/>
  <unicode hex="0152"/>
  <anchor x="679" y="-100" name="L"/>
  <anchor x="873" y="1320" name="U"/>
  <outline>
    <contour>
      <point x="1479" y="1235" type="curve"/>
      <point x="1454" y="1260" type="line"/>
      <point x="1018" y="1260" type="line"/>
      <point x="979" y="1169" type="line"/>
      <point x="1319" y="1169" type="line" smooth="yes"/>
      <point x="1366" y="1169"/>
      <point x="1382" y="1133"/>
      <point x="1370" y="1010" type="curve"/>
      <point x="1413" y="1010" type="line"/>
      <point x="1436" y="1061"/>
      <point x="1466" y="1167"/>
    </contour>
    <contour>
      <point x="1315" y="707" type="curve"/>
      <point x="1294" y="735" type="line"/>
      <point x="928" y="735" type="line"/>
      <point x="897" y="655" type="line"/>
      <point x="1047" y="655" type="line" smooth="yes"/>
      <point x="1149" y="655"/>
      <point x="1186" y="639"/>
      <point x="1217" y="600" type="curve"/>
      <point x="1245" y="621"/>
      <point x="1288" y="670"/>
    </contour>
    <contour>
      <point x="1403" y="244" type="curve"/>
      <point x="1366" y="262" type="line"/>
      <point x="1292" y="106"/>
      <point x="1253" y="90"/>
      <point x="1143" y="90" type="curve" smooth="yes"/>
      <point x="1028" y="90" type="line" smooth="yes"/>
      <point x="868" y="90"/>
      <point x="883" y="115"/>
      <point x="887" y="154" type="curve"/>
      <point x="1028" y="1176" type="line" smooth="yes"/>
      <point x="1030" y="1194"/>
      <point x="1079" y="1198"/>
      <point x="1163" y="1217" type="curve"/>
      <point x="1169" y="1260" type="line"/>
      <point x="1018" y="1260" type="line"/>
      <point x="764" y="1260" type="line"/>
      <point x="758" y="1217" type="line"/>
      <point x="842" y="1198"/>
      <point x="883" y="1171"/>
      <point x="881" y="1155" type="curve" smooth="yes"/>
      <point x="737" y="104" type="line"/>
      <point x="733" y="86"/>
      <point x="680" y="61"/>
      <point x="598" y="43" type="curve"/>
      <point x="592" y="0" type="line"/>
      <point x="1333" y="0" type="line"/>
      <point x="1348" y="39"/>
      <point x="1378" y="129"/>
    </contour>
    <contour>
      <point x="938" y="1260" type="curve"/>
      <point x="831" y="1260"/>
      <point x="801" y="1290"/>
      <point x="698" y="1290" type="curve" smooth="yes"/>
      <point x="364" y="1290"/>
      <point x="90" y="877"/>
      <point x="90" y="465" type="curve" smooth="yes"/>
      <point x="90" y="193"/>
      <point x="221" y="-31"/>
      <point x="467" y="-31" type="curve" smooth="yes"/>
      <point x="578" y="-31"/>
      <point x="623" y="0"/>
      <point x="766" y="0" type="curve" smooth="yes"/>
      <point x="766" y="0"/>
      <point x="807" y="109"/>
      <point x="754" y="170" type="curve"/>
      <point x="684" y="117"/>
      <point x="612" y="100"/>
      <point x="510" y="100" type="curve" smooth="yes"/>
      <point x="348" y="100"/>
      <point x="236" y="272"/>
      <point x="236" y="524" type="curve" smooth="yes"/>
      <point x="236" y="776"/>
      <point x="352" y="1165"/>
      <point x="657" y="1165" type="curve" smooth="yes"/>
      <point x="768" y="1165"/>
      <point x="862" y="1116"/>
      <point x="918" y="1020" type="curve"/>
      <point x="918" y="1020"/>
      <point x="920" y="1219"/>
    </contour>
  </outline>
</glyph>
<glyph name="LtnSmLngS" format="2">
  <advance width="559"/>
  <unicode hex="017F"/>
  <anchor x="310" y="-100" name="L"/>
  <anchor x="548" y="1640" name="U"/>
  <outline>
    <contour>
      <point x="903" y="1403" type="curve"/>
      <point x="862" y="1417"/>
      <point x="791" y="1520"/>
      <point x="674" y="1520" type="curve" smooth="yes"/>
      <point x="592" y="1520"/>
      <point x="530" y="1479"/>
      <point x="459" y="1427" type="curve" smooth="yes"/>
      <point x="289" y="1300"/>
      <point x="256" y="1116"/>
      <point x="229" y="899" type="curve" smooth="yes"/>
      <point x="141" y="139" type="line" smooth="yes"/>
      <point x="117" y="-80"/>
      <point x="33" y="-348"/>
      <point x="-100" y="-422" type="curve"/>
      <point x="-74" y="-485" type="line"/>
      <point x="123" y="-365"/>
      <point x="260" y="-100"/>
      <point x="295" y="193" type="curve" smooth="yes"/>
      <point x="383" y="952" type="line" smooth="yes"/>
      <point x="401" y="1122"/>
      <point x="446" y="1417"/>
      <point x="596" y="1417" type="curve" smooth="yes"/>
      <point x="672" y="1417"/>
      <point x="702" y="1305"/>
      <point x="737" y="1305" type="curve" smooth="yes"/>
      <point x="770" y="1305"/>
      <point x="846" y="1362"/>
    </contour>
  </outline>
</glyph>
<glyph name="LtnCapDTopbar" format="2">
  <advance width="1013"/>
  <unicode hex="018B"/>
  <anchor x="479" y="-100" name="L"/>
  <anchor x="673" y="1320" name="U"/>
  <outline>
    <contour>
      <point x="105" y="346" type="curve" smooth="yes"/>
      <point x="72" y="99"/>
      <point x="225" y="-14"/>
      <point x="468" y="-14" type="curve"/>
      <point x="574" y="-14"/>
      <point x="863" y="0"/>
      <point x="863" y="0" type="curve" smooth="yes"/>
      <point x="676" y="98" type="line"/>
      <point x="636" y="76"/>
      <point x="553" y="70"/>
      <point x="499" y="70" type="curve"/>
      <point x="326" y="70"/>
      <point x="234" y="202"/>
      <point x="257" y="372" type="curve" smooth="yes"/>
      <point x="277" y="519"/>
      <point x="385" y="649"/>
      <point x="593" y="649" type="curve" smooth="yes"/>
      <point x="673" y="649"/>
      <point x="731" y="637"/>
      <point x="787" y="627" type="curve" smooth="yes"/>
      <point x="806" y="705" type="line"/>
      <point x="746" y="725"/>
      <point x="661" y="739"/>
      <point x="570" y="739" type="curve"/>
      <point x="307" y="739"/>
      <point x="133" y="551"/>
    </contour>
    <contour>
      <point x="929" y="0" type="line"/>
      <point x="934" y="43" type="line"/>
      <point x="856" y="61"/>
      <point x="809" y="86"/>
      <point x="812" y="104" type="curve"/>
      <point x="954" y="1155" type="line" smooth="yes"/>
      <point x="956" y="1171"/>
      <point x="1005" y="1198"/>
      <point x="1094" y="1217" type="curve" smooth="yes"/>
      <point x="1100" y="1260" type="line"/>
      <point x="846" y="1260" type="line"/>
      <point x="694" y="1260" type="line"/>
      <point x="688" y="1217" type="line"/>
      <point x="766" y="1198"/>
      <point x="816" y="1195"/>
      <point x="813" y="1177" type="curve"/>
      <point x="668" y="104" type="line" smooth="yes"/>
      <point x="665" y="86"/>
      <point x="630" y="70"/>
      <point x="482" y="43" type="curve" smooth="yes"/>
      <point x="477" y="0" type="line"/>
    </contour>
    <contour>
      <point x="910" y="1170" type="line"/>
      <point x="898" y="1260" type="line"/>
      <point x="333" y="1260" type="line"/>
      <point x="311" y="1190"/>
      <point x="270" y="1022"/>
      <point x="261" y="944" type="curve"/>
      <point x="296" y="925" type="line"/>
      <point x="371" y="1081"/>
      <point x="409" y="1170"/>
      <point x="446" y="1170" type="curve" smooth="yes"/>
    </contour>
  </outline>
</glyph>
<glyph name="LtnSmDTopbar" format="2">
  <advance width="969"/>
  <unicode hex="018C"/>
  <anchor x="360" y="-100" name="L"/>
  <anchor x="600" y="1640" name="U"/>
  <outline>
    <contour>
      <point x="924" y="68" type="curve"/>
      <point x="911" y="104" type="line"/>
      <point x="864" y="84"/>
      <point x="829" y="78"/>
      <point x="795" y="78" type="curve" smooth="yes"/>
      <point x="764" y="78"/>
      <point x="750" y="145"/>
      <point x="750" y="299" type="curve" smooth="yes"/>
      <point x="750" y="479"/>
      <point x="912" y="1253"/>
      <point x="912" y="1400" type="curve" smooth="yes"/>
      <point x="912" y="1444"/>
      <point x="906" y="1490"/>
      <point x="882" y="1490" type="curve" smooth="yes"/>
      <point x="831" y="1490"/>
      <point x="727" y="1428"/>
      <point x="699" y="1400" type="curve"/>
      <point x="723" y="1400"/>
      <point x="751" y="1387"/>
      <point x="751" y="1326" type="curve" smooth="yes"/>
      <point x="751" y="1139"/>
      <point x="608" y="422"/>
      <point x="608" y="299" type="curve" smooth="yes"/>
      <point x="608" y="39"/>
      <point x="645" y="-41"/>
      <point x="696" y="-41" type="curve" smooth="yes"/>
      <point x="741" y="-41"/>
      <point x="811" y="-8"/>
    </contour>
    <contour>
      <point x="813" y="811" type="curve"/>
      <point x="756" y="803"/>
      <point x="668" y="936"/>
      <point x="592" y="936" type="curve" smooth="yes"/>
      <point x="510" y="936"/>
      <point x="406" y="889"/>
      <point x="332" y="842" type="curve" smooth="yes"/>
      <point x="143" y="717"/>
      <point x="53" y="526"/>
      <point x="53" y="315" type="curve" smooth="yes"/>
      <point x="53" y="66"/>
      <point x="186" y="-41"/>
      <point x="276" y="-41" type="curve" smooth="yes"/>
      <point x="393" y="-41"/>
      <point x="520" y="115"/>
      <point x="610" y="285" type="curve"/>
      <point x="641" y="463" type="line"/>
      <point x="539" y="260"/>
      <point x="424" y="96"/>
      <point x="346" y="96" type="curve" smooth="yes"/>
      <point x="268" y="96"/>
      <point x="190" y="207"/>
      <point x="190" y="379" type="curve" smooth="yes"/>
      <point x="190" y="537"/>
      <point x="307" y="831"/>
      <point x="489" y="831" type="curve" smooth="yes"/>
      <point x="616" y="831"/>
      <point x="696" y="659"/>
      <point x="745" y="659" type="curve" smooth="yes"/>
      <point x="780" y="659"/>
      <point x="756" y="772"/>
    </contour>
    <contour>
      <point x="911" y="1400" type="line"/>
      <point x="877" y="1490" type="line"/>
      <point x="355" y="1490" type="line"/>
      <point x="333" y="1420"/>
      <point x="292" y="1252"/>
      <point x="283" y="1174" type="curve"/>
      <point x="318" y="1155" type="line"/>
      <point x="393" y="1311"/>
      <point x="431" y="1400"/>
      <point x="468" y="1400" type="curve" smooth="yes"/>
    </contour>
  </outline>
</glyph>
<glyph name="LtnCapRevE" format="2">
  <advance width="914"/>
  <unicode hex="018E"/>
  <anchor x="394" y="-100" name="L"/>
  <anchor x="589" y="1320" name="U"/>
  <outline>
    <contour>
      <point x="223" y="1016" type="curve"/>
      <point x="260" y="998" type="line"/>
      <point x="332" y="1154"/>
      <point x="373" y="1170"/>
      <point x="483" y="1170" type="curve" smooth="yes"/>
      <point x="702" y="1170" type="line"/>
      <point x="566" y="163" type="line" smooth="yes"/>
      <point x="558" y="110"/>
      <point x="530" y="90"/>
      <point x="375" y="90" type="curve" smooth="yes"/>
      <point x="202" y="90" type="line" smooth="yes"/>
      <point x="158" y="90"/>
      <point x="96" y="194"/>
      <point x="108" y="317" type="curve"/>
      <point x="67" y="317" type="line"/>
      <point x="46" y="266"/>
      <point x="41" y="93"/>
      <point x="41" y="25" type="curve"/>
      <point x="68" y="0" type="line"/>
      <point x="819" y="0" type="line"/>
      <point x="824" y="43" type="line"/>
      <point x="740" y="62"/>
      <point x="700" y="89"/>
      <point x="702" y="105" type="curve" smooth="yes"/>
      <point x="844" y="1156" type="line" smooth="yes"/>
      <point x="847" y="1174"/>
      <point x="900" y="1199"/>
      <point x="984" y="1217" type="curve"/>
      <point x="990" y="1260" type="line"/>
      <point x="294" y="1260" type="line"/>
      <point x="278" y="1221"/>
      <point x="248" y="1131"/>
    </contour>
    <contour>
      <point x="245" y="663" type="curve"/>
      <point x="266" y="635" type="line"/>
      <point x="305" y="646"/>
      <point x="387" y="655"/>
      <point x="443" y="655" type="curve" smooth="yes"/>
      <point x="672" y="655" type="line"/>
      <point x="702" y="735" type="line"/>
      <point x="516" y="735" type="line" smooth="yes"/>
      <point x="415" y="735"/>
      <point x="375" y="731"/>
      <point x="343" y="770" type="curve"/>
      <point x="314" y="749"/>
      <point x="271" y="700"/>
    </contour>
  </outline>
</glyph>
<glyph name="LtnSmLBar" format="2">
  <advance width="617"/>
  <unicode hex="019A"/>
  <anchor x="207" y="-100" name="L"/>
  <anchor x="445" y="1640" name="U"/>
  <outline>
    <contour>
      <point x="490" y="72" type="curve"/>
      <point x="478" y="109" type="line"/>
      <point x="419" y="86"/>
      <point x="380" y="76"/>
      <point x="349" y="76" type="curve" smooth="yes"/>
      <point x="328" y="76"/>
      <point x="314" y="90"/>
      <point x="314" y="135" type="curve" smooth="yes"/>
      <point x="314" y="317"/>
      <point x="488" y="1231"/>
      <point x="488" y="1438" type="curve" smooth="yes"/>
      <point x="488" y="1499"/>
      <point x="464" y="1520"/>
      <point x="427" y="1520" type="curve" smooth="yes"/>
      <point x="392" y="1520"/>
      <point x="271" y="1475"/>
      <point x="158" y="1425" type="curve"/>
      <point x="173" y="1386" type="line"/>
      <point x="173" y="1386"/>
      <point x="255" y="1413"/>
      <point x="277" y="1413" type="curve" smooth="yes"/>
      <point x="302" y="1413"/>
      <point x="328" y="1407"/>
      <point x="328" y="1346" type="curve" smooth="yes"/>
      <point x="328" y="1159"/>
      <point x="156" y="211"/>
      <point x="156" y="78" type="curve" smooth="yes"/>
      <point x="156" y="0"/>
      <point x="191" y="-41"/>
      <point x="228" y="-41" type="curve" smooth="yes"/>
      <point x="296" y="-41"/>
      <point x="359" y="-10"/>
    </contour>
    <contour>
      <point x="617" y="808" type="line"/>
      <point x="598" y="830" type="line"/>
      <point x="71" y="830" type="line"/>
      <point x="59" y="812"/>
      <point x="48" y="785"/>
      <point x="40" y="765" type="curve"/>
      <point x="59" y="740" type="line"/>
      <point x="586" y="740" type="line"/>
    </contour>
  </outline>
</glyph>
<glyph name="LtnSmPHook" format="2">
  <advance width="965"/>
  <unicode hex="01A5"/>
  <anchor x="483" y="-100" name="L"/>
  <anchor x="657" y="1640" name="U"/>
  <outline>
    <contour>
      <point x="941" y="1403" type="curve"/>
      <point x="900" y="1417"/>
      <point x="818" y="1520"/>
      <point x="702" y="1520" type="curve" smooth="yes"/>
      <point x="618" y="1520"/>
      <point x="536" y="1479"/>
      <point x="466" y="1427" type="curve" smooth="yes"/>
      <point x="296" y="1300"/>
      <point x="245" y="1117"/>
      <point x="216" y="899" type="curve" smooth="yes"/>
      <point x="192" y="720"/>
      <point x="53" y="-142"/>
      <point x="-6" y="-471" type="curve"/>
      <point x="26" y="-500" type="line"/>
      <point x="61" y="-484"/>
      <point x="137" y="-457"/>
      <point x="176" y="-447" type="curve"/>
      <point x="162" y="-410"/>
      <point x="169" y="-269"/>
      <point x="215" y="6" type="curve"/>
      <point x="267" y="321"/>
      <point x="318" y="637"/>
      <point x="370" y="952" type="curve" smooth="yes"/>
      <point x="421" y="1263"/>
      <point x="493" y="1417"/>
      <point x="624" y="1417" type="curve" smooth="yes"/>
      <point x="697" y="1417"/>
      <point x="738" y="1305"/>
      <point x="773" y="1305" type="curve" smooth="yes"/>
      <point x="808" y="1305"/>
      <point x="884" y="1362"/>
    </contour>
    <contour>
      <point x="885" y="627" type="curve"/>
      <point x="885" y="827"/>
      <point x="799" y="936"/>
      <point x="696" y="936" type="curve" smooth="yes"/>
      <point x="612" y="936"/>
      <point x="475" y="903"/>
      <point x="283" y="584" type="curve"/>
      <point x="289" y="455" type="line"/>
      <point x="375" y="664"/>
      <point x="539" y="805"/>
      <point x="610" y="805" type="curve" smooth="yes"/>
      <point x="674" y="805"/>
      <point x="739" y="719"/>
      <point x="739" y="532" type="curve" smooth="yes"/>
      <point x="739" y="451"/>
      <point x="735" y="324"/>
      <point x="686" y="219" type="curve"/>
      <point x="655" y="147"/>
      <point x="598" y="106"/>
      <point x="526" y="106" type="curve" smooth="yes"/>
      <point x="414" y="106"/>
      <point x="295" y="246"/>
      <point x="262" y="324" type="curve"/>
      <point x="215" y="244" type="line"/>
      <point x="289" y="119"/>
      <point x="389" y="-41"/>
      <point x="492" y="-41" type="curve" smooth="yes"/>
      <point x="606" y="-41"/>
      <point x="705" y="82"/>
      <point x="766" y="188" type="curve"/>
      <point x="850" y="340"/>
      <point x="885" y="494"/>
    </contour>
  </outline>
</glyph>
<glyph name="LtnYr" format="2">
  <advance width="1011"/>
  <unicode hex="01A6"/>
  <anchor x="408" y="-100" name="L"/>
  <anchor x="644" y="1320" name="U"/>
  <outline>
    <contour>
      <point x="314" y="926" type="line"/>
      <point x="371" y="932"/>
      <point x="424" y="936"/>
      <point x="476" y="936" type="curve" smooth="yes"/>
      <point x="726" y="936"/>
      <point x="783" y="827"/>
      <point x="771" y="726" type="curve" smooth="yes"/>
      <point x="755" y="590"/>
      <point x="644" y="504"/>
      <point x="428" y="504" type="curve" smooth="yes"/>
      <point x="397" y="504"/>
      <point x="374" y="506"/>
      <point x="332" y="514" type="curve"/>
      <point x="327" y="432" type="line"/>
      <point x="363" y="422"/>
      <point x="398" y="418"/>
      <point x="431" y="418" type="curve" smooth="yes"/>
      <point x="690" y="418"/>
      <point x="884" y="541"/>
      <point x="913" y="757" type="curve" smooth="yes"/>
      <point x="931" y="889"/>
      <point x="834" y="1020"/>
      <point x="520" y="1020" type="curve" smooth="yes"/>
      <point x="449" y="1020"/>
      <point x="387" y="1014"/>
      <point x="329" y="1005" type="curve"/>
    </contour>
    <contour>
      <point x="1033" y="-86" type="line"/>
      <point x="932" y="-125"/>
      <point x="871" y="-132"/>
      <point x="851" y="-94" type="curve" smooth="yes"/>
      <point x="544" y="508" type="line"/>
      <point x="441" y="442" type="line"/>
      <point x="719" y="-192" type="line"/>
      <point x="733" y="-221"/>
      <point x="766" y="-247"/>
      <point x="800" y="-247" type="curve" smooth="yes"/>
      <point x="847" y="-247"/>
      <point x="960" y="-191"/>
      <point x="1048" y="-124" type="curve"/>
    </contour>
    <contour>
      <point x="410" y="0" type="line"/>
      <point x="415" y="43" type="line"/>
      <point x="332" y="61"/>
      <point x="290" y="88"/>
      <point x="293" y="104" type="curve" smooth="yes"/>
      <point x="435" y="1155" type="line" smooth="yes"/>
      <point x="438" y="1174"/>
      <point x="491" y="1198"/>
      <point x="575" y="1217" type="curve"/>
      <point x="581" y="1260" type="line"/>
      <point x="176" y="1260" type="line"/>
      <point x="170" y="1217" type="line"/>
      <point x="253" y="1198"/>
      <point x="293" y="1171"/>
      <point x="291" y="1155" type="curve" smooth="yes"/>
      <point x="149" y="104" type="line" smooth="yes"/>
      <point x="146" y="86"/>
      <point x="94" y="61"/>
      <point x="10" y="43" type="curve"/>
      <point x="5" y="0" type="line"/>
    </contour>
  </outline>
</glyph>
<glyph name="LtnSmTPalHook" format="2">
  <advance width="624"/>
  <unicode hex="01AB"/>
  <anchor x="171" y="-600" name="L"/>
  <anchor x="434" y="1230" name="U"/>
  <outline>
    <contour>
      <point x="73" y="-293" type="curve"/>
      <point x="47" y="-404"/>
      <point x="125" y="-503"/>
      <point x="227" y="-503" type="curve"/>
      <point x="317" y="-503"/>
      <point x="468" y="-455"/>
      <point x="506" y="-174" type="curve" smooth="yes"/>
      <point x="525" y="-31" type="line"/>
      <point x="536" y="44"/>
      <point x="555" y="88"/>
      <point x="577" y="115" type="curve"/>
      <point x="559" y="130"/>
      <point x="514" y="87"/>
      <point x="481" y="75" type="curve"/>
      <point x="460" y="32"/>
      <point x="447" y="-13"/>
      <point x="442" y="-58" type="curve"/>
      <point x="422" y="-203" type="line"/>
      <point x="401" y="-364"/>
      <point x="338" y="-409"/>
      <point x="280" y="-409" type="curve" smooth="yes"/>
      <point x="233" y="-409"/>
      <point x="168" y="-346"/>
      <point x="224" y="-228" type="curve"/>
      <point x="219" y="-217"/>
      <point x="210" y="-207"/>
      <point x="206" y="-201" type="curve"/>
      <point x="168" y="-217"/>
      <point x="97" y="-265"/>
    </contour>
    <contour>
      <point x="645" y="877" type="curve"/>
      <point x="625" y="905" type="line"/>
      <point x="160" y="905" type="line"/>
      <point x="59" y="846" type="line"/>
      <point x="74" y="815" type="line"/>
      <point x="365" y="815" type="line" smooth="yes"/>
      <point x="465" y="815"/>
      <point x="502" y="807"/>
      <point x="518" y="770" type="curve"/>
      <point x="543" y="784"/>
      <point x="618" y="840"/>
    </contour>
    <contour>
      <point x="580" y="117" type="curve"/>
      <point x="563" y="154" type="line"/>
      <point x="463" y="109"/>
      <point x="399" y="90"/>
      <point x="352" y="90" type="curve" smooth="yes"/>
      <point x="315" y="90"/>
      <point x="279" y="129"/>
      <point x="279" y="211" type="curve" smooth="yes"/>
      <point x="279" y="238"/>
      <point x="283" y="305"/>
      <point x="291" y="356" type="curve" smooth="yes"/>
      <point x="385" y="963" type="line" smooth="yes"/>
      <point x="412" y="1128"/>
      <point x="436" y="1151"/>
      <point x="436" y="1151" type="curve"/>
      <point x="408" y="1176" type="line"/>
      <point x="307" y="1104" type="line" smooth="yes"/>
      <point x="272" y="1077"/>
      <point x="254" y="1049"/>
      <point x="238" y="940" type="curve" smooth="yes"/>
      <point x="141" y="332" type="line"/>
      <point x="131" y="258"/>
      <point x="127" y="211"/>
      <point x="127" y="160" type="curve" smooth="yes"/>
      <point x="127" y="43"/>
      <point x="186" y="-41"/>
      <point x="252" y="-41" type="curve" smooth="yes"/>
      <point x="311" y="-41"/>
      <point x="449" y="16"/>
    </contour>
  </outline>
</glyph>
<glyph name="LtnSmYHook.RtHook" format="2">
  <advance width="1071"/>
  <unicode hex="01B4"/>
  <anchor x="620" y="-100" name="L"/>
  <anchor x="580" y="1000" name="U"/>
  <outline>
    <contour>
      <point x="1331" y="1021" type="curve"/>
      <point x="1300" y="1031"/>
      <point x="1222" y="1130"/>
      <point x="1118" y="1130" type="curve" smooth="yes"/>
      <point x="577" y="1130"/>
      <point x="458" y="-344"/>
      <point x="48" y="-344" type="curve" smooth="yes"/>
      <point x="22" y="-344"/>
      <point x="-36" y="-340"/>
      <point x="-87" y="-301" type="curve"/>
      <point x="-124" y="-316"/>
      <point x="-181" y="-418"/>
      <point x="-181" y="-449" type="curve" smooth="yes"/>
      <point x="-181" y="-474"/>
      <point x="-109" y="-500"/>
      <point x="-32" y="-500" type="curve" smooth="yes"/>
      <point x="526" y="-500"/>
      <point x="721" y="1007"/>
      <point x="1046" y="1007" type="curve" smooth="yes"/>
      <point x="1115" y="1007"/>
      <point x="1146" y="919"/>
      <point x="1167" y="919" type="curve" smooth="yes"/>
      <point x="1187" y="919"/>
      <point x="1304" y="990"/>
    </contour>
    <contour>
      <point x="502" y="97" type="line"/>
      <point x="455" y="365"/>
      <point x="377" y="641"/>
      <point x="317" y="809" type="curve" smooth="yes"/>
      <point x="285" y="901"/>
      <point x="268" y="936"/>
      <point x="231" y="936" type="curve" smooth="yes"/>
      <point x="199" y="936"/>
      <point x="106" y="891"/>
      <point x="-6" y="840" type="curve"/>
      <point x="6" y="803" type="line"/>
      <point x="6" y="803"/>
      <point x="80" y="827"/>
      <point x="104" y="827" type="curve" smooth="yes"/>
      <point x="127" y="827"/>
      <point x="145" y="813"/>
      <point x="176" y="745" type="curve" smooth="yes"/>
      <point x="236" y="618"/>
      <point x="340" y="174"/>
      <point x="379" y="-57" type="curve"/>
      <point x="412" y="-86" type="line"/>
    </contour>
  </outline>
</glyph>
<glyph name="LtnRetrClick" format="2">
  <advance width="491"/>
  <unicode hex="01C3"/>
  <anchor x="157" y="-100" name="L"/>
  <anchor x="395" y="1640" name="U"/>
  <outline>
    <contour>
      <point x="485" y="1495" type="curve"/>
      <point x="449" y="1520" type="line"/>
      <point x="393" y="1505"/>
      <point x="295" y="1452"/>
      <point x="257" y="1425" type="curve"/>
      <point x="250" y="1091"/>
      <point x="212" y="737"/>
      <point x="171" y="371" type="curve"/>
      <point x="195" y="350" type="line"/>
      <point x="228" y="360"/>
      <point x="244" y="371"/>
      <point x="269" y="389" type="curve"/>
      <point x="332" y="766"/>
      <point x="398" y="1134"/>
    </contour>
    <contour>
      <point x="301" y="142" type="curve"/>
      <point x="301" y="197"/>
      <point x="268" y="236"/>
      <point x="219" y="236" type="curve" smooth="yes"/>
      <point x="135" y="236"/>
      <point x="69" y="135"/>
      <point x="69" y="58" type="curve" smooth="yes"/>
      <point x="69" y="-2"/>
      <point x="100" y="-41"/>
      <point x="153" y="-41" type="curve" smooth="yes"/>
      <point x="243" y="-41"/>
      <point x="301" y="60"/>
    </contour>
  </outline>
</glyph>
<glyph name="LtnSmOOgonek" format="2">
  <advance width="864"/>
  <unicode hex="01EB"/>
  <anchor x="332" y="0" name="H"/>
  <anchor x="297" y="-600" name="L"/>
  <anchor x="900" y="870" name="R"/>
  <anchor x="505" y="1000" name="U"/>
  <outline>
    <contour>
      <point x="503" y="-301" type="curve"/>
      <point x="484" y="-266" type="line"/>
      <point x="429" y="-317"/>
      <point x="382" y="-340"/>
      <point x="353" y="-340" type="curve" smooth="yes"/>
      <point x="314" y="-340"/>
      <point x="286" y="-322"/>
      <point x="286" y="-287" type="curve" smooth="yes"/>
      <point x="286" y="-172"/>
      <point x="411" y="-54"/>
      <point x="521" y="19" type="curve" smooth="yes"/>
      <point x="542" y="32"/>
      <point x="562" y="47"/>
      <point x="582" y="63" type="curve" smooth="yes"/>
      <point x="731" y="186"/>
      <point x="811" y="381"/>
      <point x="811" y="559" type="curve" smooth="yes"/>
      <point x="811" y="780"/>
      <point x="731" y="936"/>
      <point x="522" y="936" type="curve" smooth="yes"/>
      <point x="440" y="936"/>
      <point x="354" y="893"/>
      <point x="287" y="840" type="curve" smooth="yes"/>
      <point x="111" y="700"/>
      <point x="53" y="535"/>
      <point x="53" y="344" type="curve" smooth="yes"/>
      <point x="53" y="125"/>
      <point x="160" y="-41"/>
      <point x="346" y="-41" type="curve" smooth="yes"/>
      <point x="353" y="-41"/>
      <point x="360" y="-40"/>
      <point x="367" y="-39" type="curve"/>
      <point x="261" y="-115"/>
      <point x="167" y="-215"/>
      <point x="167" y="-332" type="curve" smooth="yes"/>
      <point x="167" y="-420"/>
      <point x="224" y="-446"/>
      <point x="286" y="-446" type="curve" smooth="yes"/>
      <point x="353" y="-446"/>
      <point x="441" y="-373"/>
    </contour>
    <contour>
      <point x="668" y="504" type="curve" smooth="yes"/>
      <point x="668" y="340"/>
      <point x="598" y="72"/>
      <point x="414" y="72" type="curve" smooth="yes"/>
      <point x="291" y="72"/>
      <point x="197" y="221"/>
      <point x="197" y="399" type="curve" smooth="yes"/>
      <point x="197" y="569"/>
      <point x="260" y="819"/>
      <point x="453" y="819" type="curve" smooth="yes"/>
      <point x="590" y="819"/>
      <point x="668" y="707"/>
    </contour>
  </outline>
</glyph>
<glyph name="LtnCapNLngRtLeg" format="2">
  <advance width="1140"/>
  <unicode hex="0220"/>
  <anchor x="433" y="-100" name="L"/>
  <anchor x="755" y="1320" name="U"/>
  <outline>
    <contour>
      <point x="911" y="1290" type="curve" smooth="yes"/>
      <point x="782" y="1290"/>
      <point x="571" y="1192"/>
      <point x="403" y="920" type="curve"/>
      <point x="424" y="1008"/>
      <point x="434" y="1139"/>
      <point x="434" y="1184" type="curve" smooth="yes"/>
      <point x="434" y="1247"/>
      <point x="426" y="1290"/>
      <point x="393" y="1290" type="curve" smooth="yes"/>
      <point x="356" y="1290"/>
      <point x="246" y="1260"/>
      <point x="106" y="1208" type="curve"/>
      <point x="117" y="1153" type="line"/>
      <point x="168" y="1167"/>
      <point x="205" y="1176"/>
      <point x="231" y="1176" type="curve" smooth="yes"/>
      <point x="267" y="1176"/>
      <point x="282" y="1158"/>
      <point x="282" y="1110" type="curve" smooth="yes"/>
      <point x="282" y="1091"/>
      <point x="280" y="1067"/>
      <point x="276" y="1038" type="curve" smooth="yes"/>
      <point x="147" y="104" type="line" smooth="yes"/>
      <point x="145" y="86"/>
      <point x="90" y="61"/>
      <point x="6" y="43" type="curve"/>
      <point x="0" y="0" type="line"/>
      <point x="410" y="0" type="line"/>
      <point x="416" y="43" type="line"/>
      <point x="336" y="60"/>
      <point x="293" y="86"/>
      <point x="293" y="102" type="curve"/>
      <point x="293" y="104" type="line"/>
      <point x="358" y="586" type="line" smooth="yes"/>
      <point x="408" y="954"/>
      <point x="725" y="1151"/>
      <point x="834" y="1151" type="curve" smooth="yes"/>
      <point x="903" y="1151"/>
      <point x="947" y="1106"/>
      <point x="947" y="975" type="curve" smooth="yes"/>
      <point x="947" y="688"/>
      <point x="785" y="-175"/>
      <point x="785" y="-336" type="curve" smooth="yes"/>
      <point x="785" y="-458"/>
      <point x="821" y="-500"/>
      <point x="868" y="-500" type="curve" smooth="yes"/>
      <point x="919" y="-500"/>
      <point x="1003" y="-459"/>
      <point x="1124" y="-387" type="curve"/>
      <point x="1109" y="-350" type="line"/>
      <point x="1054" y="-373"/>
      <point x="1015" y="-383"/>
      <point x="984" y="-383" type="curve" smooth="yes"/>
      <point x="960" y="-383"/>
      <point x="942" y="-372"/>
      <point x="942" y="-277" type="curve" smooth="yes"/>
      <point x="942" y="-42"/>
      <point x="1106" y="692"/>
      <point x="1106" y="1042" type="curve" smooth="yes"/>
      <point x="1106" y="1235"/>
      <point x="1001" y="1290"/>
    </contour>
  </outline>
</glyph>
<glyph name="LtnCapOu" format="2">
  <advance width="985"/>
  <unicode hex="0222"/>
  <anchor x="414" y="-100" name="L"/>
  <anchor x="608" y="1320" name="U"/>
  <outline>
    <contour>
      <point x="572" y="1195" type="curve" smooth="yes"/>
      <point x="691" y="1195"/>
      <point x="794" y="1120"/>
      <point x="783" y="1041" type="curve" smooth="yes"/>
      <point x="773" y="972"/>
      <point x="718" y="894"/>
      <point x="555" y="815" type="curve"/>
      <point x="649" y="782" type="line"/>
      <point x="836" y="871"/>
      <point x="908" y="965"/>
      <point x="923" y="1073" type="curve" smooth="yes"/>
      <point x="943" y="1215"/>
      <point x="788" y="1290"/>
      <point x="629" y="1290" type="curve" smooth="yes"/>
      <point x="450" y="1290"/>
      <point x="240" y="1186"/>
      <point x="215" y="1004" type="curve" smooth="yes"/>
      <point x="166" y="659"/>
      <point x="821" y="719"/>
      <point x="771" y="363" type="curve" smooth="yes"/>
      <point x="750" y="215"/>
      <point x="633" y="85"/>
      <point x="462" y="85" type="curve" smooth="yes"/>
      <point x="287" y="85"/>
      <point x="162" y="197"/>
      <point x="186" y="369" type="curve" smooth="yes"/>
      <point x="203" y="489"/>
      <point x="316" y="616"/>
      <point x="481" y="711" type="curve"/>
      <point x="405" y="750" type="line"/>
      <point x="200" y="659"/>
      <point x="65" y="495"/>
      <point x="43" y="338" type="curve" smooth="yes"/>
      <point x="15" y="138"/>
      <point x="127" y="-30"/>
      <point x="390" y="-30" type="curve" smooth="yes"/>
      <point x="652" y="-30"/>
      <point x="884" y="174"/>
      <point x="918" y="418" type="curve" smooth="yes"/>
      <point x="980" y="858"/>
      <point x="311" y="829"/>
      <point x="341" y="1041" type="curve" smooth="yes"/>
      <point x="353" y="1129"/>
      <point x="473" y="1195"/>
    </contour>
  </outline>
</glyph>
<glyph name="LtnSmOu" format="2">
  <advance width="969"/>
  <unicode hex="0223"/>
  <anchor x="411" y="-100" name="L"/>
  <anchor x="648" y="1640" name="U"/>
  <outline>
    <contour>
      <point x="602" y="1388" type="curve" smooth="yes"/>
      <point x="697" y="1388"/>
      <point x="798" y="1314"/>
      <point x="782" y="1190" type="curve"/>
      <point x="771" y="1115"/>
      <point x="724" y="1023"/>
      <point x="574" y="936" type="curve"/>
      <point x="653" y="897" type="line"/>
      <point x="821" y="1001"/>
      <point x="896" y="1116"/>
      <point x="911" y="1223" type="curve"/>
      <point x="937" y="1393"/>
      <point x="802" y="1482"/>
      <point x="657" y="1482" type="curve" smooth="yes"/>
      <point x="491" y="1482"/>
      <point x="292" y="1336"/>
      <point x="266" y="1156" type="curve" smooth="yes"/>
      <point x="214" y="786"/>
      <point x="803" y="885"/>
      <point x="737" y="415" type="curve"/>
      <point x="712" y="244"/>
      <point x="605" y="68"/>
      <point x="455" y="68" type="curve" smooth="yes"/>
      <point x="297" y="68"/>
      <point x="201" y="223"/>
      <point x="231" y="422" type="curve" smooth="yes"/>
      <point x="257" y="599"/>
      <point x="396" y="758"/>
      <point x="527" y="835" type="curve"/>
      <point x="459" y="879" type="line"/>
      <point x="270" y="781"/>
      <point x="115" y="578"/>
      <point x="85" y="386" type="curve"/>
      <point x="53" y="155"/>
      <point x="155" y="-40"/>
      <point x="388" y="-40" type="curve" smooth="yes"/>
      <point x="622" y="-40"/>
      <point x="845" y="185"/>
      <point x="885" y="467" type="curve" smooth="yes"/>
      <point x="960" y="987"/>
      <point x="354" y="938"/>
      <point x="389" y="1193" type="curve" smooth="yes"/>
      <point x="403" y="1299"/>
      <point x="515" y="1388"/>
    </contour>
  </outline>
</glyph>
<glyph name="LtnSmZHook" format="2">
  <advance width="798"/>
  <unicode hex="0225"/>
  <anchor x="255" y="-600" name="L"/>
  <anchor x="479" y="1000" name="U"/>
  <outline>
    <contour>
      <point x="776" y="885" type="curve"/>
      <point x="756" y="915" type="line"/>
      <point x="323" y="915" type="line" smooth="yes"/>
      <point x="246" y="915"/>
      <point x="219" y="920"/>
      <point x="170" y="936" type="curve"/>
      <point x="106" y="678" type="line"/>
      <point x="147" y="666" type="line"/>
      <point x="187" y="787"/>
      <point x="224" y="795"/>
      <point x="268" y="795" type="curve" smooth="yes"/>
      <point x="562" y="795" type="line"/>
      <point x="513" y="736"/>
      <point x="194" y="247"/>
      <point x="-4" y="1" type="curve"/>
      <point x="18" y="-31" type="line"/>
      <point x="152" y="-7"/>
      <point x="238" y="4"/>
      <point x="344" y="4" type="curve"/>
      <point x="540" y="4"/>
      <point x="544" y="-58"/>
      <point x="538" y="-94" type="curve" smooth="yes"/>
      <point x="529" y="-133"/>
      <point x="499" y="-198"/>
      <point x="365" y="-283" type="curve"/>
      <point x="390" y="-324" type="line"/>
      <point x="587" y="-210"/>
      <point x="670" y="-117"/>
      <point x="683" y="-38" type="curve" smooth="yes"/>
      <point x="698" y="48"/>
      <point x="649" y="116"/>
      <point x="458" y="116" type="curve" smooth="yes"/>
      <point x="369" y="116"/>
      <point x="256" y="99"/>
      <point x="169" y="72" type="curve"/>
      <point x="399" y="358"/>
      <point x="564" y="654"/>
    </contour>
  </outline>
</glyph>
<glyph name="LtnSmNCurl" format="2">
  <advance width="1171"/>
  <unicode hex="0235"/>
  <anchor x="492" y="-100" name="L"/>
  <anchor x="607" y="1000" name="U"/>
  <outline>
    <contour>
      <point x="810" y="272" type="curve" smooth="yes"/>
      <point x="837" y="427"/>
      <point x="887" y="669"/>
      <point x="887" y="762" type="curve" smooth="yes"/>
      <point x="887" y="891"/>
      <point x="842" y="936"/>
      <point x="758" y="936" type="curve" smooth="yes"/>
      <point x="639" y="936"/>
      <point x="489" y="860"/>
      <point x="344" y="678" type="curve"/>
      <point x="348" y="711"/>
      <point x="354" y="795"/>
      <point x="354" y="823" type="curve" smooth="yes"/>
      <point x="354" y="918"/>
      <point x="352" y="936"/>
      <point x="315" y="936" type="curve" smooth="yes"/>
      <point x="282" y="936"/>
      <point x="160" y="891"/>
      <point x="47" y="842" type="curve"/>
      <point x="61" y="803" type="line"/>
      <point x="61" y="803"/>
      <point x="145" y="829"/>
      <point x="168" y="829" type="curve" smooth="yes"/>
      <point x="192" y="829"/>
      <point x="205" y="823"/>
      <point x="205" y="762" type="curve" smooth="yes"/>
      <point x="205" y="668"/>
      <point x="147" y="256"/>
      <point x="92" y="-10" type="curve"/>
      <point x="125" y="-41" type="line"/>
      <point x="158" y="-24"/>
      <point x="233" y="6"/>
      <point x="268" y="25" type="curve"/>
      <point x="266" y="104"/>
      <point x="270" y="182"/>
      <point x="291" y="301" type="curve" smooth="yes"/>
      <point x="313" y="430"/>
      <point x="334" y="516"/>
      <point x="371" y="580" type="curve" smooth="yes"/>
      <point x="471" y="750"/>
      <point x="622" y="836"/>
      <point x="657" y="836" type="curve" smooth="yes"/>
      <point x="715" y="836"/>
      <point x="733" y="801"/>
      <point x="733" y="700" type="curve" smooth="yes"/>
      <point x="733" y="647"/>
      <point x="691" y="426"/>
      <point x="667" y="271" type="curve" smooth="yes"/>
      <point x="663" y="247"/>
      <point x="661" y="222"/>
      <point x="661" y="199" type="curve" smooth="yes"/>
      <point x="661" y="73"/>
      <point x="725" y="-41"/>
      <point x="871" y="-41" type="curve" smooth="yes"/>
      <point x="1024" y="-41"/>
      <point x="1144" y="72"/>
      <point x="1154" y="217" type="curve" smooth="yes"/>
      <point x="1161" y="317"/>
      <point x="1113" y="374"/>
      <point x="1007" y="374" type="curve" smooth="yes"/>
      <point x="828" y="374"/>
      <point x="632" y="125"/>
      <point x="474" y="-174" type="curve"/>
      <point x="523" y="-216" type="line"/>
      <point x="654" y="29"/>
      <point x="840" y="256"/>
      <point x="968" y="256" type="curve" smooth="yes"/>
      <point x="1049" y="256"/>
      <point x="1059" y="204"/>
      <point x="1053" y="168" type="curve" smooth="yes"/>
      <point x="1043" y="111"/>
      <point x="1005" y="61"/>
      <point x="919" y="61" type="curve" smooth="yes"/>
      <point x="845" y="61"/>
      <point x="803" y="128"/>
      <point x="803" y="203" type="curve" smooth="yes"/>
      <point x="803" y="225"/>
      <point x="806" y="248"/>
    </contour>
  </outline>
</glyph>
<glyph name="LtnSmTCurl" format="2">
  <advance width="629"/>
  <unicode hex="0236"/>
  <anchor x="288" y="-100" name="L"/>
  <anchor x="424" y="1230" name="U"/>
  <outline>
    <contour>
      <point x="645" y="877" type="curve"/>
      <point x="625" y="905" type="line"/>
      <point x="376" y="905" type="line"/>
      <point x="385" y="963" type="line" smooth="yes"/>
      <point x="412" y="1128"/>
      <point x="436" y="1151"/>
      <point x="436" y="1151" type="curve"/>
      <point x="408" y="1176" type="line"/>
      <point x="307" y="1104" type="line" smooth="yes"/>
      <point x="271" y="1078"/>
      <point x="257" y="1049"/>
      <point x="238" y="940" type="curve" smooth="yes"/>
      <point x="232" y="905" type="line"/>
      <point x="160" y="905" type="line"/>
      <point x="59" y="846" type="line"/>
      <point x="74" y="815" type="line"/>
      <point x="218" y="815" type="line"/>
      <point x="141" y="332" type="line" smooth="yes"/>
      <point x="136" y="299"/>
      <point x="133" y="263"/>
      <point x="133" y="228" type="curve" smooth="yes"/>
      <point x="133" y="93"/>
      <point x="170" y="-41"/>
      <point x="343" y="-41" type="curve" smooth="yes"/>
      <point x="505" y="-41"/>
      <point x="617" y="90"/>
      <point x="627" y="229" type="curve" smooth="yes"/>
      <point x="634" y="329"/>
      <point x="561" y="374"/>
      <point x="470" y="374" type="curve" smooth="yes"/>
      <point x="304" y="374"/>
      <point x="111" y="149"/>
      <point x="-63" y="-174" type="curve"/>
      <point x="-14" y="-216" type="line"/>
      <point x="161" y="83"/>
      <point x="322" y="256"/>
      <point x="431" y="256" type="curve" smooth="yes"/>
      <point x="498" y="256"/>
      <point x="532" y="214"/>
      <point x="525" y="168" type="curve" smooth="yes"/>
      <point x="515" y="100"/>
      <point x="457" y="61"/>
      <point x="392" y="61" type="curve" smooth="yes"/>
      <point x="295" y="61"/>
      <point x="281" y="148"/>
      <point x="281" y="240" type="curve" smooth="yes"/>
      <point x="281" y="280"/>
      <point x="286" y="321"/>
      <point x="291" y="356" type="curve" smooth="yes"/>
      <point x="362" y="815" type="line"/>
      <point x="365" y="815" type="line" smooth="yes"/>
      <point x="465" y="815"/>
      <point x="502" y="807"/>
      <point x="518" y="770" type="curve"/>
      <point x="543" y="784"/>
      <point x="618" y="840"/>
    </contour>
  </outline>
</glyph>
<glyph name="LtnCapAStrk" format="2">
  <advance width="1147"/>
  <unicode hex="023A"/>
  <anchor x="514" y="0" name="H"/>
  <anchor x="502" y="-100" name="L"/>
  <anchor x="846" y="0" name="O"/>
  <anchor x="696" y="1320" name="U"/>
  <outline>
    <contour>
      <point x="410" y="535" type="line"/>
      <point x="645" y="1079" type="line"/>
      <point x="739" y="535" type="line"/>
    </contour>
    <contour>
      <point x="755" y="444" type="line"/>
      <point x="813" y="111" type="line" smooth="yes"/>
      <point x="821" y="68"/>
      <point x="780" y="49"/>
      <point x="686" y="43" type="curve"/>
      <point x="682" y="0" type="line"/>
      <point x="1067" y="0" type="line"/>
      <point x="1071" y="43" type="line"/>
      <point x="985" y="55"/>
      <point x="968" y="72"/>
      <point x="961" y="111" type="curve" smooth="yes"/>
      <point x="745" y="1317" type="line"/>
      <point x="711" y="1298"/>
      <point x="645" y="1260"/>
      <point x="610" y="1229" type="curve"/>
      <point x="123" y="111" type="line" smooth="yes"/>
      <point x="106" y="72"/>
      <point x="55" y="59"/>
      <point x="-29" y="43" type="curve"/>
      <point x="-35" y="0" type="line"/>
      <point x="344" y="0" type="line"/>
      <point x="350" y="43" type="line"/>
      <point x="248" y="57"/>
      <point x="210" y="70"/>
      <point x="228" y="111" type="curve" smooth="yes"/>
      <point x="371" y="444" type="line"/>
    </contour>
    <contour>
      <point x="1218" y="1389" type="line"/>
      <point x="1193" y="1420" type="line"/>
      <point x="1156" y="1407"/>
      <point x="1115" y="1367"/>
      <point x="1079" y="1343" type="curve"/>
      <point x="46" y="-128" type="line"/>
      <point x="68" y="-157" type="line"/>
      <point x="98" y="-146"/>
      <point x="160" y="-101"/>
      <point x="184" y="-80" type="curve"/>
    </contour>
  </outline>
</glyph>
<glyph name="LtnCapTDiagStrk" format="2">
  <advance width="1067"/>
  <unicode hex="023E"/>
  <anchor x="470" y="0" name="H"/>
  <anchor x="445" y="-100" name="L"/>
  <anchor x="641" y="1320" name="U"/>
  <outline>
    <contour>
      <point x="1118" y="1235" type="curve"/>
      <point x="1096" y="1260" type="line"/>
      <point x="683" y="1260" type="line"/>
      <point x="664" y="1169" type="line"/>
      <point x="950" y="1169" type="line" smooth="yes"/>
      <point x="1004" y="1169"/>
      <point x="1014" y="1133"/>
      <point x="1020" y="999" type="curve"/>
      <point x="1061" y="999" type="line"/>
      <point x="1083" y="1065"/>
      <point x="1108" y="1171"/>
    </contour>
    <contour>
      <point x="578" y="1169" type="line"/>
      <point x="583" y="1260" type="line"/>
      <point x="174" y="1260" type="line"/>
      <point x="150" y="1194"/>
      <point x="121" y="1083"/>
      <point x="113" y="1014" type="curve"/>
      <point x="150" y="995" type="line"/>
      <point x="223" y="1151"/>
      <point x="244" y="1169"/>
      <point x="279" y="1169" type="curve" smooth="yes"/>
    </contour>
    <contour>
      <point x="690" y="43" type="line"/>
      <point x="582" y="68"/>
      <point x="547" y="98"/>
      <point x="549" y="115" type="curve" smooth="yes"/>
      <point x="694" y="1176" type="line"/>
      <point x="698" y="1194"/>
      <point x="750" y="1198"/>
      <point x="834" y="1217" type="curve"/>
      <point x="840" y="1260" type="line"/>
      <point x="430" y="1260" type="line"/>
      <point x="424" y="1217" type="line"/>
      <point x="510" y="1198"/>
      <point x="553" y="1192"/>
      <point x="551" y="1176" type="curve" smooth="yes"/>
      <point x="403" y="115" type="line" smooth="yes"/>
      <point x="400" y="96"/>
      <point x="358" y="68"/>
      <point x="244" y="43" type="curve"/>
      <point x="238" y="0" type="line"/>
      <point x="684" y="0" type="line"/>
    </contour>
    <contour>
      <point x="1216" y="1389" type="line"/>
      <point x="1191" y="1420" type="line"/>
      <point x="1154" y="1407"/>
      <point x="1113" y="1367"/>
      <point x="1077" y="1343" type="curve"/>
      <point x="44" y="-128" type="line"/>
      <point x="66" y="-157" type="line"/>
      <point x="96" y="-146"/>
      <point x="158" y="-101"/>
      <point x="182" y="-80" type="curve"/>
    </contour>
  </outline>
</glyph>
<glyph name="LtnCapYStrk" format="2">
  <advance width="1145"/>
  <unicode hex="024E"/>
  <anchor x="492" y="-100" name="L"/>
  <anchor x="689" y="1320" name="U"/>
  <outline>
    <contour>
      <point x="1204" y="1260" type="line"/>
      <point x="844" y="1260" type="line"/>
      <point x="838" y="1217" type="line"/>
      <point x="928" y="1204"/>
      <point x="956" y="1188"/>
      <point x="934" y="1151" type="curve" smooth="yes"/>
      <point x="625" y="678" type="line"/>
      <point x="594" y="811"/>
      <point x="473" y="1104"/>
      <point x="385" y="1237" type="curve" smooth="yes"/>
      <point x="369" y="1262"/>
      <point x="350" y="1276"/>
      <point x="334" y="1276" type="curve" smooth="yes"/>
      <point x="283" y="1276"/>
      <point x="174" y="1253"/>
      <point x="102" y="1235" type="curve"/>
      <point x="111" y="1192" type="line"/>
      <point x="205" y="1204"/>
      <point x="233" y="1194"/>
      <point x="260" y="1155" type="curve" smooth="yes"/>
      <point x="360" y="1006"/>
      <point x="489" y="682"/>
      <point x="526" y="489" type="curve"/>
      <point x="623" y="489" type="line"/>
      <point x="1047" y="1151" type="line" smooth="yes"/>
      <point x="1069" y="1186"/>
      <point x="1114" y="1200"/>
      <point x="1198" y="1217" type="curve"/>
    </contour>
    <contour>
      <point x="739" y="43" type="line"/>
      <point x="629" y="68"/>
      <point x="596" y="98"/>
      <point x="598" y="115" type="curve" smooth="yes"/>
      <point x="670" y="637" type="line"/>
      <point x="524" y="637" type="line"/>
      <point x="453" y="115" type="line" smooth="yes"/>
      <point x="451" y="96"/>
      <point x="408" y="68"/>
      <point x="293" y="43" type="curve"/>
      <point x="287" y="0" type="line"/>
      <point x="733" y="0" type="line"/>
    </contour>
    <contour>
      <point x="1123" y="991" type="line"/>
      <point x="1104" y="1016" type="line"/>
      <point x="190" y="1016" type="line"/>
      <point x="178" y="995"/>
      <point x="168" y="969"/>
      <point x="159" y="948" type="curve"/>
      <point x="178" y="926" type="line"/>
      <point x="1092" y="926" type="line"/>
    </contour>
  </outline>
</glyph>
<glyph name="LtnSmBHook" format="2">
  <advance width="956"/>
  <unicode hex="0253"/>
  <anchor x="434" y="-100" name="L"/>
  <anchor x="673" y="1640" name="U"/>
  <outline>
    <contour>
      <point x="944" y="1403" type="curve"/>
      <point x="903" y="1417"/>
      <point x="821" y="1520"/>
      <point x="705" y="1520" type="curve" smooth="yes"/>
      <point x="621" y="1520"/>
      <point x="539" y="1479"/>
      <point x="469" y="1427" type="curve" smooth="yes"/>
      <point x="299" y="1300"/>
      <point x="252" y="1116"/>
      <point x="219" y="899" type="curve" smooth="yes"/>
      <point x="135" y="332" type="line" smooth="yes"/>
      <point x="127" y="270"/>
      <point x="123" y="229"/>
      <point x="123" y="217" type="curve" smooth="yes"/>
      <point x="123" y="96"/>
      <point x="279" y="-41"/>
      <point x="362" y="-41" type="curve" smooth="yes"/>
      <point x="530" y="-41"/>
      <point x="662" y="68"/>
      <point x="752" y="188" type="curve" smooth="yes"/>
      <point x="848" y="322"/>
      <point x="883" y="469"/>
      <point x="885" y="610" type="curve" smooth="yes"/>
      <point x="887" y="821"/>
      <point x="807" y="936"/>
      <point x="702" y="936" type="curve" smooth="yes"/>
      <point x="606" y="936"/>
      <point x="399" y="827"/>
      <point x="254" y="498" type="curve"/>
      <point x="270" y="414" type="line"/>
      <point x="367" y="635"/>
      <point x="549" y="803"/>
      <point x="604" y="803" type="curve" smooth="yes"/>
      <point x="668" y="803"/>
      <point x="741" y="715"/>
      <point x="741" y="530" type="curve" smooth="yes"/>
      <point x="741" y="440"/>
      <point x="729" y="326"/>
      <point x="668" y="229" type="curve" smooth="yes"/>
      <point x="625" y="162"/>
      <point x="555" y="86"/>
      <point x="459" y="86" type="curve" smooth="yes"/>
      <point x="367" y="86"/>
      <point x="272" y="186"/>
      <point x="272" y="256" type="curve" smooth="yes"/>
      <point x="272" y="264"/>
      <point x="274" y="299"/>
      <point x="283" y="348" type="curve" smooth="yes"/>
      <point x="373" y="952" type="line" smooth="yes"/>
      <point x="418" y="1264"/>
      <point x="496" y="1417"/>
      <point x="627" y="1417" type="curve" smooth="yes"/>
      <point x="700" y="1417"/>
      <point x="741" y="1305"/>
      <point x="776" y="1305" type="curve" smooth="yes"/>
      <point x="811" y="1305"/>
      <point x="887" y="1362"/>
    </contour>
  </outline>
</glyph>
<glyph name="LtnSmSchwa" format="2">
  <advance width="805"/>
  <unicode hex="0259"/>
  <anchor x="300" y="0" name="H"/>
  <anchor x="319" y="-100" name="L"/>
  <anchor x="345" y="0" name="O"/>
  <anchor x="470" y="1000" name="U"/>
  <outline>
    <contour>
      <point x="750" y="592" type="curve"/>
      <point x="750" y="844"/>
      <point x="596" y="936"/>
      <point x="508" y="936" type="curve" smooth="yes"/>
      <point x="412" y="936"/>
      <point x="305" y="905"/>
      <point x="86" y="715" type="curve"/>
      <point x="90" y="705"/>
      <point x="102" y="682"/>
      <point x="117" y="674" type="curve"/>
      <point x="279" y="803"/>
      <point x="379" y="819"/>
      <point x="436" y="819" type="curve" smooth="yes"/>
      <point x="514" y="819"/>
      <point x="608" y="692"/>
      <point x="608" y="528" type="curve" smooth="yes"/>
      <point x="608" y="371"/>
      <point x="539" y="193"/>
      <point x="442" y="113" type="curve" smooth="yes"/>
      <point x="401" y="80"/>
      <point x="348" y="63"/>
      <point x="315" y="63" type="curve" smooth="yes"/>
      <point x="268" y="63"/>
      <point x="223" y="96"/>
      <point x="223" y="180" type="curve" smooth="yes"/>
      <point x="223" y="279"/>
      <point x="260" y="393"/>
      <point x="670" y="545" type="curve"/>
      <point x="664" y="616" type="line"/>
      <point x="127" y="430"/>
      <point x="63" y="252"/>
      <point x="63" y="135" type="curve" smooth="yes"/>
      <point x="63" y="49"/>
      <point x="117" y="-41"/>
      <point x="231" y="-41" type="curve" smooth="yes"/>
      <point x="332" y="-41"/>
      <point x="428" y="2"/>
      <point x="492" y="49" type="curve" smooth="yes"/>
      <point x="676" y="186"/>
      <point x="750" y="383"/>
    </contour>
  </outline>
</glyph>
<glyph name="LtnSmGamma" format="2">
  <advance width="936"/>
  <unicode hex="0263"/>
  <anchor x="346" y="-600" name="L"/>
  <anchor x="548" y="1000" name="U"/>
  <outline>
    <contour>
      <point x="903" y="860" type="curve"/>
      <point x="903" y="926"/>
      <point x="866" y="936"/>
      <point x="821" y="936" type="curve" smooth="yes"/>
      <point x="774" y="936"/>
      <point x="702" y="913"/>
      <point x="604" y="858" type="curve"/>
      <point x="625" y="821" type="line"/>
      <point x="662" y="838"/>
      <point x="690" y="846"/>
      <point x="715" y="844" type="curve" smooth="yes"/>
      <point x="750" y="842"/>
      <point x="768" y="823"/>
      <point x="768" y="791" type="curve" smooth="yes"/>
      <point x="768" y="711"/>
      <point x="610" y="403"/>
      <point x="442" y="133" type="curve" smooth="yes"/>
      <point x="234" y="-197"/>
      <point x="198" y="-271"/>
      <point x="198" y="-334" type="curve" smooth="yes"/>
      <point x="198" y="-412"/>
      <point x="231" y="-500"/>
      <point x="356" y="-500" type="curve" smooth="yes"/>
      <point x="465" y="-500"/>
      <point x="633" y="-336"/>
      <point x="633" y="-170" type="curve" smooth="yes"/>
      <point x="633" y="173"/>
      <point x="465" y="489"/>
      <point x="328" y="809" type="curve" smooth="yes"/>
      <point x="289" y="899"/>
      <point x="279" y="936"/>
      <point x="242" y="936" type="curve" smooth="yes"/>
      <point x="209" y="936"/>
      <point x="117" y="891"/>
      <point x="4" y="840" type="curve"/>
      <point x="16" y="803" type="line"/>
      <point x="16" y="803"/>
      <point x="90" y="827"/>
      <point x="115" y="827" type="curve" smooth="yes"/>
      <point x="137" y="827"/>
      <point x="154" y="811"/>
      <point x="186" y="745" type="curve" smooth="yes"/>
      <point x="311" y="496"/>
      <point x="508" y="50"/>
      <point x="508" y="-223" type="curve" smooth="yes"/>
      <point x="508" y="-358"/>
      <point x="446" y="-393"/>
      <point x="389" y="-393" type="curve" smooth="yes"/>
      <point x="360" y="-393"/>
      <point x="321" y="-355"/>
      <point x="321" y="-295" type="curve" smooth="yes"/>
      <point x="321" y="-229"/>
      <point x="334" y="-203"/>
      <point x="545" y="152" type="curve" smooth="yes"/>
      <point x="852" y="664"/>
      <point x="903" y="770"/>
    </contour>
  </outline>
</glyph>
<glyph name="LtnSmRamsHorn" format="2">
  <advance width="988"/>
  <unicode hex="0264"/>
  <anchor x="373" y="-100" name="L"/>
  <anchor x="1084" y="870" name="R"/>
  <anchor x="540" y="1000" name="U"/>
  <outline>
    <contour>
      <point x="449" y="512" type="line"/>
      <point x="368" y="411"/>
      <point x="294" y="316"/>
      <point x="255" y="259" type="curve" smooth="yes"/>
      <point x="226" y="217"/>
      <point x="207" y="167"/>
      <point x="207" y="113" type="curve" smooth="yes"/>
      <point x="207" y="34"/>
      <point x="256" y="-40"/>
      <point x="366" y="-40" type="curve" smooth="yes"/>
      <point x="491" y="-40"/>
      <point x="608" y="66"/>
      <point x="608" y="199" type="curve" smooth="yes"/>
      <point x="608" y="224"/>
      <point x="603" y="250"/>
      <point x="592" y="286" type="curve" smooth="yes"/>
      <point x="559" y="394"/>
      <point x="397" y="777"/>
      <point x="335" y="859" type="curve" smooth="yes"/>
      <point x="296" y="910"/>
      <point x="258" y="936"/>
      <point x="210" y="936" type="curve" smooth="yes"/>
      <point x="79" y="936"/>
      <point x="11" y="729"/>
      <point x="11" y="616" type="curve"/>
      <point x="50" y="616" type="line"/>
      <point x="67" y="667"/>
      <point x="113" y="749"/>
      <point x="175" y="749" type="curve" smooth="yes"/>
      <point x="201" y="749"/>
      <point x="224" y="738"/>
      <point x="245" y="714" type="curve" smooth="yes"/>
      <point x="315" y="635"/>
      <point x="451" y="283"/>
      <point x="474" y="202" type="curve" smooth="yes"/>
      <point x="479" y="185"/>
      <point x="481" y="171"/>
      <point x="481" y="159" type="curve" smooth="yes"/>
      <point x="481" y="107"/>
      <point x="441" y="61"/>
      <point x="383" y="61" type="curve" smooth="yes"/>
      <point x="341" y="61"/>
      <point x="308" y="87"/>
      <point x="308" y="144" type="curve" smooth="yes"/>
      <point x="308" y="164"/>
      <point x="315" y="182"/>
      <point x="325" y="200" type="curve" smooth="yes"/>
      <point x="338" y="223"/>
      <point x="408" y="314"/>
      <point x="488" y="414" type="curve"/>
    </contour>
    <contour>
      <point x="497" y="415" type="line"/>
      <point x="601" y="545"/>
      <point x="728" y="693"/>
      <point x="759" y="718" type="curve" smooth="yes"/>
      <point x="787" y="740"/>
      <point x="811" y="749"/>
      <point x="832" y="749" type="curve" smooth="yes"/>
      <point x="885" y="749"/>
      <point x="897" y="667"/>
      <point x="900" y="616" type="curve"/>
      <point x="941" y="616" type="line"/>
      <point x="950" y="648"/>
      <point x="958" y="705"/>
      <point x="958" y="762" type="curve" smooth="yes"/>
      <point x="958" y="849"/>
      <point x="938" y="936"/>
      <point x="867" y="936" type="curve" smooth="yes"/>
      <point x="848" y="936"/>
      <point x="828" y="927"/>
      <point x="805" y="908" type="curve" smooth="yes"/>
      <point x="761" y="872"/>
      <point x="594" y="681"/>
      <point x="457" y="512" type="curve"/>
    </contour>
  </outline>
</glyph>
<glyph name="LtnSmCapI" format="2">
  <advance width="504"/>
  <unicode hex="026A"/>
  <anchor x="190" y="0" name="H"/>
  <anchor x="171" y="-100" name="L"/>
  <anchor x="224" y="0" name="O"/>
  <anchor x="520" y="870" name="R"/>
  <anchor x="322" y="1000" name="U"/>
  <outline>
    <contour>
      <point x="381" y="0" type="line"/>
      <point x="386" y="42" type="line"/>
      <point x="303" y="60"/>
      <point x="269" y="86"/>
      <point x="271" y="102" type="curve" smooth="yes"/>
      <point x="366" y="804" type="line" smooth="yes"/>
      <point x="368" y="821"/>
      <point x="416" y="846"/>
      <point x="498" y="864" type="curve"/>
      <point x="504" y="906" type="line"/>
      <point x="113" y="906" type="line"/>
      <point x="107" y="864" type="line"/>
      <point x="190" y="846"/>
      <point x="225" y="819"/>
      <point x="223" y="804" type="curve" smooth="yes"/>
      <point x="128" y="102" type="line" smooth="yes"/>
      <point x="126" y="84"/>
      <point x="78" y="60"/>
      <point x="-5" y="42" type="curve"/>
      <point x="-10" y="0" type="line"/>
    </contour>
  </outline>
</glyph>
<glyph name="LtnSmTurnedRHook" format="2">
  <advance width="745"/>
  <unicode hex="027B"/>
  <anchor x="367" y="-600" name="L"/>
  <anchor x="614" y="1000" name="U"/>
  <outline>
    <contour>
      <point x="919" y="-193" type="curve"/>
      <point x="901" y="-158" type="line"/>
      <point x="854" y="-174"/>
      <point x="796" y="-201"/>
      <point x="747" y="-228" type="curve"/>
      <point x="790" y="-305"/>
      <point x="743" y="-387"/>
      <point x="677" y="-387" type="curve" smooth="yes"/>
      <point x="621" y="-387"/>
      <point x="559" y="-308"/>
      <point x="559" y="-185" type="curve" smooth="yes"/>
      <point x="559" y="238"/>
      <point x="679" y="715"/>
      <point x="679" y="852" type="curve" smooth="yes"/>
      <point x="679" y="913"/>
      <point x="670" y="936"/>
      <point x="633" y="936" type="curve" smooth="yes"/>
      <point x="599" y="936"/>
      <point x="468" y="891"/>
      <point x="355" y="840" type="curve"/>
      <point x="370" y="803" type="line"/>
      <point x="383" y="807"/>
      <point x="452" y="827"/>
      <point x="474" y="827" type="curve" smooth="yes"/>
      <point x="497" y="827"/>
      <point x="521" y="821"/>
      <point x="521" y="760" type="curve" smooth="yes"/>
      <point x="521" y="654"/>
      <point x="413" y="164"/>
      <point x="413" y="-222" type="curve" smooth="yes"/>
      <point x="413" y="-382"/>
      <point x="484" y="-500"/>
      <point x="569" y="-500" type="curve" smooth="yes"/>
      <point x="720" y="-500"/>
      <point x="925" y="-328"/>
    </contour>
    <contour>
      <point x="10" y="15" type="curve" smooth="yes"/>
      <point x="10" y="1"/>
      <point x="96" y="-41"/>
      <point x="153" y="-41" type="curve" smooth="yes"/>
      <point x="239" y="-41"/>
      <point x="344" y="23"/>
      <point x="473" y="286" type="curve"/>
      <point x="481" y="358"/>
      <point x="531" y="456"/>
      <point x="496" y="550" type="curve"/>
      <point x="443" y="352"/>
      <point x="318" y="111"/>
      <point x="223" y="111" type="curve" smooth="yes"/>
      <point x="164" y="111"/>
      <point x="136" y="150"/>
      <point x="116" y="150" type="curve" smooth="yes"/>
      <point x="96" y="150"/>
      <point x="10" y="31"/>
    </contour>
  </outline>
</glyph>
<glyph name="LtnSmSquatRevEsh" format="2">
  <advance width="684"/>
  <unicode hex="0285"/>
  <anchor x="436" y="-600" name="L"/>
  <anchor x="440" y="1000" name="U"/>
  <outline>
    <contour>
      <point x="459" y="619" type="curve" smooth="yes"/>
      <point x="439" y="432"/>
      <point x="285" y="-28"/>
      <point x="285" y="-264" type="curve" smooth="yes"/>
      <point x="285" y="-422"/>
      <point x="338" y="-501"/>
      <point x="424" y="-500" type="curve" smooth="yes"/>
      <point x="600" y="-498"/>
      <point x="800" y="-328"/>
      <point x="794" y="-193" type="curve"/>
      <point x="776" y="-158" type="line"/>
      <point x="729" y="-174"/>
      <point x="671" y="-201"/>
      <point x="622" y="-228" type="curve"/>
      <point x="665" y="-305"/>
      <point x="606" y="-387"/>
      <point x="522" y="-387" type="curve" smooth="yes"/>
      <point x="465" y="-387"/>
      <point x="432" y="-350"/>
      <point x="432" y="-218" type="curve" smooth="yes"/>
      <point x="432" y="8"/>
      <point x="581" y="430"/>
      <point x="605" y="682" type="curve" smooth="yes"/>
      <point x="626" y="907"/>
      <point x="512" y="931"/>
      <point x="429" y="931" type="curve" smooth="yes"/>
      <point x="366" y="931"/>
      <point x="209" y="876"/>
      <point x="121" y="777" type="curve"/>
      <point x="97" y="762"/>
      <point x="114" y="654"/>
      <point x="133" y="584" type="curve"/>
      <point x="172" y="584" type="line"/>
      <point x="196" y="677"/>
      <point x="250" y="812"/>
      <point x="348" y="812" type="curve" smooth="yes"/>
      <point x="429" y="812"/>
      <point x="475" y="765"/>
    </contour>
  </outline>
</glyph>
<glyph name="LtnSmUBar" format="2">
  <advance width="1022"/>
  <unicode hex="0289"/>
  <anchor x="409" y="0" name="H"/>
  <anchor x="430" y="-100" name="L"/>
  <anchor x="797" y="0" name="O"/>
  <anchor x="1001" y="870" name="R"/>
  <anchor x="581" y="1000" name="U"/>
  <outline>
    <contour>
      <point x="977" y="485" type="line"/>
      <point x="958" y="510" type="line"/>
      <point x="25" y="510" type="line"/>
      <point x="13" y="489"/>
      <point x="3" y="463"/>
      <point x="-6" y="442" type="curve"/>
      <point x="13" y="420" type="line"/>
      <point x="946" y="420" type="line"/>
    </contour>
    <contour>
      <point x="975" y="68" type="curve"/>
      <point x="961" y="104" type="line"/>
      <point x="913" y="84"/>
      <point x="881" y="76"/>
      <point x="846" y="76" type="curve" smooth="yes"/>
      <point x="813" y="76"/>
      <point x="795" y="133"/>
      <point x="795" y="254" type="curve" smooth="yes"/>
      <point x="795" y="385"/>
      <point x="877" y="735"/>
      <point x="877" y="852" type="curve" smooth="yes"/>
      <point x="877" y="913"/>
      <point x="868" y="936"/>
      <point x="831" y="936" type="curve" smooth="yes"/>
      <point x="797" y="936"/>
      <point x="686" y="891"/>
      <point x="573" y="840" type="curve"/>
      <point x="588" y="803" type="line"/>
      <point x="588" y="803"/>
      <point x="659" y="827"/>
      <point x="682" y="827" type="curve" smooth="yes"/>
      <point x="705" y="827"/>
      <point x="719" y="821"/>
      <point x="719" y="760" type="curve" smooth="yes"/>
      <point x="719" y="662"/>
      <point x="677" y="500"/>
      <point x="662" y="358" type="curve" smooth="yes"/>
      <point x="630" y="60"/>
      <point x="688" y="-41"/>
      <point x="743" y="-41" type="curve" smooth="yes"/>
      <point x="793" y="-41"/>
      <point x="868" y="-4"/>
    </contour>
    <contour>
      <point x="680" y="459" type="line"/>
      <point x="537" y="180"/>
      <point x="406" y="80"/>
      <point x="352" y="80" type="curve" smooth="yes"/>
      <point x="303" y="80"/>
      <point x="274" y="135"/>
      <point x="274" y="262" type="curve" smooth="yes"/>
      <point x="274" y="379"/>
      <point x="354" y="735"/>
      <point x="354" y="852" type="curve" smooth="yes"/>
      <point x="354" y="913"/>
      <point x="344" y="936"/>
      <point x="305" y="936" type="curve" smooth="yes"/>
      <point x="272" y="936"/>
      <point x="152" y="891"/>
      <point x="39" y="840" type="curve"/>
      <point x="51" y="803" type="line"/>
      <point x="51" y="803"/>
      <point x="131" y="827"/>
      <point x="154" y="827" type="curve" smooth="yes"/>
      <point x="178" y="827"/>
      <point x="195" y="821"/>
      <point x="195" y="760" type="curve" smooth="yes"/>
      <point x="195" y="662"/>
      <point x="121" y="324"/>
      <point x="121" y="205" type="curve" smooth="yes"/>
      <point x="121" y="43"/>
      <point x="215" y="-41"/>
      <point x="268" y="-41" type="curve" smooth="yes"/>
      <point x="414" y="-41"/>
      <point x="551" y="104"/>
      <point x="661" y="305" type="curve"/>
    </contour>
  </outline>
</glyph>
<glyph name="LtnSmVHook" format="2">
  <advance width="895"/>
  <unicode hex="028B"/>
  <anchor x="320" y="0" name="H"/>
  <anchor x="370" y="-100" name="L"/>
  <anchor x="376" y="0" name="O"/>
  <anchor x="524" y="1000" name="U"/>
  <outline>
    <contour>
      <point x="838" y="588" type="curve"/>
      <point x="868" y="825"/>
      <point x="793" y="907"/>
      <point x="682" y="934" type="curve"/>
      <point x="641" y="922"/>
      <point x="541" y="891"/>
      <point x="500" y="872" type="curve"/>
      <point x="510" y="831" type="line"/>
      <point x="694" y="831"/>
      <point x="721" y="694"/>
      <point x="696" y="535" type="curve" smooth="yes"/>
      <point x="672" y="365"/>
      <point x="520" y="80"/>
      <point x="362" y="80" type="curve" smooth="yes"/>
      <point x="319" y="80"/>
      <point x="274" y="135"/>
      <point x="274" y="262" type="curve" smooth="yes"/>
      <point x="274" y="379"/>
      <point x="354" y="735"/>
      <point x="354" y="852" type="curve" smooth="yes"/>
      <point x="354" y="913"/>
      <point x="344" y="936"/>
      <point x="305" y="936" type="curve" smooth="yes"/>
      <point x="272" y="936"/>
      <point x="152" y="891"/>
      <point x="39" y="840" type="curve"/>
      <point x="51" y="803" type="line"/>
      <point x="51" y="803"/>
      <point x="131" y="827"/>
      <point x="154" y="827" type="curve" smooth="yes"/>
      <point x="178" y="827"/>
      <point x="195" y="821"/>
      <point x="195" y="760" type="curve" smooth="yes"/>
      <point x="195" y="662"/>
      <point x="121" y="324"/>
      <point x="121" y="205" type="curve" smooth="yes"/>
      <point x="121" y="43"/>
      <point x="223" y="-41"/>
      <point x="289" y="-41" type="curve" smooth="yes"/>
      <point x="539" y="-41"/>
      <point x="801" y="313"/>
    </contour>
  </outline>
</glyph>
<glyph name="LtnSmCapY" format="2">
  <advance width="924"/>
  <unicode hex="028F"/>
  <anchor x="377" y="-100" name="L"/>
  <anchor x="883" y="870" name="R"/>
  <anchor x="528" y="1000" name="U"/>
  <outline>
    <contour>
      <point x="928" y="864" type="curve"/>
      <point x="934" y="906" type="line"/>
      <point x="627" y="906" type="line"/>
      <point x="622" y="864" type="line"/>
      <point x="696" y="855"/>
      <point x="728" y="841"/>
      <point x="709" y="815" type="curve" smooth="yes"/>
      <point x="478" y="484" type="line"/>
      <point x="429" y="625"/>
      <point x="338" y="800"/>
      <point x="278" y="894" type="curve" smooth="yes"/>
      <point x="265" y="913"/>
      <point x="249" y="927"/>
      <point x="228" y="927" type="curve" smooth="yes"/>
      <point x="189" y="927"/>
      <point x="69" y="878"/>
      <point x="10" y="853" type="curve"/>
      <point x="18" y="817" type="line"/>
      <point x="94" y="835"/>
      <point x="144" y="827"/>
      <point x="158" y="805" type="curve"/>
      <point x="219" y="705"/>
      <point x="324" y="504"/>
      <point x="371" y="342" type="curve"/>
      <point x="485" y="342" type="line"/>
      <point x="816" y="815" type="line" smooth="yes"/>
      <point x="832" y="841"/>
      <point x="859" y="852"/>
    </contour>
    <contour>
      <point x="584" y="0" type="line"/>
      <point x="589" y="42" type="line"/>
      <point x="502" y="67"/>
      <point x="471" y="90"/>
      <point x="473" y="102" type="curve" smooth="yes"/>
      <point x="521" y="460" type="line"/>
      <point x="378" y="460" type="line"/>
      <point x="330" y="102" type="line" smooth="yes"/>
      <point x="328" y="88"/>
      <point x="292" y="69"/>
      <point x="197" y="42" type="curve"/>
      <point x="192" y="0" type="line"/>
    </contour>
  </outline>
</glyph>
<glyph name="LtnSmZCurl" format="2">
  <advance width="828"/>
  <unicode hex="0291"/>
  <anchor x="346" y="-100" name="L"/>
  <anchor x="488" y="1000" name="U"/>
  <outline>
    <contour>
      <point x="776" y="885" type="curve"/>
      <point x="756" y="915" type="line"/>
      <point x="268" y="915" type="line" smooth="yes"/>
      <point x="221" y="915"/>
      <point x="195" y="930"/>
      <point x="170" y="936" type="curve"/>
      <point x="160" y="879"/>
      <point x="131" y="793"/>
      <point x="106" y="674" type="curve"/>
      <point x="145" y="666" type="line"/>
      <point x="184" y="778"/>
      <point x="205" y="795"/>
      <point x="268" y="795" type="curve" smooth="yes"/>
      <point x="569" y="795" type="line"/>
      <point x="453" y="657"/>
      <point x="195" y="242"/>
      <point x="-4" y="2" type="curve"/>
      <point x="18" y="-31" type="line"/>
      <point x="119" y="20"/>
      <point x="162" y="47"/>
      <point x="205" y="47" type="curve" smooth="yes"/>
      <point x="289" y="47"/>
      <point x="391" y="-20"/>
      <point x="522" y="-20" type="curve" smooth="yes"/>
      <point x="655" y="-20"/>
      <point x="754" y="94"/>
      <point x="772" y="216" type="curve" smooth="yes"/>
      <point x="786" y="321"/>
      <point x="727" y="367"/>
      <point x="650" y="367" type="curve" smooth="yes"/>
      <point x="505" y="367"/>
      <point x="342" y="181"/>
      <point x="263" y="-213" type="curve"/>
      <point x="322" y="-221" type="line"/>
      <point x="401" y="97"/>
      <point x="501" y="251"/>
      <point x="604" y="251" type="curve" smooth="yes"/>
      <point x="649" y="251"/>
      <point x="677" y="216"/>
      <point x="670" y="167" type="curve" smooth="yes"/>
      <point x="663" y="127"/>
      <point x="632" y="104"/>
      <point x="598" y="104" type="curve" smooth="yes"/>
      <point x="500" y="104"/>
      <point x="365" y="166"/>
      <point x="311" y="166" type="curve" smooth="yes"/>
      <point x="270" y="166"/>
      <point x="233" y="152"/>
      <point x="229" y="150" type="curve"/>
      <point x="440" y="420"/>
      <point x="557" y="649"/>
    </contour>
  </outline>
</glyph>
<glyph name="LtnRevGlottalStop" format="2">
  <advance width="789"/>
  <unicode hex="0295"/>
  <anchor x="300" y="-100" name="L"/>
  <anchor x="538" y="1640" name="U"/>
  <outline>
    <contour>
      <point x="547" y="0" type="line"/>
      <point x="552" y="42" type="line"/>
      <point x="452" y="62"/>
      <point x="407" y="81"/>
      <point x="410" y="102" type="curve" smooth="yes"/>
      <point x="462" y="482" type="line" smooth="yes"/>
      <point x="503" y="786"/>
      <point x="235" y="929"/>
      <point x="266" y="1155" type="curve" smooth="yes"/>
      <point x="288" y="1317"/>
      <point x="377" y="1425"/>
      <point x="483" y="1425" type="curve" smooth="yes"/>
      <point x="627" y="1425"/>
      <point x="690" y="1310"/>
      <point x="673" y="1142" type="curve"/>
      <point x="730" y="1141"/>
      <point x="820" y="1183"/>
      <point x="829" y="1205" type="curve"/>
      <point x="840" y="1395"/>
      <point x="738" y="1520"/>
      <point x="543" y="1520" type="curve" smooth="yes"/>
      <point x="360" y="1520"/>
      <point x="153" y="1374"/>
      <point x="119" y="1131" type="curve" smooth="yes"/>
      <point x="83" y="858"/>
      <point x="352" y="720"/>
      <point x="314" y="449" type="curve" smooth="yes"/>
      <point x="267" y="102" type="line" smooth="yes"/>
      <point x="264" y="83"/>
      <point x="207" y="60"/>
      <point x="107" y="42" type="curve"/>
      <point x="102" y="0" type="line"/>
    </contour>
  </outline>
</glyph>
<glyph name="LtnSmCapGHook" format="2">
  <advance width="891"/>
  <unicode hex="029B"/>
  <anchor x="383" y="-100" name="L"/>
  <anchor x="534" y="1000" name="U"/>
  <outline>
    <contour>
      <point x="1354" y="1403" type="curve"/>
      <point x="1313" y="1417"/>
      <point x="1252" y="1520"/>
      <point x="1135" y="1520" type="curve" smooth="yes"/>
      <point x="1053" y="1520"/>
      <point x="990" y="1479"/>
      <point x="920" y="1427" type="curve" smooth="yes"/>
      <point x="824" y="1356"/>
      <point x="763" y="1272"/>
      <point x="728" y="1065" type="curve" smooth="yes"/>
      <point x="711" y="921" type="line"/>
      <point x="677" y="931"/>
      <point x="644" y="936"/>
      <point x="617" y="936" type="curve" smooth="yes"/>
      <point x="306" y="936"/>
      <point x="53" y="705"/>
      <point x="53" y="335" type="curve" smooth="yes"/>
      <point x="53" y="91"/>
      <point x="233" y="-41"/>
      <point x="408" y="-41" type="curve" smooth="yes"/>
      <point x="496" y="-41"/>
      <point x="580" y="-24"/>
      <point x="740" y="95" type="curve"/>
      <point x="767" y="302" type="line" smooth="yes"/>
      <point x="771" y="335"/>
      <point x="794" y="378"/>
      <point x="850" y="392" type="curve"/>
      <point x="856" y="434" type="line"/>
      <point x="500" y="434" type="line"/>
      <point x="494" y="392" type="line"/>
      <point x="612" y="373"/>
      <point x="628" y="333"/>
      <point x="624" y="302" type="curve" smooth="yes"/>
      <point x="594" y="81" type="line"/>
      <point x="551" y="65"/>
      <point x="503" y="57"/>
      <point x="449" y="57" type="curve" smooth="yes"/>
      <point x="339" y="57"/>
      <point x="198" y="165"/>
      <point x="198" y="377" type="curve" smooth="yes"/>
      <point x="198" y="717"/>
      <point x="409" y="845"/>
      <point x="510" y="845" type="curve" smooth="yes"/>
      <point x="607" y="845"/>
      <point x="682" y="795"/>
      <point x="730" y="719" type="curve"/>
      <point x="755" y="715" type="line"/>
      <point x="782" y="737"/>
      <point x="839" y="834"/>
      <point x="841" y="859" type="curve"/>
      <point x="848" y="887"/>
      <point x="877" y="1106"/>
      <point x="879" y="1116" type="curve" smooth="yes"/>
      <point x="912" y="1323"/>
      <point x="969" y="1417"/>
      <point x="1057" y="1417" type="curve" smooth="yes"/>
      <point x="1131" y="1417"/>
      <point x="1154" y="1305"/>
      <point x="1189" y="1305" type="curve" smooth="yes"/>
      <point x="1221" y="1305"/>
      <point x="1297" y="1362"/>
    </contour>
  </outline>
</glyph>
<glyph name="LtnSmJCrossedTail" format="2">
  <advance width="502"/>
  <unicode hex="029D"/>
  <anchor x="16" y="-600" name="L"/>
  <anchor x="327" y="1000" name="U"/>
  <outline>
    <contour>
      <point x="375" y="870" type="curve"/>
      <point x="375" y="926"/>
      <point x="356" y="936"/>
      <point x="319" y="936" type="curve" smooth="yes"/>
      <point x="287" y="936"/>
      <point x="168" y="891"/>
      <point x="55" y="840" type="curve"/>
      <point x="70" y="803" type="line"/>
      <point x="70" y="803"/>
      <point x="147" y="827"/>
      <point x="170" y="827" type="curve" smooth="yes"/>
      <point x="193" y="827"/>
      <point x="211" y="821"/>
      <point x="211" y="760" type="curve" smooth="yes"/>
      <point x="211" y="717"/>
      <point x="190" y="516"/>
      <point x="183" y="451" type="curve" smooth="yes"/>
      <point x="176" y="378"/>
      <point x="162" y="220"/>
      <point x="131" y="32" type="curve" smooth="yes"/>
      <point x="78" y="-288"/>
      <point x="17" y="-387"/>
      <point x="-109" y="-387" type="curve" smooth="yes"/>
      <point x="-166" y="-387"/>
      <point x="-211" y="-346"/>
      <point x="-203" y="-283" type="curve" smooth="yes"/>
      <point x="-196" y="-231"/>
      <point x="-141" y="-194"/>
      <point x="-68" y="-194" type="curve" smooth="yes"/>
      <point x="60" y="-194"/>
      <point x="151" y="-294"/>
      <point x="304" y="-509" type="curve"/>
      <point x="352" y="-464" type="line"/>
      <point x="168" y="-154"/>
      <point x="40" y="-110"/>
      <point x="-52" y="-110" type="curve" smooth="yes"/>
      <point x="-223" y="-110"/>
      <point x="-321" y="-227"/>
      <point x="-332" y="-308" type="curve" smooth="yes"/>
      <point x="-348" y="-429"/>
      <point x="-252" y="-500"/>
      <point x="-152" y="-500" type="curve" smooth="yes"/>
      <point x="-72" y="-500"/>
      <point x="6" y="-462"/>
      <point x="76" y="-391" type="curve" smooth="yes"/>
      <point x="192" y="-274"/>
      <point x="254" y="-146"/>
      <point x="287" y="73" type="curve" smooth="yes"/>
      <point x="311" y="236"/>
      <point x="325" y="382"/>
      <point x="334" y="473" type="curve" smooth="yes"/>
      <point x="343" y="559"/>
      <point x="375" y="827"/>
    </contour>
    <contour>
      <point x="458" y="1262" type="curve"/>
      <point x="458" y="1307"/>
      <point x="433" y="1333"/>
      <point x="392" y="1333" type="curve" smooth="yes"/>
      <point x="316" y="1333"/>
      <point x="269" y="1247"/>
      <point x="269" y="1176" type="curve" smooth="yes"/>
      <point x="269" y="1131"/>
      <point x="292" y="1106"/>
      <point x="333" y="1106" type="curve" smooth="yes"/>
      <point x="408" y="1106"/>
      <point x="458" y="1188"/>
    </contour>
  </outline>
</glyph>
<glyph name="LtnSmTurnedK" format="2">
  <advance width="917"/>
  <unicode hex="029E"/>
  <anchor x="257" y="-100" name="L"/>
  <anchor x="553" y="1000" name="U"/>
  <outline>
    <contour>
      <point x="35" y="22" type="curve"/>
      <point x="35" y="-23"/>
      <point x="67" y="-41"/>
      <point x="111" y="-41" type="curve" smooth="yes"/>
      <point x="195" y="-41"/>
      <point x="284" y="-18"/>
      <point x="362" y="-8" type="curve"/>
      <point x="358" y="31" type="line"/>
      <point x="280" y="28"/>
      <point x="232" y="39"/>
      <point x="232" y="64" type="curve" smooth="yes"/>
      <point x="233" y="95"/>
      <point x="304" y="149"/>
      <point x="406" y="227" type="curve" smooth="yes"/>
      <point x="625" y="393" type="line"/>
      <point x="561" y="428" type="line"/>
      <point x="354" y="303" type="line" smooth="yes"/>
      <point x="153" y="182"/>
      <point x="35" y="71"/>
    </contour>
    <contour>
      <point x="518" y="-359" type="curve"/>
      <point x="518" y="-463"/>
      <point x="565" y="-500"/>
      <point x="591" y="-500" type="curve" smooth="yes"/>
      <point x="634" y="-500"/>
      <point x="719" y="-473"/>
      <point x="857" y="-387" type="curve"/>
      <point x="842" y="-350" type="line"/>
      <point x="805" y="-370"/>
      <point x="736" y="-383"/>
      <point x="714" y="-383" type="curve" smooth="yes"/>
      <point x="693" y="-383"/>
      <point x="672" y="-359"/>
      <point x="672" y="-293" type="curve" smooth="yes"/>
      <point x="672" y="-91"/>
      <point x="828" y="750"/>
      <point x="848" y="905" type="curve"/>
      <point x="813" y="936" type="line"/>
      <point x="780" y="918"/>
      <point x="701" y="887"/>
      <point x="664" y="868" type="curve"/>
      <point x="703" y="731"/>
      <point x="518" y="-151"/>
    </contour>
    <contour>
      <point x="37" y="844" type="curve"/>
      <point x="54" y="810" type="line"/>
      <point x="98" y="822"/>
      <point x="128" y="826"/>
      <point x="168" y="826" type="curve" smooth="yes"/>
      <point x="265" y="826"/>
      <point x="397" y="401"/>
      <point x="516" y="332" type="curve"/>
      <point x="625" y="393" type="line"/>
      <point x="516" y="471"/>
      <point x="393" y="936"/>
      <point x="248" y="936" type="curve" smooth="yes"/>
      <point x="207" y="936"/>
      <point x="129" y="899"/>
    </contour>
  </outline>
</glyph>
<glyph name="LtnSmTsDigraph" format="2">
  <advance width="1161"/>
  <unicode hex="02A6"/>
  <anchor x="482" y="-100" name="L"/>
  <anchor x="677" y="1230" name="U"/>
  <outline>
    <contour>
      <point x="764" y="877" type="curve"/>
      <point x="774" y="905" type="line"/>
      <point x="160" y="905" type="line"/>
      <point x="59" y="846" type="line"/>
      <point x="74" y="815" type="line"/>
      <point x="484" y="815" type="line" smooth="yes"/>
      <point x="584" y="815"/>
      <point x="591" y="807"/>
      <point x="607" y="770" type="curve"/>
      <point x="632" y="784"/>
      <point x="737" y="840"/>
    </contour>
    <contour>
      <point x="538" y="176" type="line"/>
      <point x="516" y="204" type="line"/>
      <point x="429" y="112"/>
      <point x="399" y="90"/>
      <point x="352" y="90" type="curve" smooth="yes"/>
      <point x="315" y="90"/>
      <point x="279" y="129"/>
      <point x="279" y="211" type="curve" smooth="yes"/>
      <point x="279" y="238"/>
      <point x="283" y="305"/>
      <point x="291" y="356" type="curve" smooth="yes"/>
      <point x="385" y="963" type="line" smooth="yes"/>
      <point x="412" y="1128"/>
      <point x="436" y="1151"/>
      <point x="436" y="1151" type="curve"/>
      <point x="408" y="1176" type="line"/>
      <point x="307" y="1104" type="line" smooth="yes"/>
      <point x="272" y="1077"/>
      <point x="254" y="1049"/>
      <point x="238" y="940" type="curve" smooth="yes"/>
      <point x="141" y="332" type="line"/>
      <point x="131" y="258"/>
      <point x="127" y="211"/>
      <point x="127" y="160" type="curve" smooth="yes"/>
      <point x="127" y="43"/>
      <point x="186" y="-41"/>
      <point x="252" y="-41" type="curve" smooth="yes"/>
      <point x="311" y="-41"/>
      <point x="396" y="-5"/>
      <point x="541" y="136" type="curve"/>
    </contour>
    <contour>
      <point x="1148" y="844" type="curve"/>
      <point x="1093" y="860"/>
      <point x="1048" y="936"/>
      <point x="913" y="936" type="curve" smooth="yes"/>
      <point x="755" y="936"/>
      <point x="573" y="821"/>
      <point x="573" y="653" type="curve" smooth="yes"/>
      <point x="573" y="567"/>
      <point x="620" y="502"/>
      <point x="761" y="436" type="curve" smooth="yes"/>
      <point x="862" y="389"/>
      <point x="954" y="326"/>
      <point x="954" y="223" type="curve" smooth="yes"/>
      <point x="954" y="131"/>
      <point x="876" y="55"/>
      <point x="782" y="55" type="curve" smooth="yes"/>
      <point x="606" y="55"/>
      <point x="575" y="223"/>
      <point x="548" y="223" type="curve" smooth="yes"/>
      <point x="520" y="223"/>
      <point x="446" y="127"/>
      <point x="446" y="98" type="curve" smooth="yes"/>
      <point x="446" y="41"/>
      <point x="577" y="-41"/>
      <point x="702" y="-41" type="curve" smooth="yes"/>
      <point x="876" y="-41"/>
      <point x="1085" y="104"/>
      <point x="1085" y="289" type="curve" smooth="yes"/>
      <point x="1085" y="430"/>
      <point x="966" y="508"/>
      <point x="856" y="559" type="curve" smooth="yes"/>
      <point x="749" y="608"/>
      <point x="708" y="662"/>
      <point x="708" y="709" type="curve" smooth="yes"/>
      <point x="708" y="795"/>
      <point x="786" y="852"/>
      <point x="860" y="852" type="curve" smooth="yes"/>
      <point x="948" y="852"/>
      <point x="987" y="741"/>
      <point x="1021" y="741" type="curve" smooth="yes"/>
      <point x="1040" y="741"/>
      <point x="1095" y="784"/>
    </contour>
  </outline>
</glyph>
<glyph name="ModApos" format="2">
  <advance width="317"/>
  <unicode hex="02BC"/>
  <outline>
    <contour>
      <point x="378" y="1330" type="curve"/>
      <point x="391" y="1396"/>
      <point x="382" y="1464"/>
      <point x="322" y="1494" type="curve"/>
      <point x="285" y="1498"/>
      <point x="152" y="1455"/>
      <point x="129" y="1429" type="curve"/>
      <point x="134" y="1389" type="line"/>
      <point x="228" y="1389"/>
      <point x="255" y="1329"/>
      <point x="241" y="1260" type="curve" smooth="yes"/>
      <point x="228" y="1201"/>
      <point x="195" y="1150"/>
      <point x="138" y="1100" type="curve"/>
      <point x="168" y="1069" type="line"/>
      <point x="282" y="1132"/>
      <point x="358" y="1241"/>
    </contour>
  </outline>
</glyph>
<glyph name="ModLftArrwhd" format="2">
  <advance width="747"/>
  <unicode hex="02C2"/>
  <outline>
    <contour>
      <point x="727" y="1400" type="curve"/>
      <point x="712" y="1420" type="line"/>
      <point x="163" y="1204" type="line"/>
      <point x="151" y="1182"/>
      <point x="137" y="1146"/>
      <point x="130" y="1124" type="curve"/>
      <point x="145" y="1105" type="line"/>
      <point x="695" y="1320" type="line"/>
      <point x="704" y="1340"/>
      <point x="719" y="1377"/>
    </contour>
    <contour>
      <point x="666" y="958" type="curve"/>
      <point x="658" y="987" type="line"/>
      <point x="163" y="1204" type="line"/>
      <point x="151" y="1182"/>
      <point x="137" y="1146"/>
      <point x="130" y="1124" type="curve"/>
      <point x="145" y="1105" type="line"/>
      <point x="598" y="905" type="line"/>
      <point x="630" y="925"/>
      <point x="642" y="936"/>
    </contour>
  </outline>
</glyph>
<glyph name="Caron" format="2">
  <advance width="557"/>
  <unicode hex="02C7"/>
  <anchor x="422" y="1370" name="U"/>
  <outline>
    <contour>
      <point x="706" y="1401" type="line"/>
      <point x="694" y="1426"/>
      <point x="690" y="1432"/>
      <point x="674" y="1446" type="curve"/>
      <point x="401" y="1202" type="line"/>
      <point x="192" y="1446" type="line"/>
      <point x="172" y="1430"/>
      <point x="166" y="1426"/>
      <point x="147" y="1401" type="curve"/>
      <point x="334" y="1050" type="line"/>
      <point x="426" y="1050" type="line"/>
    </contour>
  </outline>
</glyph>
<glyph name="ModTriangularColon" format="2">
  <advance width="490"/>
  <unicode hex="02D0"/>
  <anchor x="163" y="-100" name="L"/>
  <anchor x="321" y="1050" name="U"/>
  <outline>
    <contour>
      <point x="165" y="906" type="line"/>
      <point x="210" y="808"/>
      <point x="241" y="704"/>
      <point x="262" y="595" type="curve"/>
      <point x="332" y="693"/>
      <point x="395" y="795"/>
      <point x="446" y="906" type="curve"/>
    </contour>
    <contour>
      <point x="321" y="0" type="line"/>
      <point x="282" y="98"/>
      <point x="252" y="202"/>
      <point x="223" y="311" type="curve"/>
      <point x="152" y="212"/>
      <point x="90" y="109"/>
      <point x="40" y="0" type="curve"/>
    </contour>
  </outline>
</glyph>
<glyph name="ModHalfTriangularColon" format="2">
  <advance width="490"/>
  <unicode hex="02D1"/>
  <outline>
    <contour>
      <point x="165" y="906" type="line"/>
      <point x="210" y="808"/>
      <point x="241" y="704"/>
      <point x="262" y="595" type="curve"/>
      <point x="332" y="693"/>
      <point x="395" y="795"/>
      <point x="446" y="906" type="curve"/>
    </contour>
  </outline>
</glyph>
<glyph name="ModCntrdRtHalfRing" format="2">
  <advance width="475"/>
  <unicode hex="02D2"/>
  <guideline x="330" y="418" angle="82.0425"/>
  <guideline x="416" y="418" angle="82.0425"/>
  <outline>
    <contour>
      <point x="126" y="661" type="curve"/>
      <point x="108" y="560" type="line"/>
      <point x="117" y="561"/>
      <point x="127" y="562"/>
      <point x="135" y="562" type="curve" smooth="yes"/>
      <point x="260" y="562"/>
      <point x="314" y="475"/>
      <point x="314" y="355" type="curve" smooth="yes"/>
      <point x="314" y="226"/>
      <point x="216" y="92"/>
      <point x="74" y="92" type="curve" smooth="yes"/>
      <point x="65" y="92"/>
      <point x="57" y="92"/>
      <point x="48" y="93" type="curve"/>
      <point x="30" y="-10" type="line"/>
      <point x="41" y="-11"/>
      <point x="52" y="-12"/>
      <point x="63" y="-12" type="curve" smooth="yes"/>
      <point x="269" y="-12"/>
      <point x="406" y="183"/>
      <point x="406" y="380" type="curve" smooth="yes"/>
      <point x="406" y="535"/>
      <point x="316" y="663"/>
      <point x="156" y="663" type="curve" smooth="yes"/>
      <point x="146" y="663"/>
      <point x="136" y="662"/>
    </contour>
  </outline>
</glyph>
<glyph name="ModCntrdLftHalfRing" format="2">
  <advance width="475"/>
  <unicode hex="02D3"/>
  <outline>
    <contour>
      <point x="304" y="-10" type="curve"/>
      <point x="322" y="91" type="line"/>
      <point x="313" y="90"/>
      <point x="304" y="90"/>
      <point x="295" y="90" type="curve" smooth="yes"/>
      <point x="180" y="90"/>
      <point x="115" y="168"/>
      <point x="115" y="288" type="curve" smooth="yes"/>
      <point x="115" y="435"/>
      <point x="210" y="559"/>
      <point x="354" y="559" type="curve" smooth="yes"/>
      <point x="363" y="559"/>
      <point x="373" y="558"/>
      <point x="382" y="557" type="curve"/>
      <point x="401" y="661" type="line"/>
      <point x="390" y="662"/>
      <point x="378" y="663"/>
      <point x="367" y="663" type="curve" smooth="yes"/>
      <point x="160" y="663"/>
      <point x="24" y="479"/>
      <point x="24" y="282" type="curve" smooth="yes"/>
      <point x="24" y="123"/>
      <point x="122" y="-11"/>
      <point x="276" y="-11" type="curve" smooth="yes"/>
      <point x="285" y="-11"/>
      <point x="295" y="-11"/>
    </contour>
  </outline>
</glyph>
<glyph name="ModPlusSgn" format="2">
  <advance width="574"/>
  <unicode hex="02D6"/>
  <outline>
    <contour>
      <point x="367" y="733" type="line"/>
      <point x="352" y="747" type="line"/>
      <point x="334" y="743"/>
      <point x="281" y="728"/>
      <point x="265" y="724" type="curve"/>
      <point x="193" y="291" type="line"/>
      <point x="207" y="278" type="line"/>
      <point x="226" y="282"/>
      <point x="278" y="295"/>
      <point x="295" y="303" type="curve"/>
    </contour>
    <contour>
      <point x="528" y="541" type="curve"/>
      <point x="516" y="556" type="line"/>
      <point x="65" y="556" type="line"/>
      <point x="56" y="540"/>
      <point x="36" y="499"/>
      <point x="29" y="483" type="curve"/>
      <point x="42" y="469" type="line"/>
      <point x="493" y="469" type="line"/>
      <point x="502" y="482"/>
      <point x="523" y="525"/>
    </contour>
  </outline>
</glyph>
<glyph name="RingAbv" format="2">
  <advance width="448"/>
  <unicode hex="02DA"/>
  <outline>
    <contour>
      <point x="474" y="1280" type="curve"/>
      <point x="474" y="1354"/>
      <point x="427" y="1409"/>
      <point x="357" y="1409" type="curve" smooth="yes"/>
      <point x="232" y="1409"/>
      <point x="132" y="1268"/>
      <point x="132" y="1149" type="curve" smooth="yes"/>
      <point x="132" y="1083"/>
      <point x="181" y="1026"/>
      <point x="251" y="1026" type="curve" smooth="yes"/>
      <point x="374" y="1026"/>
      <point x="474" y="1171"/>
    </contour>
    <contour>
      <point x="390" y="1243" type="curve"/>
      <point x="390" y="1179"/>
      <point x="351" y="1100"/>
      <point x="280" y="1100" type="curve" smooth="yes"/>
      <point x="239" y="1100"/>
      <point x="216" y="1143"/>
      <point x="216" y="1192" type="curve" smooth="yes"/>
      <point x="216" y="1255"/>
      <point x="255" y="1333"/>
      <point x="329" y="1333" type="curve" smooth="yes"/>
      <point x="370" y="1333"/>
      <point x="390" y="1290"/>
    </contour>
  </outline>
</glyph>
<glyph name="ModSmS" format="2">
  <advance width="498"/>
  <unicode hex="02E2"/>
  <anchor x="266" y="540" name="L"/>
  <anchor x="360" y="1216" name="U"/>
  <outline>
    <contour>
      <point x="221" y="583" type="curve" smooth="yes"/>
      <point x="353" y="583"/>
      <point x="499" y="670"/>
      <point x="499" y="781" type="curve" smooth="yes"/>
      <point x="499" y="866"/>
      <point x="416" y="914"/>
      <point x="339" y="946" type="curve" smooth="yes"/>
      <point x="264" y="977"/>
      <point x="236" y="1005"/>
      <point x="236" y="1033" type="curve" smooth="yes"/>
      <point x="236" y="1085"/>
      <point x="290" y="1109"/>
      <point x="332" y="1109" type="curve" smooth="yes"/>
      <point x="394" y="1109"/>
      <point x="421" y="1043"/>
      <point x="445" y="1043" type="curve" smooth="yes"/>
      <point x="458" y="1043"/>
      <point x="496" y="1078"/>
      <point x="534" y="1114" type="curve"/>
      <point x="495" y="1124"/>
      <point x="464" y="1170"/>
      <point x="369" y="1170" type="curve" smooth="yes"/>
      <point x="248" y="1170"/>
      <point x="121" y="1101"/>
      <point x="121" y="1000" type="curve" smooth="yes"/>
      <point x="121" y="948"/>
      <point x="154" y="901"/>
      <point x="253" y="862" type="curve" smooth="yes"/>
      <point x="323" y="833"/>
      <point x="383" y="799"/>
      <point x="383" y="742" type="curve" smooth="yes"/>
      <point x="383" y="687"/>
      <point x="333" y="651"/>
      <point x="277" y="651" type="curve" smooth="yes"/>
      <point x="154" y="651"/>
      <point x="132" y="752"/>
      <point x="114" y="752" type="curve" smooth="yes"/>
      <point x="94" y="752"/>
      <point x="42" y="684"/>
      <point x="42" y="667" type="curve" smooth="yes"/>
      <point x="42" y="633"/>
      <point x="134" y="583"/>
    </contour>
  </outline>
</glyph>
<glyph name="ModYinDepartingTnMrk" format="2">
  <advance width="800"/>
  <unicode hex="02EA"/>
  <outline>
    <contour>
      <point x="450" y="244" type="curve"/>
      <point x="432" y="271" type="line"/>
      <point x="96" y="271" type="line"/>
      <point x="79" y="244"/>
      <point x="71" y="232"/>
      <point x="60" y="206" type="curve"/>
      <point x="78" y="182" type="line"/>
      <point x="417" y="182" type="line"/>
      <point x="431" y="204"/>
      <point x="439" y="219"/>
    </contour>
    <contour>
      <point x="153" y="217" type="curve"/>
      <point x="221" y="696" type="line"/>
      <point x="198" y="724" type="line"/>
      <point x="170" y="715"/>
      <point x="155" y="704"/>
      <point x="129" y="690" type="curve"/>
      <point x="60" y="206" type="line"/>
      <point x="81" y="191" type="line"/>
      <point x="110" y="200"/>
      <point x="122" y="198"/>
    </contour>
  </outline>
</glyph>
<glyph name="ModVoicing" format="2">
  <advance width="568"/>
  <unicode hex="02EC"/>
  <anchor x="204" y="-600" name="L"/>
  <outline>
    <contour>
      <point x="539" y="-179" type="line"/>
      <point x="527" y="-154"/>
      <point x="523" y="-148"/>
      <point x="507" y="-134" type="curve"/>
      <point x="240" y="-338" type="line"/>
      <point x="25" y="-134" type="line"/>
      <point x="5" y="-150"/>
      <point x="-1" y="-154"/>
      <point x="-20" y="-179" type="curve"/>
      <point x="173" y="-480" type="line"/>
      <point x="265" y="-480" type="line"/>
    </contour>
  </outline>
</glyph>
<glyph name="ModMiddleDblAcuteAccent" format="2">
  <advance width="749"/>
  <unicode hex="02F6"/>
  <outline>
    <contour>
      <point x="702" y="854" type="line"/>
      <point x="686" y="895" type="line"/>
      <point x="666" y="905"/>
      <point x="614" y="916"/>
      <point x="588" y="920" type="curve"/>
      <point x="376" y="513" type="line"/>
      <point x="394" y="497"/>
      <point x="403" y="489"/>
      <point x="423" y="487" type="curve"/>
    </contour>
    <contour>
      <point x="446" y="854" type="line"/>
      <point x="430" y="895" type="line"/>
      <point x="410" y="905"/>
      <point x="358" y="916"/>
      <point x="332" y="920" type="curve"/>
      <point x="120" y="513" type="line"/>
      <point x="138" y="497"/>
      <point x="147" y="489"/>
      <point x="167" y="487" type="curve"/>
    </contour>
  </outline>
</glyph>
<glyph name="ModEndHighTn" format="2">
  <advance width="631"/>
  <unicode hex="02FA"/>
  <outline>
    <contour>
      <point x="51" y="1240" type="line"/>
      <point x="51" y="1153" type="line"/>
      <point x="495" y="1153" type="line"/>
      <point x="495" y="586" type="line"/>
      <point x="582" y="586" type="line"/>
      <point x="582" y="1240" type="line"/>
    </contour>
  </outline>
</glyph>
<glyph name="ModBeginLowTn" format="2">
  <advance width="631"/>
  <unicode hex="02FB"/>
  <outline>
    <contour>
      <point x="583" y="-304" type="line"/>
      <point x="583" y="-217" type="line"/>
      <point x="139" y="-217" type="line"/>
      <point x="139" y="350" type="line"/>
      <point x="52" y="350" type="line"/>
      <point x="52" y="-304" type="line"/>
    </contour>
  </outline>
</glyph>
<glyph name="CombGrave" format="2">
  <unicode hex="0300"/>
  <anchor x="-225" y="1370" name="U"/>
  <anchor x="-275" y="1000" name="_U"/>
  <outline>
    <contour>
      <point x="-205" y="1047" type="curve"/>
      <point x="-344" y="1459" type="line"/>
      <point x="-378" y="1459"/>
      <point x="-453" y="1454"/>
      <point x="-485" y="1448" type="curve"/>
      <point x="-517" y="1412" type="line"/>
      <point x="-267" y="1026" type="line"/>
      <point x="-243" y="1027"/>
      <point x="-232" y="1031"/>
    </contour>
  </outline>
</glyph>
<glyph name="CombTilde" format="2">
  <unicode hex="0303"/>
  <anchor x="-302" y="1403" name="U"/>
  <anchor x="-355" y="1000" name="_U"/>
  <outline>
    <contour>
      <point x="-4" y="1326" type="curve"/>
      <point x="-49" y="1346" type="line"/>
      <point x="-99" y="1272"/>
      <point x="-152" y="1227"/>
      <point x="-199" y="1227" type="curve" smooth="yes"/>
      <point x="-254" y="1227"/>
      <point x="-310" y="1336"/>
      <point x="-398" y="1336" type="curve" smooth="yes"/>
      <point x="-500" y="1336"/>
      <point x="-590" y="1221"/>
      <point x="-645" y="1115" type="curve"/>
      <point x="-602" y="1094" type="line"/>
      <point x="-547" y="1168"/>
      <point x="-500" y="1213"/>
      <point x="-453" y="1213" type="curve" smooth="yes"/>
      <point x="-383" y="1213"/>
      <point x="-334" y="1104"/>
      <point x="-250" y="1104" type="curve" smooth="yes"/>
      <point x="-146" y="1104"/>
      <point x="-60" y="1219"/>
    </contour>
  </outline>
</glyph>
<glyph name="CombDotAbv" format="2">
  <unicode hex="0307"/>
  <anchor x="-307" y="1353" name="U"/>
  <anchor x="-356" y="1000" name="_U"/>
  <outline>
    <contour>
      <point x="-232" y="1262" type="curve"/>
      <point x="-232" y="1307"/>
      <point x="-256" y="1333"/>
      <point x="-297" y="1333" type="curve" smooth="yes"/>
      <point x="-371" y="1333"/>
      <point x="-420" y="1247"/>
      <point x="-420" y="1176" type="curve" smooth="yes"/>
      <point x="-420" y="1131"/>
      <point x="-396" y="1106"/>
      <point x="-355" y="1106" type="curve" smooth="yes"/>
      <point x="-279" y="1106"/>
      <point x="-232" y="1188"/>
    </contour>
  </outline>
</glyph>
<glyph name="CombRingAbv" format="2">
  <unicode hex="030A"/>
  <anchor x="-300" y="1420" name="U"/>
  <anchor x="-354" y="1000" name="_U"/>
  <outline>
    <contour>
      <point x="-154" y="1280" type="curve"/>
      <point x="-154" y="1354"/>
      <point x="-201" y="1409"/>
      <point x="-271" y="1409" type="curve" smooth="yes"/>
      <point x="-396" y="1409"/>
      <point x="-496" y="1268"/>
      <point x="-496" y="1149" type="curve" smooth="yes"/>
      <point x="-496" y="1083"/>
      <point x="-447" y="1026"/>
      <point x="-377" y="1026" type="curve" smooth="yes"/>
      <point x="-254" y="1026"/>
      <point x="-154" y="1171"/>
    </contour>
    <contour>
      <point x="-238" y="1243" type="curve"/>
      <point x="-238" y="1179"/>
      <point x="-277" y="1100"/>
      <point x="-348" y="1100" type="curve" smooth="yes"/>
      <point x="-389" y="1100"/>
      <point x="-412" y="1143"/>
      <point x="-412" y="1192" type="curve" smooth="yes"/>
      <point x="-412" y="1255"/>
      <point x="-373" y="1333"/>
      <point x="-299" y="1333" type="curve" smooth="yes"/>
      <point x="-258" y="1333"/>
      <point x="-238" y="1290"/>
    </contour>
  </outline>
</glyph>
<glyph name="CombDblGrave" format="2">
  <unicode hex="030F"/>
  <anchor x="-272" y="1496" name="U"/>
  <anchor x="-358" y="1000" name="_U"/>
  <outline>
    <contour>
      <point x="-484" y="1026" type="line"/>
      <point x="-464" y="1028"/>
      <point x="-453" y="1036"/>
      <point x="-431" y="1052" type="curve"/>
      <point x="-533" y="1459" type="line"/>
      <point x="-559" y="1455"/>
      <point x="-615" y="1447"/>
      <point x="-637" y="1434" type="curve"/>
      <point x="-665" y="1393" type="line"/>
    </contour>
    <contour>
      <point x="-228" y="1026" type="line"/>
      <point x="-208" y="1028"/>
      <point x="-198" y="1036"/>
      <point x="-176" y="1052" type="curve"/>
      <point x="-277" y="1459" type="line"/>
      <point x="-303" y="1455"/>
      <point x="-359" y="1447"/>
      <point x="-381" y="1434" type="curve"/>
      <point x="-409" y="1393" type="line"/>
    </contour>
  </outline>
</glyph>
<glyph name="CombCandrabindu" format="2">
  <unicode hex="0310"/>
  <anchor x="-266" y="1640" name="U"/>
  <anchor x="-354" y="1000" name="_U"/>
  <outline>
    <contour>
      <point x="-20" y="1335" type="curve"/>
      <point x="-33" y="1360"/>
      <point x="-45" y="1368"/>
      <point x="-63" y="1378" type="curve"/>
      <point x="-139" y="1231"/>
      <point x="-250" y="1179"/>
      <point x="-334" y="1179" type="curve" smooth="yes"/>
      <point x="-410" y="1179"/>
      <point x="-506" y="1231"/>
      <point x="-543" y="1378" type="curve"/>
      <point x="-563" y="1368"/>
      <point x="-580" y="1358"/>
      <point x="-598" y="1335" type="curve"/>
      <point x="-553" y="1122"/>
      <point x="-463" y="1050"/>
      <point x="-346" y="1050" type="curve" smooth="yes"/>
      <point x="-240" y="1050"/>
      <point x="-119" y="1120"/>
    </contour>
    <contour>
      <point x="-219" y="1424" type="curve"/>
      <point x="-219" y="1463"/>
      <point x="-240" y="1486"/>
      <point x="-275" y="1486" type="curve" smooth="yes"/>
      <point x="-339" y="1486"/>
      <point x="-382" y="1411"/>
      <point x="-382" y="1350" type="curve" smooth="yes"/>
      <point x="-382" y="1311"/>
      <point x="-361" y="1289"/>
      <point x="-326" y="1289" type="curve" smooth="yes"/>
      <point x="-260" y="1289"/>
      <point x="-219" y="1360"/>
    </contour>
  </outline>
</glyph>
<glyph name="CombTrndCommaAbv" format="2">
  <unicode hex="0312"/>
  <anchor x="-314" y="1320" name="U"/>
  <anchor x="-358" y="1000" name="_U"/>
  <outline>
    <contour>
      <point x="-432" y="1203" type="curve"/>
      <point x="-445" y="1137"/>
      <point x="-436" y="1069"/>
      <point x="-376" y="1039" type="curve"/>
      <point x="-339" y="1035"/>
      <point x="-206" y="1078"/>
      <point x="-183" y="1104" type="curve"/>
      <point x="-188" y="1144" type="line"/>
      <point x="-282" y="1144"/>
      <point x="-309" y="1204"/>
      <point x="-295" y="1273" type="curve" smooth="yes"/>
      <point x="-282" y="1332"/>
      <point x="-249" y="1383"/>
      <point x="-192" y="1433" type="curve"/>
      <point x="-222" y="1464" type="line"/>
      <point x="-336" y="1401"/>
      <point x="-412" y="1292"/>
    </contour>
  </outline>
</glyph>
<glyph name="CombCommaAbv" format="2">
  <unicode hex="0313"/>
  <anchor x="-307" y="1353" name="U"/>
  <anchor x="-356" y="1000" name="_U"/>
  <outline>
    <contour>
      <point x="-164" y="1290" type="curve"/>
      <point x="-151" y="1356"/>
      <point x="-160" y="1424"/>
      <point x="-220" y="1454" type="curve"/>
      <point x="-257" y="1458"/>
      <point x="-390" y="1415"/>
      <point x="-413" y="1389" type="curve"/>
      <point x="-408" y="1349" type="line"/>
      <point x="-314" y="1349"/>
      <point x="-287" y="1289"/>
      <point x="-301" y="1220" type="curve" smooth="yes"/>
      <point x="-314" y="1161"/>
      <point x="-347" y="1110"/>
      <point x="-404" y="1060" type="curve"/>
      <point x="-374" y="1029" type="line"/>
      <point x="-260" y="1092"/>
      <point x="-184" y="1201"/>
    </contour>
  </outline>
</glyph>
<glyph name="CombGraveBlw" format="2">
  <unicode hex="0316"/>
  <anchor x="-583" y="-600" name="L"/>
  <anchor x="-515" y="-100" name="_L"/>
  <outline>
    <contour>
      <point x="-367" y="-456" type="curve"/>
      <point x="-680" y="-141" type="line"/>
      <point x="-711" y="-157"/>
      <point x="-778" y="-192"/>
      <point x="-803" y="-212" type="curve"/>
      <point x="-815" y="-259" type="line"/>
      <point x="-414" y="-503" type="line"/>
      <point x="-393" y="-491"/>
      <point x="-385" y="-483"/>
    </contour>
  </outline>
</glyph>
<glyph name="CombAcuteBlw" format="2">
  <unicode hex="0317"/>
  <anchor x="-543" y="-600" name="L"/>
  <anchor x="-467" y="-100" name="_L"/>
  <outline>
    <contour>
      <point x="-269" y="-212" type="line"/>
      <point x="-286" y="-192"/>
      <point x="-343" y="-157"/>
      <point x="-366" y="-141" type="curve"/>
      <point x="-757" y="-456" type="line"/>
      <point x="-745" y="-483"/>
      <point x="-743" y="-491"/>
      <point x="-724" y="-503" type="curve"/>
      <point x="-269" y="-259" type="line"/>
    </contour>
  </outline>
</glyph>
<glyph name="CombLftTackBlw" format="2">
  <unicode hex="0318"/>
  <anchor x="-575" y="-600" name="L"/>
  <anchor x="-507" y="-100" name="_L"/>
  <outline>
    <contour>
      <point x="-394" y="-284" type="curve"/>
      <point x="-412" y="-258" type="line"/>
      <point x="-655" y="-258" type="line"/>
      <point x="-671" y="-284"/>
      <point x="-678" y="-293"/>
      <point x="-689" y="-320" type="curve"/>
      <point x="-672" y="-343" type="line"/>
      <point x="-426" y="-343" type="line"/>
      <point x="-412" y="-322"/>
      <point x="-404" y="-310"/>
    </contour>
    <contour>
      <point x="-407" y="-470" type="curve"/>
      <point x="-361" y="-124" type="line"/>
      <point x="-382" y="-100" type="line"/>
      <point x="-406" y="-109"/>
      <point x="-423" y="-117"/>
      <point x="-446" y="-132" type="curve"/>
      <point x="-492" y="-478" type="line"/>
      <point x="-472" y="-500" type="line"/>
      <point x="-449" y="-492"/>
      <point x="-433" y="-485"/>
    </contour>
  </outline>
</glyph>
<glyph name="CombRetrHook" format="2">
  <unicode hex="0322"/>
  <outline>
    <contour>
      <point x="202" y="-238" type="curve"/>
      <point x="190" y="-200" type="line"/>
      <point x="155" y="-194"/>
      <point x="18" y="-256"/>
      <point x="25" y="-267" type="curve" smooth="yes"/>
      <point x="32" y="-279"/>
      <point x="36" y="-294"/>
      <point x="36" y="-310" type="curve" smooth="yes"/>
      <point x="36" y="-355"/>
      <point x="7" y="-406"/>
      <point x="-44" y="-406" type="curve" smooth="yes"/>
      <point x="-88" y="-406"/>
      <point x="-111" y="-381"/>
      <point x="-111" y="-301" type="curve" smooth="yes"/>
      <point x="-111" y="-274"/>
      <point x="-109" y="-241"/>
      <point x="-103" y="-200" type="curve" smooth="yes"/>
      <point x="-81" y="-41" type="line" smooth="yes"/>
      <point x="-75" y="6"/>
      <point x="-59" y="52"/>
      <point x="-39" y="72" type="curve"/>
      <point x="-41" y="74"/>
      <point x="-45" y="76"/>
      <point x="-49" y="76" type="curve" smooth="yes"/>
      <point x="-69" y="76"/>
      <point x="-105" y="49"/>
      <point x="-135" y="36" type="curve"/>
      <point x="-152" y="6"/>
      <point x="-161" y="-37"/>
      <point x="-166" y="-74" type="curve" smooth="yes"/>
      <point x="-189" y="-250" type="line" smooth="yes"/>
      <point x="-193" y="-277"/>
      <point x="-194" y="-302"/>
      <point x="-194" y="-324" type="curve" smooth="yes"/>
      <point x="-194" y="-445"/>
      <point x="-143" y="-500"/>
      <point x="-50" y="-500" type="curve" smooth="yes"/>
      <point x="97" y="-500"/>
      <point x="195" y="-338"/>
    </contour>
  </outline>
</glyph>
<glyph name="CombCedilla" format="2">
  <unicode hex="0327"/>
  <anchor x="-569" y="-600" name="L"/>
  <anchor x="-487" y="0" name="_H"/>
  <outline>
    <contour>
      <point x="-364" y="-221" type="curve"/>
      <point x="-364" y="-156"/>
      <point x="-411" y="-115"/>
      <point x="-479" y="-113" type="curve"/>
      <point x="-469" y="-80"/>
      <point x="-453" y="-5"/>
      <point x="-442" y="50" type="curve"/>
      <point x="-510" y="52" type="line"/>
      <point x="-523" y="-24"/>
      <point x="-547" y="-115"/>
      <point x="-584" y="-215" type="curve"/>
      <point x="-522" y="-213"/>
      <point x="-491" y="-233"/>
      <point x="-491" y="-268" type="curve" smooth="yes"/>
      <point x="-491" y="-332"/>
      <point x="-571" y="-401"/>
      <point x="-710" y="-336" type="curve"/>
      <point x="-708" y="-375" type="line"/>
      <point x="-547" y="-469"/>
      <point x="-364" y="-362"/>
    </contour>
  </outline>
</glyph>
<glyph name="CombVertLineBlw" format="2">
  <unicode hex="0329"/>
  <anchor x="-577" y="-600" name="L"/>
  <anchor x="-508" y="-100" name="_L"/>
  <outline>
    <contour>
      <point x="-511" y="-470" type="curve"/>
      <point x="-464" y="-133" type="line"/>
      <point x="-484" y="-110" type="line"/>
      <point x="-508" y="-115"/>
      <point x="-541" y="-129"/>
      <point x="-564" y="-139" type="curve"/>
      <point x="-611" y="-479" type="line"/>
      <point x="-591" y="-500" type="line"/>
      <point x="-567" y="-494"/>
      <point x="-536" y="-483"/>
    </contour>
  </outline>
</glyph>
<glyph name="CombInvDblArchBlw" format="2">
  <unicode hex="032B"/>
  <anchor x="-556" y="-600" name="L"/>
  <anchor x="-486" y="-100" name="_L"/>
  <outline>
    <contour>
      <point x="-385" y="-480" type="curve" smooth="yes"/>
      <point x="-287" y="-480"/>
      <point x="-228" y="-383"/>
      <point x="-228" y="-269" type="curve" smooth="yes"/>
      <point x="-228" y="-228"/>
      <point x="-239" y="-182"/>
      <point x="-266" y="-133" type="curve"/>
      <point x="-275" y="-137"/>
      <point x="-306" y="-151"/>
      <point x="-317" y="-156" type="curve"/>
      <point x="-310" y="-183"/>
      <point x="-307" y="-211"/>
      <point x="-307" y="-237" type="curve" smooth="yes"/>
      <point x="-307" y="-286"/>
      <point x="-326" y="-380"/>
      <point x="-399" y="-380" type="curve" smooth="yes"/>
      <point x="-436" y="-380"/>
      <point x="-472" y="-350"/>
      <point x="-472" y="-291" type="curve" smooth="yes"/>
      <point x="-472" y="-274"/>
      <point x="-469" y="-258"/>
      <point x="-464" y="-241" type="curve"/>
      <point x="-467" y="-235"/>
      <point x="-475" y="-221"/>
      <point x="-479" y="-215" type="curve"/>
      <point x="-498" y="-221"/>
      <point x="-534" y="-234"/>
      <point x="-549" y="-241" type="curve"/>
      <point x="-549" y="-244"/>
      <point x="-549" y="-247"/>
      <point x="-549" y="-250" type="curve" smooth="yes"/>
      <point x="-549" y="-321"/>
      <point x="-596" y="-380"/>
      <point x="-653" y="-380" type="curve" smooth="yes"/>
      <point x="-691" y="-380"/>
      <point x="-711" y="-345"/>
      <point x="-711" y="-294" type="curve" smooth="yes"/>
      <point x="-711" y="-248"/>
      <point x="-696" y="-203"/>
      <point x="-672" y="-156" type="curve"/>
      <point x="-682" y="-150"/>
      <point x="-708" y="-136"/>
      <point x="-716" y="-133" type="curve"/>
      <point x="-769" y="-199"/>
      <point x="-801" y="-246"/>
      <point x="-801" y="-324" type="curve" smooth="yes"/>
      <point x="-801" y="-420"/>
      <point x="-741" y="-480"/>
      <point x="-679" y="-480" type="curve" smooth="yes"/>
      <point x="-619" y="-480"/>
      <point x="-564" y="-427"/>
      <point x="-522" y="-355" type="curve"/>
      <point x="-496" y="-427"/>
      <point x="-439" y="-480"/>
    </contour>
  </outline>
</glyph>
<glyph name="CombCaronBlw" format="2">
  <unicode hex="032C"/>
  <anchor x="-579" y="-600" name="L"/>
  <anchor x="-511" y="-100" name="_L"/>
  <outline>
    <contour>
      <point x="-243" y="-179" type="line"/>
      <point x="-255" y="-154"/>
      <point x="-259" y="-148"/>
      <point x="-275" y="-134" type="curve"/>
      <point x="-542" y="-338" type="line"/>
      <point x="-757" y="-134" type="line"/>
      <point x="-777" y="-150"/>
      <point x="-783" y="-154"/>
      <point x="-802" y="-179" type="curve"/>
      <point x="-609" y="-480" type="line"/>
      <point x="-517" y="-480" type="line"/>
    </contour>
  </outline>
</glyph>
<glyph name="CombBreveBlw" format="2">
  <unicode hex="032E"/>
  <anchor x="-582" y="-600" name="L"/>
  <anchor x="-513" y="-100" name="_L"/>
  <outline>
    <contour>
      <point x="-238" y="-195" type="curve"/>
      <point x="-251" y="-170"/>
      <point x="-263" y="-162"/>
      <point x="-281" y="-152" type="curve"/>
      <point x="-357" y="-299"/>
      <point x="-468" y="-351"/>
      <point x="-552" y="-351" type="curve" smooth="yes"/>
      <point x="-628" y="-351"/>
      <point x="-724" y="-299"/>
      <point x="-761" y="-152" type="curve"/>
      <point x="-781" y="-162"/>
      <point x="-798" y="-172"/>
      <point x="-816" y="-195" type="curve"/>
      <point x="-771" y="-408"/>
      <point x="-681" y="-480"/>
      <point x="-564" y="-480" type="curve" smooth="yes"/>
      <point x="-458" y="-480"/>
      <point x="-337" y="-410"/>
    </contour>
  </outline>
</glyph>
<glyph name="CombLowLine" format="2">
  <unicode hex="0332"/>
  <anchor x="-572" y="-600" name="L"/>
  <anchor x="-503" y="-100" name="_L"/>
  <outline>
    <contour>
      <point x="-30" y="-235" type="curve"/>
      <point x="-49" y="-210" type="line"/>
      <point x="-976" y="-210" type="line"/>
      <point x="-991" y="-237"/>
      <point x="-1015" y="-285"/>
      <point x="-1025" y="-312" type="curve"/>
      <point x="-1009" y="-336" type="line"/>
      <point x="-80" y="-336" type="line"/>
      <point x="-67" y="-314"/>
      <point x="-39" y="-264"/>
    </contour>
  </outline>
</glyph>
<glyph name="CombDblLowLine" format="2">
  <unicode hex="0333"/>
  <anchor x="-578" y="-600" name="L"/>
  <anchor x="-510" y="-100" name="_L"/>
  <outline>
    <contour>
      <point x="-72" y="-485" type="curve"/>
      <point x="-91" y="-460" type="line"/>
      <point x="-1018" y="-460" type="line"/>
      <point x="-1033" y="-487"/>
      <point x="-1057" y="-535"/>
      <point x="-1067" y="-562" type="curve"/>
      <point x="-1051" y="-586" type="line"/>
      <point x="-122" y="-586" type="line"/>
      <point x="-109" y="-564"/>
      <point x="-81" y="-514"/>
    </contour>
    <contour>
      <point x="-36" y="-235" type="curve"/>
      <point x="-55" y="-210" type="line"/>
      <point x="-982" y="-210" type="line"/>
      <point x="-997" y="-237"/>
      <point x="-1021" y="-285"/>
      <point x="-1031" y="-312" type="curve"/>
      <point x="-1015" y="-336" type="line"/>
      <point x="-86" y="-336" type="line"/>
      <point x="-73" y="-314"/>
      <point x="-45" y="-264"/>
    </contour>
  </outline>
</glyph>
<glyph name="CombLngStrkOverlay" format="2">
  <unicode hex="0336"/>
  <outline>
    <contour>
      <point x="44" y="485" type="curve"/>
      <point x="25" y="510" type="line"/>
      <point x="-877" y="510" type="line"/>
      <point x="-889" y="489"/>
      <point x="-899" y="463"/>
      <point x="-908" y="442" type="curve"/>
      <point x="-889" y="420" type="line"/>
      <point x="13" y="420" type="line"/>
      <point x="23" y="442"/>
      <point x="34" y="463"/>
    </contour>
  </outline>
</glyph>
<glyph name="CombSqrBlw" format="2">
  <unicode hex="033B"/>
  <anchor x="-577" y="-600" name="L"/>
  <anchor x="-508" y="-100" name="_L"/>
  <outline>
    <contour>
      <point x="-264" y="-173" type="line"/>
      <point x="-281" y="-150" type="line"/>
      <point x="-716" y="-150" type="line"/>
      <point x="-741" y="-164"/>
      <point x="-760" y="-181"/>
      <point x="-778" y="-199" type="curve"/>
      <point x="-813" y="-457" type="line"/>
      <point x="-796" y="-480" type="line"/>
      <point x="-361" y="-480" type="line"/>
      <point x="-336" y="-466"/>
      <point x="-317" y="-449"/>
      <point x="-299" y="-431" type="curve"/>
    </contour>
    <contour>
      <point x="-357" y="-230" type="line"/>
      <point x="-380" y="-400" type="line"/>
      <point x="-720" y="-400" type="line"/>
      <point x="-697" y="-230" type="line"/>
    </contour>
  </outline>
</glyph>
<glyph name="CombLftAngBlw" format="2">
  <unicode hex="0349"/>
  <anchor x="-583" y="-600" name="L"/>
  <anchor x="-515" y="-100" name="_L"/>
  <outline>
    <contour>
      <point x="-379" y="-196" type="curve"/>
      <point x="-397" y="-170" type="line"/>
      <point x="-653" y="-170" type="line"/>
      <point x="-669" y="-196"/>
      <point x="-676" y="-205"/>
      <point x="-687" y="-232" type="curve"/>
      <point x="-670" y="-255" type="line"/>
      <point x="-411" y="-255" type="line"/>
      <point x="-397" y="-234"/>
      <point x="-389" y="-222"/>
    </contour>
    <contour>
      <point x="-412" y="-460" type="curve"/>
      <point x="-376" y="-194" type="line"/>
      <point x="-397" y="-170" type="line"/>
      <point x="-421" y="-179"/>
      <point x="-438" y="-187"/>
      <point x="-461" y="-202" type="curve"/>
      <point x="-497" y="-468" type="line"/>
      <point x="-477" y="-490" type="line"/>
      <point x="-454" y="-482"/>
      <point x="-438" y="-475"/>
    </contour>
  </outline>
</glyph>
<glyph name="CombAlmostEqToAbv" format="2">
  <unicode hex="034C"/>
  <anchor x="-309" y="1320" name="U"/>
  <anchor x="-353" y="1000" name="_U"/>
  <outline>
    <contour>
      <point x="-63" y="1184" type="curve"/>
      <point x="-88" y="1216" type="line"/>
      <point x="-156" y="1150"/>
      <point x="-181" y="1145"/>
      <point x="-226" y="1145" type="curve" smooth="yes"/>
      <point x="-282" y="1145"/>
      <point x="-324" y="1216"/>
      <point x="-404" y="1216" type="curve" smooth="yes"/>
      <point x="-470" y="1216"/>
      <point x="-546" y="1168"/>
      <point x="-606" y="1091" type="curve"/>
      <point x="-582" y="1061" type="line"/>
      <point x="-512" y="1129"/>
      <point x="-493" y="1133"/>
      <point x="-446" y="1133" type="curve" smooth="yes"/>
      <point x="-377" y="1133"/>
      <point x="-337" y="1061"/>
      <point x="-265" y="1061" type="curve" smooth="yes"/>
      <point x="-200" y="1061"/>
      <point x="-124" y="1107"/>
    </contour>
    <contour>
      <point x="-37" y="1380" type="curve"/>
      <point x="-61" y="1412" type="line"/>
      <point x="-129" y="1346"/>
      <point x="-155" y="1341"/>
      <point x="-200" y="1341" type="curve" smooth="yes"/>
      <point x="-256" y="1341"/>
      <point x="-298" y="1412"/>
      <point x="-378" y="1412" type="curve" smooth="yes"/>
      <point x="-444" y="1412"/>
      <point x="-519" y="1364"/>
      <point x="-580" y="1287" type="curve"/>
      <point x="-555" y="1257" type="line"/>
      <point x="-485" y="1325"/>
      <point x="-466" y="1329"/>
      <point x="-419" y="1329" type="curve" smooth="yes"/>
      <point x="-351" y="1329"/>
      <point x="-310" y="1257"/>
      <point x="-239" y="1257" type="curve" smooth="yes"/>
      <point x="-173" y="1257"/>
      <point x="-97" y="1303"/>
    </contour>
  </outline>
</glyph>
<glyph name="CombRtArrwhdUpArrwhdBlw" format="2">
  <unicode hex="0356"/>
  <anchor x="-579" y="-600" name="L"/>
  <anchor x="-511" y="-100" name="_L"/>
  <outline>
    <contour>
      <point x="-447" y="-341" type="curve"/>
      <point x="-461" y="-321" type="line"/>
      <point x="-916" y="-121" type="line"/>
      <point x="-935" y="-137"/>
      <point x="-958" y="-154"/>
      <point x="-983" y="-173" type="curve"/>
      <point x="-976" y="-205" type="line"/>
      <point x="-482" y="-421" type="line"/>
      <point x="-470" y="-400"/>
      <point x="-456" y="-364"/>
    </contour>
    <contour>
      <point x="-447" y="-341" type="curve"/>
      <point x="-461" y="-321" type="line"/>
      <point x="-1012" y="-537" type="line"/>
      <point x="-1022" y="-556"/>
      <point x="-1036" y="-595"/>
      <point x="-1045" y="-616" type="curve"/>
      <point x="-1030" y="-636" type="line"/>
      <point x="-482" y="-421" type="line"/>
      <point x="-470" y="-400"/>
      <point x="-456" y="-364"/>
    </contour>
    <contour>
      <point x="-222" y="-122" type="line"/>
      <point x="-245" y="-133"/>
      <point x="-285" y="-158"/>
      <point x="-307" y="-178" type="curve"/>
      <point x="-577" y="-655" type="line"/>
      <point x="-566" y="-672" type="line"/>
      <point x="-549" y="-665"/>
      <point x="-498" y="-644"/>
      <point x="-479" y="-627" type="curve"/>
      <point x="-287" y="-282" type="line"/>
      <point x="-168" y="-655" type="line"/>
      <point x="-149" y="-672" type="line"/>
      <point x="-122" y="-661"/>
      <point x="-89" y="-643"/>
      <point x="-69" y="-627" type="curve"/>
    </contour>
  </outline>
</glyph>
<glyph name="CombRtDotAbv" format="2">
  <advance width="188"/>
  <unicode hex="0358"/>
  <anchor x="123" y="870" name="R_"/>
  <anchor x="287" y="1320" name="U"/>
  <outline>
    <contour>
      <point x="358" y="1262" type="curve" smooth="yes"/>
      <point x="358" y="1307"/>
      <point x="334" y="1333"/>
      <point x="293" y="1333" type="curve" smooth="yes"/>
      <point x="219" y="1333"/>
      <point x="170" y="1247"/>
      <point x="170" y="1176" type="curve" smooth="yes"/>
      <point x="170" y="1131"/>
      <point x="194" y="1106"/>
      <point x="235" y="1106" type="curve" smooth="yes"/>
      <point x="311" y="1106"/>
      <point x="358" y="1188"/>
    </contour>
  </outline>
</glyph>
<glyph name="CombDblBreve" format="2">
  <unicode hex="035D"/>
  <anchor x="210" y="1930" name="U"/>
  <outline>
    <contour>
      <point x="941" y="1864" type="curve"/>
      <point x="920" y="1888"/>
      <point x="908" y="1898"/>
      <point x="875" y="1908" type="curve"/>
      <point x="722" y="1759"/>
      <point x="441" y="1709"/>
      <point x="171" y="1709" type="curve" smooth="yes"/>
      <point x="-88" y="1709"/>
      <point x="-357" y="1759"/>
      <point x="-470" y="1908" type="curve"/>
      <point x="-506" y="1898"/>
      <point x="-521" y="1888"/>
      <point x="-548" y="1864" type="curve"/>
      <point x="-421" y="1653"/>
      <point x="-148" y="1570"/>
      <point x="160" y="1570" type="curve" smooth="yes"/>
      <point x="449" y="1570"/>
      <point x="756" y="1653"/>
    </contour>
  </outline>
</glyph>
<glyph name="CombDblMacronBlw" format="2">
  <unicode hex="035F"/>
  <anchor x="-134" y="-800" name="L"/>
  <anchor x="80" y="1050" name="U"/>
  <outline>
    <contour>
      <point x="624" y="-565" type="curve"/>
      <point x="605" y="-540" type="line"/>
      <point x="-812" y="-540" type="line"/>
      <point x="-827" y="-567"/>
      <point x="-851" y="-615"/>
      <point x="-861" y="-642" type="curve"/>
      <point x="-845" y="-666" type="line"/>
      <point x="574" y="-666" type="line"/>
      <point x="587" y="-644"/>
      <point x="615" y="-594"/>
    </contour>
  </outline>
</glyph>
<glyph name="CombDblTilde" format="2">
  <unicode hex="0360"/>
  <anchor x="-60" y="-490" name="L"/>
  <anchor x="210" y="1930" name="U"/>
  <outline>
    <contour>
      <point x="859" y="1787" type="curve"/>
      <point x="806" y="1829" type="line"/>
      <point x="723" y="1733"/>
      <point x="600" y="1689"/>
      <point x="462" y="1689" type="curve" smooth="yes"/>
      <point x="332" y="1689"/>
      <point x="140" y="1829"/>
      <point x="-47" y="1829" type="curve" smooth="yes"/>
      <point x="-258" y="1829"/>
      <point x="-441" y="1722"/>
      <point x="-530" y="1606" type="curve"/>
      <point x="-480" y="1567" type="line"/>
      <point x="-391" y="1659"/>
      <point x="-279" y="1707"/>
      <point x="-138" y="1707" type="curve" smooth="yes"/>
      <point x="13" y="1707"/>
      <point x="200" y="1567"/>
      <point x="373" y="1567" type="curve" smooth="yes"/>
      <point x="585" y="1567"/>
      <point x="770" y="1671"/>
    </contour>
  </outline>
</glyph>
<glyph name="CombDblInvBreve" format="2">
  <unicode hex="0361"/>
  <anchor x="-20" y="-100" name="L"/>
  <anchor x="210" y="1930" name="U"/>
  <outline>
    <contour>
      <point x="-513" y="1611" type="curve"/>
      <point x="-492" y="1587"/>
      <point x="-480" y="1577"/>
      <point x="-447" y="1567" type="curve"/>
      <point x="-294" y="1716"/>
      <point x="-83" y="1766"/>
      <point x="187" y="1766" type="curve" smooth="yes"/>
      <point x="446" y="1766"/>
      <point x="645" y="1716"/>
      <point x="758" y="1567" type="curve"/>
      <point x="794" y="1577"/>
      <point x="809" y="1587"/>
      <point x="836" y="1611" type="curve"/>
      <point x="709" y="1822"/>
      <point x="506" y="1905"/>
      <point x="198" y="1905" type="curve" smooth="yes"/>
      <point x="-91" y="1905"/>
      <point x="-328" y="1822"/>
    </contour>
  </outline>
</glyph>
<glyph name="CombDblRtArrwBlw" format="2">
  <unicode hex="0362"/>
  <anchor x="-146" y="-800" name="L"/>
  <anchor x="135" y="1560" name="U"/>
  <outline>
    <contour>
      <point x="459" y="-698" type="curve"/>
      <point x="442" y="-672" type="line"/>
      <point x="-726" y="-672" type="line"/>
      <point x="-742" y="-698"/>
      <point x="-749" y="-710"/>
      <point x="-760" y="-737" type="curve"/>
      <point x="-743" y="-760" type="line"/>
      <point x="428" y="-760" type="line"/>
      <point x="442" y="-739"/>
      <point x="450" y="-724"/>
    </contour>
    <contour>
      <point x="435" y="-716" type="line"/>
      <point x="317" y="-888" type="line"/>
      <point x="363" y="-912" type="line"/>
      <point x="525" y="-716" type="line"/>
      <point x="416" y="-520" type="line"/>
      <point x="364" y="-545" type="line"/>
    </contour>
  </outline>
</glyph>
<glyph name="CombLtnSmE" format="2">
  <unicode hex="0364"/>
  <anchor x="-279" y="1490" name="U"/>
  <anchor x="-352" y="1000" name="_U"/>
  <outline>
    <contour>
      <point x="-144" y="1382" type="curve" smooth="yes"/>
      <point x="-144" y="1423"/>
      <point x="-174" y="1466"/>
      <point x="-239" y="1466" type="curve" smooth="yes"/>
      <point x="-282" y="1466"/>
      <point x="-333" y="1448"/>
      <point x="-362" y="1426" type="curve" smooth="yes"/>
      <point x="-445" y="1364"/>
      <point x="-500" y="1274"/>
      <point x="-500" y="1185" type="curve" smooth="yes"/>
      <point x="-500" y="1070"/>
      <point x="-417" y="1028"/>
      <point x="-370" y="1028" type="curve" smooth="yes"/>
      <point x="-320" y="1028"/>
      <point x="-264" y="1043"/>
      <point x="-153" y="1130" type="curve"/>
      <point x="-156" y="1137"/>
      <point x="-167" y="1153"/>
      <point x="-189" y="1162" type="curve"/>
      <point x="-269" y="1104"/>
      <point x="-312" y="1097"/>
      <point x="-336" y="1097" type="curve" smooth="yes"/>
      <point x="-362" y="1097"/>
      <point x="-392" y="1135"/>
      <point x="-399" y="1191" type="curve"/>
      <point x="-173" y="1271"/>
      <point x="-144" y="1332"/>
    </contour>
    <contour>
      <point x="-318" y="1384" type="curve" smooth="yes"/>
      <point x="-301" y="1398"/>
      <point x="-285" y="1403"/>
      <point x="-279" y="1403" type="curve" smooth="yes"/>
      <point x="-266" y="1403"/>
      <point x="-253" y="1392"/>
      <point x="-253" y="1362" type="curve" smooth="yes"/>
      <point x="-253" y="1328"/>
      <point x="-266" y="1296"/>
      <point x="-397" y="1247" type="curve"/>
      <point x="-387" y="1300"/>
      <point x="-353" y="1355"/>
    </contour>
  </outline>
</glyph>
<glyph name="CombLtnSmU" format="2">
  <unicode hex="0367"/>
  <anchor x="-279" y="1490" name="U"/>
  <anchor x="-352" y="1000" name="_U"/>
  <outline>
    <contour>
      <point x="-235" y="1385" type="curve" smooth="yes"/>
      <point x="-235" y="1346"/>
      <point x="-265" y="1238"/>
      <point x="-265" y="1174" type="curve" smooth="yes"/>
      <point x="-265" y="1077"/>
      <point x="-237" y="1039"/>
      <point x="-208" y="1039" type="curve" smooth="yes"/>
      <point x="-183" y="1039"/>
      <point x="-141" y="1059"/>
      <point x="-82" y="1093" type="curve"/>
      <point x="-94" y="1125" type="line"/>
      <point x="-125" y="1113"/>
      <point x="-141" y="1110"/>
      <point x="-149" y="1110" type="curve" smooth="yes"/>
      <point x="-159" y="1110"/>
      <point x="-167" y="1119"/>
      <point x="-167" y="1161" type="curve" smooth="yes"/>
      <point x="-167" y="1226"/>
      <point x="-129" y="1379"/>
      <point x="-129" y="1431" type="curve" smooth="yes"/>
      <point x="-129" y="1467"/>
      <point x="-139" y="1475"/>
      <point x="-167" y="1475" type="curve" smooth="yes"/>
      <point x="-187" y="1475"/>
      <point x="-260" y="1447"/>
      <point x="-305" y="1429" type="curve"/>
      <point x="-294" y="1399" type="line"/>
      <point x="-280" y="1403"/>
      <point x="-256" y="1407"/>
      <point x="-250" y="1407" type="curve" smooth="yes"/>
      <point x="-242" y="1407"/>
      <point x="-235" y="1404"/>
    </contour>
    <contour>
      <point x="-375" y="1431" type="curve" smooth="yes"/>
      <point x="-375" y="1467"/>
      <point x="-385" y="1475"/>
      <point x="-413" y="1475" type="curve" smooth="yes"/>
      <point x="-437" y="1475"/>
      <point x="-510" y="1447"/>
      <point x="-556" y="1428" type="curve"/>
      <point x="-545" y="1398" type="line"/>
      <point x="-531" y="1402"/>
      <point x="-502" y="1407"/>
      <point x="-496" y="1407" type="curve" smooth="yes"/>
      <point x="-488" y="1407"/>
      <point x="-481" y="1404"/>
      <point x="-481" y="1385" type="curve" smooth="yes"/>
      <point x="-481" y="1348"/>
      <point x="-514" y="1217"/>
      <point x="-514" y="1153" type="curve" smooth="yes"/>
      <point x="-514" y="1078"/>
      <point x="-462" y="1039"/>
      <point x="-431" y="1039" type="curve" smooth="yes"/>
      <point x="-346" y="1039"/>
      <point x="-284" y="1110"/>
      <point x="-208" y="1248" type="curve"/>
      <point x="-226" y="1307" type="line"/>
      <point x="-309" y="1152"/>
      <point x="-368" y="1111"/>
      <point x="-392" y="1111" type="curve" smooth="yes"/>
      <point x="-403" y="1111"/>
      <point x="-413" y="1119"/>
      <point x="-413" y="1163" type="curve" smooth="yes"/>
      <point x="-413" y="1233"/>
      <point x="-375" y="1382"/>
    </contour>
  </outline>
</glyph>
<glyph name="CombLtnSmT" format="2">
  <unicode hex="036D"/>
  <anchor x="-252" y="1640" name="U"/>
  <anchor x="-352" y="1000" name="_U"/>
  <outline>
    <contour>
      <point x="-143" y="1460" type="line"/>
      <point x="-384" y="1460" type="line"/>
      <point x="-444" y="1428" type="line"/>
      <point x="-431" y="1402" type="line"/>
      <point x="-265" y="1402" type="line" smooth="yes"/>
      <point x="-233" y="1402"/>
      <point x="-208" y="1399"/>
      <point x="-200" y="1385" type="curve"/>
      <point x="-179" y="1395"/>
      <point x="-142" y="1419"/>
      <point x="-127" y="1438" type="curve"/>
    </contour>
    <contour>
      <point x="-175" y="1143" type="line"/>
      <point x="-230" y="1121"/>
      <point x="-262" y="1113"/>
      <point x="-282" y="1113" type="curve" smooth="yes"/>
      <point x="-292" y="1113"/>
      <point x="-302" y="1121"/>
      <point x="-302" y="1156" type="curve" smooth="yes"/>
      <point x="-302" y="1166"/>
      <point x="-300" y="1194"/>
      <point x="-296" y="1216" type="curve" smooth="yes"/>
      <point x="-253" y="1478" type="line" smooth="yes"/>
      <point x="-245" y="1527"/>
      <point x="-237" y="1555"/>
      <point x="-227" y="1567" type="curve"/>
      <point x="-253" y="1587" type="line"/>
      <point x="-315" y="1548" type="line" smooth="yes"/>
      <point x="-337" y="1534"/>
      <point x="-347" y="1518"/>
      <point x="-355" y="1471" type="curve" smooth="yes"/>
      <point x="-401" y="1209" type="line" smooth="yes"/>
      <point x="-406" y="1181"/>
      <point x="-407" y="1157"/>
      <point x="-407" y="1134" type="curve" smooth="yes"/>
      <point x="-407" y="1078"/>
      <point x="-372" y="1038"/>
      <point x="-332" y="1038" type="curve" smooth="yes"/>
      <point x="-300" y="1038"/>
      <point x="-229" y="1068"/>
      <point x="-161" y="1115" type="curve"/>
    </contour>
  </outline>
</glyph>
<glyph name="CombLtnSmV" format="2">
  <unicode hex="036E"/>
  <anchor x="-279" y="1490" name="U"/>
  <anchor x="-352" y="1000" name="_U"/>
  <outline>
    <contour>
      <point x="-74" y="1431" type="curve" smooth="yes"/>
      <point x="-74" y="1464"/>
      <point x="-92" y="1475"/>
      <point x="-124" y="1475" type="curve" smooth="yes"/>
      <point x="-148" y="1475"/>
      <point x="-198" y="1457"/>
      <point x="-241" y="1437" type="curve"/>
      <point x="-225" y="1409" type="line"/>
      <point x="-203" y="1416"/>
      <point x="-186" y="1418"/>
      <point x="-175" y="1418" type="curve" smooth="yes"/>
      <point x="-167" y="1418"/>
      <point x="-160" y="1411"/>
      <point x="-160" y="1405" type="curve" smooth="yes"/>
      <point x="-160" y="1378"/>
      <point x="-208" y="1283"/>
      <point x="-284" y="1163" type="curve"/>
      <point x="-296" y="1233"/>
      <point x="-323" y="1380"/>
      <point x="-334" y="1415" type="curve" smooth="yes"/>
      <point x="-348" y="1459"/>
      <point x="-356" y="1475"/>
      <point x="-387" y="1475" type="curve" smooth="yes"/>
      <point x="-405" y="1475"/>
      <point x="-457" y="1453"/>
      <point x="-518" y="1428" type="curve"/>
      <point x="-505" y="1398" type="line"/>
      <point x="-489" y="1403"/>
      <point x="-463" y="1410"/>
      <point x="-451" y="1410" type="curve" smooth="yes"/>
      <point x="-440" y="1410"/>
      <point x="-435" y="1402"/>
      <point x="-429" y="1380" type="curve" smooth="yes"/>
      <point x="-419" y="1343"/>
      <point x="-380" y="1150"/>
      <point x="-367" y="1056" type="curve"/>
      <point x="-347" y="1036" type="line"/>
      <point x="-335" y="1041"/>
      <point x="-290" y="1059"/>
      <point x="-277" y="1067" type="curve"/>
      <point x="-121" y="1298"/>
      <point x="-74" y="1394"/>
    </contour>
  </outline>
</glyph>
<glyph name="GrCapPamphylianDigamma" format="2">
  <advance width="1235"/>
  <unicode hex="0376"/>
  <anchor x="551" y="-100" name="L"/>
  <anchor x="749" y="1320" name="U"/>
  <outline>
    <contour>
      <point x="171" y="1217" type="line"/>
      <point x="255" y="1204"/>
      <point x="295" y="1174"/>
      <point x="293" y="1155" type="curve" smooth="yes"/>
      <point x="129" y="32" type="line"/>
      <point x="288" y="141" type="line"/>
      <point x="437" y="1155" type="line" smooth="yes"/>
      <point x="439" y="1171"/>
      <point x="478" y="1202"/>
      <point x="576" y="1217" type="curve"/>
      <point x="582" y="1260" type="line"/>
      <point x="177" y="1260" type="line"/>
    </contour>
    <contour>
      <point x="120" y="-30" type="line"/>
      <point x="175" y="-27"/>
      <point x="217" y="-1"/>
      <point x="235" y="21" type="curve"/>
      <point x="1079" y="1110" type="line"/>
      <point x="1138" y="1187"/>
      <point x="1140" y="1136"/>
      <point x="1159" y="1155" type="curve"/>
      <point x="1176" y="1280" type="line"/>
      <point x="1113" y="1271"/>
      <point x="1070" y="1264"/>
      <point x="1050" y="1238" type="curve" smooth="yes"/>
      <point x="305" y="273" type="line" smooth="yes"/>
      <point x="275" y="234"/>
      <point x="133" y="60"/>
      <point x="133" y="60" type="curve"/>
    </contour>
    <contour>
      <point x="1121" y="0" type="line"/>
      <point x="1126" y="43" type="line"/>
      <point x="1040" y="55"/>
      <point x="1001" y="86"/>
      <point x="1004" y="104" type="curve" smooth="yes"/>
      <point x="1164" y="1196" type="line"/>
      <point x="1007" y="1101" type="line"/>
      <point x="860" y="104" type="line" smooth="yes"/>
      <point x="858" y="88"/>
      <point x="816" y="57"/>
      <point x="721" y="43" type="curve"/>
      <point x="716" y="0" type="line"/>
    </contour>
  </outline>
</glyph>
<glyph name="GrYpo" format="2">
  <advance width="400"/>
  <unicode hex="037A"/>
  <outline>
    <contour>
      <point x="218" y="-407" type="curve"/>
      <point x="197" y="-386" type="line"/>
      <point x="182" y="-401"/>
      <point x="168" y="-409"/>
      <point x="157" y="-409" type="curve" smooth="yes"/>
      <point x="140" y="-409"/>
      <point x="134" y="-399"/>
      <point x="155" y="-280" type="curve" smooth="yes"/>
      <point x="179" y="-120" type="line"/>
      <point x="154" y="-120" type="line"/>
      <point x="118" y="-134"/>
      <point x="62" y="-147"/>
      <point x="29" y="-154" type="curve"/>
      <point x="33" y="-179"/>
      <point x="30" y="-245"/>
      <point x="10" y="-346" type="curve" smooth="yes"/>
      <point x="-12" y="-459"/>
      <point x="21" y="-500"/>
      <point x="62" y="-500" type="curve" smooth="yes"/>
      <point x="94" y="-500"/>
      <point x="164" y="-484"/>
    </contour>
  </outline>
</glyph>
<glyph name="GrCapEpsilon" format="2">
  <advance width="946"/>
  <unicode hex="0395"/>
  <anchor x="145" y="1260" name="G"/>
  <outline>
    <contour>
      <point x="936" y="1235" type="curve"/>
      <point x="911" y="1260" type="line"/>
      <point x="430" y="1260" type="line"/>
      <point x="391" y="1169" type="line"/>
      <point x="772" y="1169" type="line" smooth="yes"/>
      <point x="819" y="1169"/>
      <point x="838" y="1133"/>
      <point x="825" y="1010" type="curve"/>
      <point x="868" y="1010" type="line"/>
      <point x="891" y="1061"/>
      <point x="924" y="1167"/>
    </contour>
    <contour>
      <point x="772" y="707" type="curve"/>
      <point x="752" y="735" type="line"/>
      <point x="342" y="735" type="line"/>
      <point x="311" y="655" type="line"/>
      <point x="436" y="655" type="line" smooth="yes"/>
      <point x="586" y="655"/>
      <point x="631" y="645"/>
      <point x="674" y="600" type="curve"/>
      <point x="702" y="623"/>
      <point x="745" y="670"/>
    </contour>
    <contour>
      <point x="856" y="244" type="curve"/>
      <point x="817" y="262" type="line"/>
      <point x="743" y="106"/>
      <point x="709" y="90"/>
      <point x="598" y="90" type="curve" smooth="yes"/>
      <point x="477" y="90" type="line" smooth="yes"/>
      <point x="317" y="90"/>
      <point x="294" y="115"/>
      <point x="299" y="154" type="curve" smooth="yes"/>
      <point x="438" y="1176" type="line"/>
      <point x="442" y="1194"/>
      <point x="494" y="1198"/>
      <point x="578" y="1217" type="curve"/>
      <point x="584" y="1260" type="line"/>
      <point x="430" y="1260" type="line"/>
      <point x="174" y="1260" type="line"/>
      <point x="168" y="1217" type="line"/>
      <point x="254" y="1198"/>
      <point x="295" y="1171"/>
      <point x="293" y="1155" type="curve" smooth="yes"/>
      <point x="147" y="104" type="line" smooth="yes"/>
      <point x="145" y="86"/>
      <point x="90" y="61"/>
      <point x="6" y="43" type="curve"/>
      <point x="0" y="0" type="line"/>
      <point x="784" y="0" type="line"/>
      <point x="799" y="39"/>
      <point x="829" y="129"/>
    </contour>
  </outline>
</glyph>
<glyph name="GrCapTheta" format="2">
  <advance width="1192"/>
  <unicode hex="0398"/>
  <anchor x="510" y="-100" name="L"/>
  <anchor x="713" y="1366" name="U"/>
  <outline>
    <contour>
      <point x="1117" y="647" type="curve" smooth="yes"/>
      <point x="1162" y="973"/>
      <point x="1042" y="1290"/>
      <point x="736" y="1290" type="curve" smooth="yes"/>
      <point x="449" y="1290"/>
      <point x="167" y="975"/>
      <point x="117" y="612" type="curve" smooth="yes"/>
      <point x="70" y="276"/>
      <point x="203" y="-30"/>
      <point x="499" y="-30" type="curve" smooth="yes"/>
      <point x="778" y="-30"/>
      <point x="1066" y="285"/>
    </contour>
    <contour>
      <point x="976" y="629" type="curve" smooth="yes"/>
      <point x="927" y="276"/>
      <point x="751" y="90"/>
      <point x="543" y="90" type="curve" smooth="yes"/>
      <point x="350" y="90"/>
      <point x="218" y="342"/>
      <point x="260" y="641" type="curve" smooth="yes"/>
      <point x="305" y="967"/>
      <point x="468" y="1176"/>
      <point x="694" y="1176" type="curve" smooth="yes"/>
      <point x="908" y="1176"/>
      <point x="1014" y="905"/>
    </contour>
    <contour>
      <point x="900" y="829" type="line"/>
      <point x="862" y="829" type="line"/>
      <point x="832" y="733"/>
      <point x="789" y="715"/>
      <point x="774" y="715" type="curve" smooth="yes"/>
      <point x="492" y="715" type="line" smooth="yes"/>
      <point x="476" y="715"/>
      <point x="458" y="739"/>
      <point x="455" y="829" type="curve"/>
      <point x="416" y="829" type="line"/>
      <point x="338" y="469" type="line"/>
      <point x="377" y="469" type="line"/>
      <point x="406" y="565"/>
      <point x="442" y="586"/>
      <point x="458" y="586" type="curve" smooth="yes"/>
      <point x="738" y="586" type="line" smooth="yes"/>
      <point x="754" y="586"/>
      <point x="781" y="559"/>
      <point x="786" y="469" type="curve"/>
      <point x="825" y="469" type="line"/>
    </contour>
  </outline>
</glyph>
<glyph name="GrCapMu" format="2">
  <advance width="1511"/>
  <unicode hex="039C"/>
  <outline>
    <contour>
      <point x="1407" y="43" type="line"/>
      <point x="1321" y="61"/>
      <point x="1276" y="88"/>
      <point x="1278" y="104" type="curve" smooth="yes"/>
      <point x="1403" y="1214" type="line"/>
      <point x="1262" y="1157" type="line"/>
      <point x="1143" y="104" type="line" smooth="yes"/>
      <point x="1141" y="86"/>
      <point x="1081" y="61"/>
      <point x="997" y="43" type="curve"/>
      <point x="991" y="0" type="line"/>
      <point x="1401" y="0" type="line"/>
    </contour>
    <contour>
      <point x="1536" y="1260" type="line"/>
      <point x="1276" y="1260" type="line" smooth="yes"/>
      <point x="1253" y="1260"/>
      <point x="1243" y="1247"/>
      <point x="1206" y="1176" type="curve" smooth="yes"/>
      <point x="737" y="262" type="line" smooth="yes"/>
      <point x="715" y="219"/>
      <point x="702" y="168"/>
      <point x="709" y="0" type="curve"/>
      <point x="711" y="0" type="line"/>
      <point x="1241" y="1040" type="line" smooth="yes"/>
      <point x="1294" y="1147"/>
      <point x="1450" y="1217"/>
      <point x="1532" y="1217" type="curve"/>
    </contour>
    <contour>
      <point x="752" y="264" type="curve"/>
      <point x="498" y="1176" type="line"/>
      <point x="479" y="1247"/>
      <point x="475" y="1260"/>
      <point x="453" y="1260" type="curve" smooth="yes"/>
      <point x="188" y="1260" type="line"/>
      <point x="182" y="1217" type="line"/>
      <point x="248" y="1217"/>
      <point x="356" y="1182"/>
      <point x="389" y="1061" type="curve" smooth="yes"/>
      <point x="670" y="0" type="line"/>
      <point x="709" y="0" type="line"/>
      <point x="760" y="168"/>
      <point x="764" y="223"/>
    </contour>
    <contour>
      <point x="418" y="1221" type="line"/>
      <point x="309" y="1196" type="line"/>
      <point x="150" y="104" type="line" smooth="yes"/>
      <point x="147" y="86"/>
      <point x="96" y="61"/>
      <point x="10" y="43" type="curve"/>
      <point x="4" y="0" type="line"/>
      <point x="373" y="0" type="line"/>
      <point x="379" y="43" type="line"/>
      <point x="293" y="61"/>
      <point x="254" y="88"/>
      <point x="256" y="104" type="curve" smooth="yes"/>
    </contour>
  </outline>
</glyph>
<glyph name="GrCapXi" format="2">
  <advance width="977"/>
  <unicode hex="039E"/>
  <outline>
    <contour>
      <point x="1017" y="1235" type="curve"/>
      <point x="993" y="1260" type="line"/>
      <point x="582" y="1260" type="line"/>
      <point x="537" y="1130" type="line"/>
      <point x="848" y="1130" type="line" smooth="yes"/>
      <point x="902" y="1130"/>
      <point x="906" y="1092"/>
      <point x="914" y="979" type="curve"/>
      <point x="954" y="979" type="line"/>
      <point x="981" y="1065"/>
      <point x="1006" y="1167"/>
    </contour>
    <contour>
      <point x="699" y="1130" type="line"/>
      <point x="693" y="1260" type="line"/>
      <point x="272" y="1260" type="line"/>
      <point x="250" y="1190"/>
      <point x="213" y="1071"/>
      <point x="199" y="993" type="curve"/>
      <point x="234" y="975" type="line"/>
      <point x="290" y="1096"/>
      <point x="309" y="1130"/>
      <point x="360" y="1130" type="curve" smooth="yes"/>
    </contour>
    <contour>
      <point x="784" y="829" type="line"/>
      <point x="745" y="829" type="line"/>
      <point x="716" y="733"/>
      <point x="673" y="715"/>
      <point x="657" y="715" type="curve" smooth="yes"/>
      <point x="421" y="715" type="line" smooth="yes"/>
      <point x="405" y="715"/>
      <point x="386" y="739"/>
      <point x="383" y="829" type="curve"/>
      <point x="344" y="829" type="line"/>
      <point x="268" y="469" type="line"/>
      <point x="306" y="469" type="line"/>
      <point x="336" y="565"/>
      <point x="370" y="586"/>
      <point x="385" y="586" type="curve" smooth="yes"/>
      <point x="621" y="586" type="line" smooth="yes"/>
      <point x="637" y="586"/>
      <point x="665" y="559"/>
      <point x="669" y="469" type="curve"/>
      <point x="708" y="469" type="line"/>
    </contour>
    <contour>
      <point x="889" y="266" type="curve"/>
      <point x="852" y="285" type="line"/>
      <point x="792" y="158"/>
      <point x="778" y="139"/>
      <point x="730" y="139" type="curve" smooth="yes"/>
      <point x="364" y="139" type="line"/>
      <point x="367" y="0" type="line"/>
      <point x="822" y="0" type="line"/>
      <point x="844" y="70"/>
      <point x="872" y="188"/>
    </contour>
    <contour>
      <point x="526" y="139" type="line"/>
      <point x="178" y="139" type="line" smooth="yes"/>
      <point x="125" y="139"/>
      <point x="113" y="170"/>
      <point x="102" y="281" type="curve"/>
      <point x="60" y="281" type="line"/>
      <point x="39" y="188"/>
      <point x="16" y="92"/>
      <point x="5" y="27" type="curve"/>
      <point x="32" y="0" type="line"/>
      <point x="475" y="0" type="line"/>
    </contour>
  </outline>
</glyph>
<glyph name="GrCapOmicron" format="2">
  <advance width="1135"/>
  <unicode hex="039F"/>
  <anchor x="152" y="1260" name="G"/>
  <outline>
    <contour>
      <point x="1085" y="774" type="curve"/>
      <point x="1085" y="1055"/>
      <point x="967" y="1290"/>
      <point x="705" y="1290" type="curve" smooth="yes"/>
      <point x="516" y="1290"/>
      <point x="369" y="1167"/>
      <point x="258" y="1018" type="curve" smooth="yes"/>
      <point x="150" y="874"/>
      <point x="90" y="653"/>
      <point x="90" y="485" type="curve" smooth="yes"/>
      <point x="90" y="205"/>
      <point x="215" y="-31"/>
      <point x="471" y="-31" type="curve" smooth="yes"/>
      <point x="649" y="-31"/>
      <point x="788" y="82"/>
      <point x="901" y="225" type="curve" smooth="yes"/>
      <point x="1022" y="377"/>
      <point x="1085" y="586"/>
    </contour>
    <contour>
      <point x="936" y="756" type="curve"/>
      <point x="936" y="502"/>
      <point x="821" y="100"/>
      <point x="516" y="100" type="curve" smooth="yes"/>
      <point x="356" y="100"/>
      <point x="242" y="288"/>
      <point x="242" y="532" type="curve" smooth="yes"/>
      <point x="242" y="784"/>
      <point x="363" y="1165"/>
      <point x="662" y="1165" type="curve" smooth="yes"/>
      <point x="833" y="1165"/>
      <point x="936" y="976"/>
    </contour>
  </outline>
</glyph>
<glyph name="GrCapPi" format="2">
  <advance width="1180"/>
  <unicode hex="03A0"/>
  <outline>
    <contour>
      <point x="406" y="0" type="line"/>
      <point x="411" y="43" type="line"/>
      <point x="327" y="61"/>
      <point x="287" y="88"/>
      <point x="289" y="104" type="curve" smooth="yes"/>
      <point x="429" y="1110" type="line" smooth="yes"/>
      <point x="433" y="1141"/>
      <point x="496" y="1177"/>
      <point x="610" y="1179" type="curve"/>
      <point x="759" y="1179" type="line" smooth="yes"/>
      <point x="878" y="1179"/>
      <point x="937" y="1141"/>
      <point x="933" y="1110" type="curve" smooth="yes"/>
      <point x="793" y="104" type="line" smooth="yes"/>
      <point x="790" y="86"/>
      <point x="738" y="61"/>
      <point x="654" y="43" type="curve"/>
      <point x="649" y="0" type="line"/>
      <point x="1055" y="0" type="line"/>
      <point x="1060" y="43" type="line"/>
      <point x="976" y="61"/>
      <point x="935" y="88"/>
      <point x="937" y="104" type="curve" smooth="yes"/>
      <point x="1083" y="1155" type="line" smooth="yes"/>
      <point x="1086" y="1174"/>
      <point x="1139" y="1198"/>
      <point x="1224" y="1217" type="curve"/>
      <point x="1230" y="1260" type="line"/>
      <point x="175" y="1260" type="line"/>
      <point x="169" y="1217" type="line"/>
      <point x="252" y="1198"/>
      <point x="293" y="1171"/>
      <point x="291" y="1155" type="curve" smooth="yes"/>
      <point x="145" y="104" type="line" smooth="yes"/>
      <point x="142" y="86"/>
      <point x="89" y="61"/>
      <point x="5" y="43" type="curve"/>
      <point x="0" y="0" type="line"/>
    </contour>
  </outline>
</glyph>
<glyph name="GrSmGamma" format="2">
  <advance width="924"/>
  <unicode hex="03B3"/>
  <anchor x="377" y="-600" name="L"/>
  <anchor x="599" y="1000" name="U"/>
  <outline>
    <contour>
      <point x="954" y="913" type="curve"/>
      <point x="928" y="944" type="line"/>
      <point x="881" y="932"/>
      <point x="803" y="909"/>
      <point x="756" y="897" type="curve"/>
      <point x="703" y="590"/>
      <point x="590" y="328"/>
      <point x="428" y="23" type="curve"/>
      <point x="440" y="-20"/>
      <point x="487" y="-104"/>
      <point x="487" y="-104" type="curve"/>
      <point x="616" y="225"/>
      <point x="778" y="610"/>
    </contour>
    <contour>
      <point x="522" y="16" type="curve"/>
      <point x="522" y="90"/>
      <point x="492" y="324"/>
      <point x="469" y="424" type="curve" smooth="yes"/>
      <point x="399" y="717"/>
      <point x="342" y="936"/>
      <point x="281" y="936" type="curve" smooth="yes"/>
      <point x="252" y="936"/>
      <point x="133" y="889"/>
      <point x="20" y="840" type="curve"/>
      <point x="35" y="801" type="line"/>
      <point x="35" y="801"/>
      <point x="137" y="827"/>
      <point x="160" y="827" type="curve" smooth="yes"/>
      <point x="264" y="827"/>
      <point x="385" y="88"/>
      <point x="385" y="0" type="curve" smooth="yes"/>
      <point x="385" y="-86"/>
      <point x="377" y="-252"/>
      <point x="324" y="-471" type="curve"/>
      <point x="340" y="-484"/>
      <point x="348" y="-492"/>
      <point x="356" y="-500" type="curve"/>
      <point x="399" y="-478"/>
      <point x="461" y="-450"/>
      <point x="508" y="-428" type="curve"/>
      <point x="514" y="-371"/>
      <point x="522" y="-39"/>
    </contour>
  </outline>
</glyph>
